<svg xmlns="http://www.w3.org/2000/svg" viewBox="0 0 500 500"><g id="freepik--background-complete--inject-2"><rect y="382.4" width="500" height="0.25" style="fill:#ebebeb"></rect><rect x="322.53" y="401.21" width="8.69" height="0.25" style="fill:#ebebeb"></rect><rect x="150.04" y="388.78" width="23.18" height="0.25" style="fill:#ebebeb"></rect><rect x="402.1" y="394.14" width="56.67" height="0.25" style="fill:#ebebeb"></rect><rect x="42.72" y="394.14" width="56.67" height="0.25" style="fill:#ebebeb"></rect><path d="M237,337.8H43.91a5.71,5.71,0,0,1-5.7-5.71V60.66A5.71,5.71,0,0,1,43.91,55H237a5.71,5.71,0,0,1,5.71,5.71V332.09A5.71,5.71,0,0,1,237,337.8ZM43.91,55.2a5.46,5.46,0,0,0-5.45,5.46V332.09a5.46,5.46,0,0,0,5.45,5.46H237a5.47,5.47,0,0,0,5.46-5.46V60.66A5.47,5.47,0,0,0,237,55.2Z" style="fill:#ebebeb"></path><path d="M453.31,337.8H260.21a5.72,5.72,0,0,1-5.71-5.71V60.66A5.72,5.72,0,0,1,260.21,55h193.1A5.71,5.71,0,0,1,459,60.66V332.09A5.71,5.71,0,0,1,453.31,337.8ZM260.21,55.2a5.47,5.47,0,0,0-5.46,5.46V332.09a5.47,5.47,0,0,0,5.46,5.46h193.1a5.47,5.47,0,0,0,5.46-5.46V60.66a5.47,5.47,0,0,0-5.46-5.46Z" style="fill:#ebebeb"></path><path d="M404.72,82.26c.28-6.49-3.65-11.5-10-12.55-1.95-2.87-5.32-4.65-9.61-4.65-6.7,0-13.62,4.33-17.35,10.35a19.48,19.48,0,0,0-13.08,8,6.61,6.61,0,0,0-2.1-.32A10.69,10.69,0,0,0,343,90.61a7.07,7.07,0,0,0-.22,3.06h65.18a10.84,10.84,0,0,0,1.44-3.06C410.54,86.43,408.51,83,404.72,82.26Z" style="fill:#f5f5f5"></path><path d="M105,99.94a10,10,0,0,0-8.67-10.86,9.67,9.67,0,0,0-8.31-4c-5.8,0-11.78,3.75-15,9a16.87,16.87,0,0,0-11.31,7,5.84,5.84,0,0,0-1.82-.28,9.26,9.26,0,0,0-8.32,6.47,6.05,6.05,0,0,0-.19,2.64h56.39a9.26,9.26,0,0,0,1.25-2.64C110.07,103.55,108.31,100.54,105,99.94Z" style="fill:#f5f5f5"></path><path d="M274.6,102.72a22.53,22.53,0,0,0-6.8,1.09A24.94,24.94,0,0,0,252,98c-3.42-10.78-13.17-18-26.67-18-12.93,0-26.2,6.61-35.7,16.64-.76-.07-1.53-.1-2.33-.1-15.57,0-31.78,12.62-36.22,28.19a28.63,28.63,0,0,0-1.07,6.06h134.8a26.09,26.09,0,0,0,4-8.11C292,111.66,285.63,102.72,274.6,102.72Z" style="fill:#fafafa"></path><rect x="51.33" y="293.93" width="47.35" height="88.46" style="fill:#e0e0e0"></rect><rect x="56.83" y="274.68" width="36.35" height="20.47" style="fill:#e0e0e0"></rect><rect x="54.28" y="273.33" width="41.45" height="3.18" style="fill:#e0e0e0"></rect><polygon points="378.7 242.58 438.11 262.72 438.11 382.4 378.7 382.4 378.7 242.58" style="fill:#e0e0e0"></polygon><polygon points="390.07 222.28 426.74 234.72 426.74 308.59 390.07 308.59 390.07 222.28" style="fill:#e0e0e0"></polygon><rect x="259.36" y="212.72" width="152.55" height="169.81" style="fill:#f5f5f5"></rect><rect x="248.67" y="205.38" width="173.95" height="10.22" style="fill:#f5f5f5"></rect><rect x="255.61" y="260.47" width="160.05" height="10.22" style="fill:#f5f5f5"></rect><rect x="255.61" y="313.93" width="160.05" height="10.22" style="fill:#f5f5f5"></rect><polygon points="196.92 149.96 279.75 183.45 279.75 382.4 196.92 382.4 196.92 149.96" style="fill:#ebebeb"></polygon><polygon points="212.77 116.22 263.9 136.89 263.9 259.7 212.77 259.7 212.77 116.22" style="fill:#ebebeb"></polygon><polygon points="227.34 95.76 231.05 97.26 231.05 141.01 227.34 141.01 227.34 95.76" style="fill:#ebebeb"></polygon><polygon points="179.75 212.11 71.57 236.64 71.57 382.4 179.75 382.4 179.75 212.11" style="fill:#f0f0f0"></polygon><polygon points="159.04 152.06 92.27 167.21 92.27 292.5 159.04 292.5 159.04 152.06" style="fill:#f0f0f0"></polygon><polygon points="140.01 114.11 136.79 115.97 136.79 205.55 140.01 205.55 140.01 114.11" style="fill:#f0f0f0"></polygon><polygon points="109.56 126.39 106.34 128.25 106.34 217.84 109.56 217.84 109.56 126.39" style="fill:#f0f0f0"></polygon><rect x="128.67" y="259.6" width="97.33" height="122.8" style="fill:#f5f5f5"></rect><rect x="139.97" y="232.87" width="74.73" height="28.42" style="fill:#f5f5f5"></rect><rect x="134.73" y="231" width="85.21" height="4.42" style="fill:#f5f5f5"></rect><rect x="309.31" y="193.86" width="61.03" height="188.54" style="fill:#f0f0f0"></rect><rect x="316.39" y="152.84" width="46.86" height="43.63" style="fill:#f0f0f0"></rect><rect x="313.11" y="149.96" width="53.43" height="6.78" style="fill:#f0f0f0"></rect></g><g id="freepik--Shadow--inject-2"><ellipse id="freepik--path--inject-2" cx="250" cy="416.24" rx="193.89" ry="11.32" style="fill:#f5f5f5"></ellipse></g><g id="freepik--store-1--inject-2"><rect x="47.25" y="216.98" width="161.11" height="165.42" transform="translate(255.61 599.38) rotate(180)" style="fill:#890031"></rect><rect x="47.25" y="216.98" width="161.11" height="165.42" transform="translate(255.61 599.38) rotate(180)" style="fill:#fff;opacity:0.4"></rect><path d="M45.92,373.63H209.69a0,0,0,0,1,0,0v6.47a2.3,2.3,0,0,1-2.3,2.3H48.21a2.3,2.3,0,0,1-2.3-2.3v-6.47A0,0,0,0,1,45.92,373.63Z" transform="translate(255.61 756.02) rotate(180)" style="fill:#890031"></path><path d="M45.92,252.42H209.69a0,0,0,0,1,0,0v2.09a2.3,2.3,0,0,1-2.3,2.3H48.21a2.3,2.3,0,0,1-2.3-2.3v-2.09a0,0,0,0,1,0,0Z" style="fill:#263238"></path><path d="M45.92,214.05H209.69a0,0,0,0,1,0,0v2.09a2.3,2.3,0,0,1-2.3,2.3H48.21a2.3,2.3,0,0,1-2.3-2.3v-2.09a0,0,0,0,1,0,0Z" transform="translate(255.61 432.49) rotate(180)" style="fill:#263238"></path><path d="M69.51,238.93v-3.8h8.71v7.78a17.63,17.63,0,0,1-4.43,2.32,15,15,0,0,1-4.56.62,11.12,11.12,0,0,1-5.3-1.11,7.61,7.61,0,0,1-3.17-3.3,10.87,10.87,0,0,1-1.13-5,10.45,10.45,0,0,1,1.24-5.2,7.94,7.94,0,0,1,3.61-3.35,11.7,11.7,0,0,1,5-.89,14.11,14.11,0,0,1,4.52.55,5.9,5.9,0,0,1,2.49,1.7A7.53,7.53,0,0,1,78,232.14l-5.44,1a2.91,2.91,0,0,0-1.14-1.58,3.59,3.59,0,0,0-2-.55,3.68,3.68,0,0,0-3,1.29,6.18,6.18,0,0,0-1.1,4.08,6.4,6.4,0,0,0,1.11,4.23,3.91,3.91,0,0,0,3.11,1.27,5.94,5.94,0,0,0,1.8-.27,9.79,9.79,0,0,0,2-.94v-1.71Z" style="fill:#890031"></path><path d="M81.64,245.54V227.29H91a13.65,13.65,0,0,1,4,.44,4.3,4.3,0,0,1,2.23,1.67,5.16,5.16,0,0,1-1.58,7.36,6.89,6.89,0,0,1-2,.72,5.43,5.43,0,0,1,1.46.68,5.26,5.26,0,0,1,.91,1,7.77,7.77,0,0,1,.79,1.14l2.73,5.29H93.22l-3-5.58a4.3,4.3,0,0,0-1-1.41,2.39,2.39,0,0,0-1.38-.42h-.5v7.41Zm5.67-10.86h2.38a8.24,8.24,0,0,0,1.49-.25,1.48,1.48,0,0,0,.92-.57,1.73,1.73,0,0,0,.35-1.06,1.7,1.7,0,0,0-.56-1.36,3.41,3.41,0,0,0-2.1-.47H87.31Z" style="fill:#890031"></path><path d="M100.26,236.42a8.64,8.64,0,0,1,9.42-9.45q4.56,0,7,2.45a9.2,9.2,0,0,1,2.47,6.85,11.19,11.19,0,0,1-1.08,5.25,7.65,7.65,0,0,1-3.11,3.19,10.28,10.28,0,0,1-5.07,1.14,11.72,11.72,0,0,1-5.11-1,7.76,7.76,0,0,1-3.29-3.12A10.41,10.41,0,0,1,100.26,236.42Zm5.64,0a6.14,6.14,0,0,0,1,4,3.89,3.89,0,0,0,5.61,0c.67-.79,1-2.21,1-4.25a5.68,5.68,0,0,0-1-3.77,3.55,3.55,0,0,0-2.82-1.18,3.44,3.44,0,0,0-2.74,1.2A6.15,6.15,0,0,0,105.9,236.45Z" style="fill:#890031"></path><path d="M134.36,238.07l4.94,1.49a9,9,0,0,1-1.57,3.48,6.82,6.82,0,0,1-2.66,2.1,10,10,0,0,1-4,.71,11.68,11.68,0,0,1-4.86-.87,7.63,7.63,0,0,1-3.25-3,10.24,10.24,0,0,1-1.37-5.57q0-4.53,2.41-7a10.92,10.92,0,0,1,12.23-1,8.2,8.2,0,0,1,2.94,4.28l-5,1.11a4.43,4.43,0,0,0-.55-1.22,3.18,3.18,0,0,0-2.69-1.34,3.31,3.31,0,0,0-2.94,1.54,6.58,6.58,0,0,0-.77,3.59c0,2,.31,3.41.92,4.16a3.63,3.63,0,0,0,5,.22A5.69,5.69,0,0,0,134.36,238.07Z" style="fill:#890031"></path><path d="M142,227.29h15.11v3.89h-9.46v2.9h8.78v3.73h-8.78v3.59h9.73v4.14H142Z" style="fill:#890031"></path><path d="M160.53,245.54V227.29h9.4a13.62,13.62,0,0,1,4,.44,4.26,4.26,0,0,1,2.23,1.67,5,5,0,0,1,.85,2.95,5.07,5.07,0,0,1-.65,2.62,5,5,0,0,1-1.78,1.79,6.78,6.78,0,0,1-2,.72,3.89,3.89,0,0,1,2.37,1.63,7,7,0,0,1,.79,1.14l2.73,5.29h-6.37l-3-5.58a4.3,4.3,0,0,0-1-1.41,2.39,2.39,0,0,0-1.38-.42h-.5v7.41Zm5.66-10.86h2.38a8,8,0,0,0,1.49-.25,1.46,1.46,0,0,0,.92-.57,1.86,1.86,0,0,0-.21-2.42,3.41,3.41,0,0,0-2.1-.47h-2.48Z" style="fill:#890031"></path><path d="M177.35,227.29h6.26l3.68,6.15,3.68-6.15h6.23l-7.09,10.6v7.65h-5.65v-7.65Z" style="fill:#890031"></path><path d="M69.51,237.58v-3.79h8.71v7.78a17.63,17.63,0,0,1-4.43,2.32,15,15,0,0,1-4.56.62,11.12,11.12,0,0,1-5.3-1.11,7.61,7.61,0,0,1-3.17-3.3,10.87,10.87,0,0,1-1.13-5,10.42,10.42,0,0,1,1.24-5.2,7.94,7.94,0,0,1,3.61-3.35,11.7,11.7,0,0,1,5-.89,14.11,14.11,0,0,1,4.52.55,5.9,5.9,0,0,1,2.49,1.7A7.53,7.53,0,0,1,78,230.8l-5.44,1a2.88,2.88,0,0,0-1.14-1.58,3.52,3.52,0,0,0-2-.55,3.68,3.68,0,0,0-3,1.29,6.18,6.18,0,0,0-1.1,4.08,6.42,6.42,0,0,0,1.11,4.23,3.91,3.91,0,0,0,3.11,1.27,5.94,5.94,0,0,0,1.8-.27,10.36,10.36,0,0,0,2-.94v-1.72Z" style="fill:#fff"></path><path d="M81.64,244.2V225.94H91a13.59,13.59,0,0,1,4,.45,4.34,4.34,0,0,1,2.23,1.66,5.16,5.16,0,0,1-1.58,7.37,6.89,6.89,0,0,1-2,.72,5.47,5.47,0,0,1,1.46.67,5.82,5.82,0,0,1,.91,1,7.77,7.77,0,0,1,.79,1.14l2.73,5.29H93.22l-3-5.58a4.3,4.3,0,0,0-1-1.41,2.39,2.39,0,0,0-1.38-.42h-.5v7.41Zm5.67-10.86h2.38a8.24,8.24,0,0,0,1.49-.25,1.53,1.53,0,0,0,.92-.57,1.73,1.73,0,0,0,.35-1.06,1.7,1.7,0,0,0-.56-1.36,3.41,3.41,0,0,0-2.1-.47H87.31Z" style="fill:#fff"></path><path d="M100.26,235.08a8.64,8.64,0,0,1,9.42-9.45q4.56,0,7,2.45a9.19,9.19,0,0,1,2.47,6.85,11.19,11.19,0,0,1-1.08,5.25,7.65,7.65,0,0,1-3.11,3.19,10.28,10.28,0,0,1-5.07,1.14,11.57,11.57,0,0,1-5.11-1,7.67,7.67,0,0,1-3.29-3.11A10.43,10.43,0,0,1,100.26,235.08Zm5.64,0a6.16,6.16,0,0,0,1,4,3.51,3.51,0,0,0,2.8,1.21,3.46,3.46,0,0,0,2.81-1.19c.67-.79,1-2.2,1-4.24a5.66,5.66,0,0,0-1-3.77,3.55,3.55,0,0,0-2.82-1.19,3.44,3.44,0,0,0-2.74,1.21A6.15,6.15,0,0,0,105.9,235.11Z" style="fill:#fff"></path><path d="M134.36,236.73l4.94,1.49a9,9,0,0,1-1.57,3.47,6.85,6.85,0,0,1-2.66,2.11,10,10,0,0,1-4,.71,11.68,11.68,0,0,1-4.86-.87,7.63,7.63,0,0,1-3.25-3,10.24,10.24,0,0,1-1.37-5.57q0-4.53,2.41-7a9.11,9.11,0,0,1,6.81-2.44,9.23,9.23,0,0,1,5.42,1.4,8.16,8.16,0,0,1,2.94,4.28l-5,1.11a4.43,4.43,0,0,0-.55-1.22,3.26,3.26,0,0,0-1.16-1,3.38,3.38,0,0,0-1.53-.35A3.31,3.31,0,0,0,128,231.4a6.58,6.58,0,0,0-.77,3.59c0,2,.31,3.41.92,4.16a3.66,3.66,0,0,0,5,.22A5.69,5.69,0,0,0,134.36,236.73Z" style="fill:#fff"></path><path d="M142,225.94h15.11v3.9h-9.46v2.9h8.78v3.72h-8.78v3.6h9.73v4.14H142Z" style="fill:#fff"></path><path d="M160.53,244.2V225.94h9.4a13.56,13.56,0,0,1,4,.45,4.3,4.3,0,0,1,2.23,1.66,5,5,0,0,1,.85,3,5.09,5.09,0,0,1-.65,2.62,5,5,0,0,1-1.78,1.79,6.78,6.78,0,0,1-2,.72,5.72,5.72,0,0,1,1.47.67,6.36,6.36,0,0,1,.9,1,7,7,0,0,1,.79,1.14l2.73,5.29h-6.37l-3-5.58a4.3,4.3,0,0,0-1-1.41,2.39,2.39,0,0,0-1.38-.42h-.5v7.41Zm5.66-10.86h2.38a8,8,0,0,0,1.49-.25,1.5,1.5,0,0,0,.92-.57,1.86,1.86,0,0,0-.21-2.42,3.41,3.41,0,0,0-2.1-.47h-2.48Z" style="fill:#fff"></path><path d="M177.35,225.94h6.26l3.68,6.16,3.68-6.16h6.23l-7.09,10.61v7.65h-5.65v-7.65Z" style="fill:#fff"></path><rect x="63.86" y="228.26" width="121.88" height="12.67" rx="2" transform="translate(-23.66 14.21) rotate(-5.95)" style="fill:#890031"></rect><path d="M104.73,237.22l2,.4a3.6,3.6,0,0,1-.48,1.46,2.7,2.7,0,0,1-1,.95,4,4,0,0,1-1.59.46,4.76,4.76,0,0,1-2-.15,3.09,3.09,0,0,1-1.43-1.08,4.2,4.2,0,0,1-.79-2.18,3.85,3.85,0,0,1,.68-2.9,3.71,3.71,0,0,1,2.63-1.26,3.78,3.78,0,0,1,2.24.33,3.3,3.3,0,0,1,1.35,1.6l-2,.65a1.54,1.54,0,0,0-.27-.46,1.2,1.2,0,0,0-.51-.35,1.28,1.28,0,0,0-.62-.08,1.33,1.33,0,0,0-1.12.74,2.69,2.69,0,0,0-.16,1.48,2.72,2.72,0,0,0,.55,1.63,1.25,1.25,0,0,0,1.08.34,1.3,1.3,0,0,0,1-.47A2.38,2.38,0,0,0,104.73,237.22Z" style="fill:#fff"></path><path d="M108.48,232.46l2.27-.24.57,5.52,3.54-.37.18,1.81-5.79.6Z" style="fill:#fff"></path><path d="M116.36,235.34a3.49,3.49,0,0,1,3.38-4.18,3.81,3.81,0,0,1,2.92.69,3.68,3.68,0,0,1,1.28,2.64,4.52,4.52,0,0,1-.21,2.15,3,3,0,0,1-1.12,1.41,4.08,4.08,0,0,1-2,.67,4.61,4.61,0,0,1-2.09-.18,3,3,0,0,1-1.44-1.11A4.16,4.16,0,0,1,116.36,235.34Zm2.26-.22a2.49,2.49,0,0,0,.58,1.55,1.42,1.42,0,0,0,1.17.37,1.38,1.38,0,0,0,1.08-.6,2.68,2.68,0,0,0,.23-1.74,2.33,2.33,0,0,0-.58-1.47,1.42,1.42,0,0,0-1.18-.36,1.39,1.39,0,0,0-1,.6A2.54,2.54,0,0,0,118.62,235.12Z" style="fill:#fff"></path><path d="M126,235.58l2.14-.36a1.5,1.5,0,0,0,.37.77,1.16,1.16,0,0,0,1,.34,1.09,1.09,0,0,0,.72-.3.7.7,0,0,0,.21-.56.67.67,0,0,0-.3-.48,3,3,0,0,0-1.21-.3,5,5,0,0,1-2.21-.67,1.81,1.81,0,0,1-.79-1.35,2,2,0,0,1,.22-1.1,2.14,2.14,0,0,1,.9-.89,4.59,4.59,0,0,1,1.77-.48,3.83,3.83,0,0,1,2.2.3,2.32,2.32,0,0,1,1,1.57l-2.12.35a1,1,0,0,0-1.21-.83.91.91,0,0,0-.58.23.55.55,0,0,0-.16.43.47.47,0,0,0,.2.3,2,2,0,0,0,.79.19,9.78,9.78,0,0,1,2.19.42,2.26,2.26,0,0,1,1,.72,2,2,0,0,1,.41,1.05,2.31,2.31,0,0,1-.26,1.34,2.49,2.49,0,0,1-1,1,4.61,4.61,0,0,1-1.73.49,3.66,3.66,0,0,1-2.67-.45A2.84,2.84,0,0,1,126,235.58Z" style="fill:#fff"></path><path d="M134.42,229.75l6.07-.63.16,1.56-3.8.4.13,1.16,3.52-.36.15,1.49-3.52.37.15,1.44,3.91-.4.17,1.65-6.17.65Z" style="fill:#fff"></path><path d="M143,228.86l3.37-.35a4.16,4.16,0,0,1,1.63.1,2.6,2.6,0,0,1,1.09.67,3.15,3.15,0,0,1,.71,1.12,5.62,5.62,0,0,1,.32,1.4,4.81,4.81,0,0,1-.07,1.84,3.22,3.22,0,0,1-.63,1.17,2.46,2.46,0,0,1-1,.68,5.48,5.48,0,0,1-1.33.35l-3.36.35Zm2.44,1.42.42,4,.55-.06a2.52,2.52,0,0,0,1-.26,1.17,1.17,0,0,0,.41-.6,3.64,3.64,0,0,0,0-1.29,2.56,2.56,0,0,0-.55-1.56,1.63,1.63,0,0,0-1.31-.3Z" style="fill:#fff"></path><rect x="101.86" y="289.82" width="51.89" height="92.57" style="fill:#fff"></rect><rect x="104.87" y="266.06" width="45.87" height="11.64" style="fill:#890031;opacity:0.4"></rect><rect x="57.63" y="276.96" width="36.69" height="71.15" style="fill:#fff"></rect><rect x="60.9" y="280.23" width="30.15" height="64.62" style="fill:#890031;opacity:0.30000000000000004"></rect><rect x="105.49" y="296.3" width="44.63" height="39.81" transform="translate(255.61 632.41) rotate(180)" style="fill:#890031;opacity:0.30000000000000004"></rect><path d="M140,331.19h10a1.43,1.43,0,0,1,1.44,1.44h0a1.44,1.44,0,0,1-1.44,1.44H140a1.44,1.44,0,0,1-1.44-1.44h0A1.43,1.43,0,0,1,140,331.19Z" style="fill:#fff"></path><polygon points="133.03 295.36 113.37 376.86 109.85 376.86 129.51 295.36 133.03 295.36" style="fill:#fff;opacity:0.4"></polygon><polygon points="143.38 295.36 123.72 376.86 116.82 376.86 136.48 295.36 143.38 295.36" style="fill:#fff;opacity:0.4"></polygon><polygon points="76.59 280.23 64.11 344.84 59.73 344.84 72.21 280.23 76.59 280.23" style="fill:#fff;opacity:0.4"></polygon><polygon points="84.33 280.23 71.85 344.84 66.51 344.84 79 280.23 84.33 280.23" style="fill:#fff;opacity:0.4"></polygon><rect x="161.29" y="276.96" width="36.69" height="71.15" transform="translate(359.26 625.07) rotate(180)" style="fill:#fff"></rect><rect x="147.32" y="297.46" width="64.62" height="30.15" transform="translate(-132.9 492.16) rotate(-90)" style="fill:#890031;opacity:0.30000000000000004"></rect><polygon points="187.78 280.23 175.29 344.84 170.91 344.84 183.4 280.23 187.78 280.23" style="fill:#fff;opacity:0.4"></polygon><polygon points="195.52 280.23 183.04 344.84 177.7 344.84 190.18 280.23 195.52 280.23" style="fill:#fff;opacity:0.4"></polygon><polygon points="156.11 328.72 99.36 318.89 99.36 309.13 156.11 318.95 156.11 328.72" style="fill:#890031"></polygon></g><g id="freepik--store-2--inject-2"><rect x="213.96" y="249.52" width="161.11" height="132.88" style="fill:#890031"></rect><rect x="213.96" y="249.52" width="161.11" height="132.88" style="opacity:0.2"></rect><path d="M214.93,360.56H374.11a2.3,2.3,0,0,1,2.3,2.3V382.4a0,0,0,0,1,0,0H212.63a0,0,0,0,1,0,0V362.85a2.3,2.3,0,0,1,2.3-2.3Z" style="fill:#263238"></path><rect x="226.47" y="282.49" width="20.17" height="4.84" style="fill:#890031"></rect><rect x="349.58" y="282.49" width="20.17" height="4.84" style="fill:#890031"></rect><rect x="236.56" y="287.33" width="20.17" height="4.84" style="fill:#890031"></rect><rect x="314.79" y="346.4" width="20.17" height="4.84" transform="translate(649.74 697.65) rotate(180)" style="fill:#890031"></rect><rect x="304.71" y="351.24" width="20.17" height="4.84" transform="translate(629.58 707.32) rotate(180)" style="fill:#890031"></rect><rect x="230.66" y="289.82" width="51.89" height="92.57" style="fill:#fff"></rect><rect x="290.53" y="289.82" width="72.94" height="58.28" style="fill:#fff"></rect><rect x="301.12" y="285.76" width="51.75" height="66.41" transform="translate(8.03 645.96) rotate(-90)" style="fill:#890031;opacity:0.30000000000000004"></rect><rect x="234.29" y="296.3" width="44.63" height="79.63" style="fill:#890031;opacity:0.30000000000000004"></rect><rect x="232.95" y="332.66" width="47.29" height="6.9" style="fill:#fff"></rect><polygon points="261.83 295.36 242.17 376.86 238.65 376.86 258.31 295.36 261.83 295.36" style="fill:#fff;opacity:0.4"></polygon><polygon points="272.18 295.36 252.52 376.86 245.62 376.86 265.28 295.36 272.18 295.36" style="fill:#fff;opacity:0.4"></polygon><polygon points="328.26 293.1 315.78 344.84 311.4 344.84 323.88 293.1 328.26 293.1" style="fill:#fff;opacity:0.4"></polygon><polygon points="349.58 293.1 337.1 344.84 323.33 344.84 335.81 293.1 349.58 293.1" style="fill:#fff;opacity:0.4"></polygon><polygon points="220.33 255.93 199.06 255.93 224.08 234.28 239.79 234.28 220.33 255.93" style="fill:#890031"></polygon><polygon points="241.6 255.93 220.33 255.93 239.79 234.28 255.5 234.28 241.6 255.93" style="fill:#fff"></polygon><polygon points="262.87 255.93 241.6 255.93 255.5 234.28 271.21 234.28 262.87 255.93" style="fill:#890031"></polygon><polygon points="284.14 255.93 262.87 255.93 271.21 234.28 286.92 234.28 284.14 255.93" style="fill:#fff"></polygon><polygon points="305.41 255.93 284.14 255.93 286.92 234.28 302.63 234.28 305.41 255.93" style="fill:#890031"></polygon><polygon points="326.69 255.93 305.41 255.93 302.63 234.28 318.34 234.28 326.69 255.93" style="fill:#fff"></polygon><polygon points="347.96 255.93 326.69 255.93 318.34 234.28 334.05 234.28 347.96 255.93" style="fill:#890031"></polygon><polygon points="390.5 255.93 369.23 255.93 349.76 234.28 365.48 234.28 390.5 255.93" style="fill:#890031"></polygon><polygon points="369.23 255.93 347.96 255.93 334.05 234.28 349.76 234.28 369.23 255.93" style="fill:#fff"></polygon><path d="M209.69,275.76h0a10.64,10.64,0,0,1-10.64-10.63v-9.2h21.28v9.2A10.64,10.64,0,0,1,209.69,275.76Z" style="fill:#890031"></path><path d="M231,275.76h0a10.63,10.63,0,0,1-10.63-10.63v-9.2H241.6v9.2A10.63,10.63,0,0,1,231,275.76Z" style="fill:#fff"></path><path d="M252.23,275.76h0a10.63,10.63,0,0,1-10.63-10.63v-9.2h21.27v9.2A10.63,10.63,0,0,1,252.23,275.76Z" style="fill:#890031"></path><path d="M262.87,255.93h21.27a0,0,0,0,1,0,0v9.2a10.64,10.64,0,0,1-10.64,10.64h0a10.64,10.64,0,0,1-10.64-10.64v-9.2A0,0,0,0,1,262.87,255.93Z" style="fill:#fff"></path><path d="M294.78,275.76h0a10.63,10.63,0,0,1-10.64-10.63v-9.2h21.27v9.2A10.63,10.63,0,0,1,294.78,275.76Z" style="fill:#890031"></path><path d="M305.41,255.93h21.27a0,0,0,0,1,0,0v9.2A10.64,10.64,0,0,1,316,275.76h0a10.64,10.64,0,0,1-10.64-10.64v-9.2a0,0,0,0,1,0,0Z" style="fill:#fff"></path><path d="M337.32,275.76h0a10.63,10.63,0,0,1-10.63-10.63v-9.2H348v9.2A10.63,10.63,0,0,1,337.32,275.76Z" style="fill:#890031"></path><path d="M379.86,275.76h0a10.63,10.63,0,0,1-10.63-10.63v-9.2H390.5v9.2A10.63,10.63,0,0,1,379.86,275.76Z" style="fill:#890031"></path><path d="M348,255.93h21.27a0,0,0,0,1,0,0v9.2a10.64,10.64,0,0,1-10.64,10.64h0A10.64,10.64,0,0,1,348,265.13v-9.2a0,0,0,0,1,0,0Z" style="fill:#fff"></path><circle cx="277.53" cy="332.49" r="3.02" style="fill:#890031"></circle><rect x="239.19" y="308.51" width="35.39" height="13.06" rx="1.59" transform="matrix(1, 0.09, -0.09, 1, 28.63, -21.32)" style="fill:#890031"></rect><path d="M246.19,314.42l1.19.48a2.37,2.37,0,0,1-.47.83,1.71,1.71,0,0,1-.7.46,2.65,2.65,0,0,1-1,.09A3,3,0,0,1,244,316a1.89,1.89,0,0,1-.74-.83,2.6,2.6,0,0,1-.22-1.41,2.4,2.4,0,0,1,.75-1.67,2.31,2.31,0,0,1,1.74-.45,2.34,2.34,0,0,1,1.31.46,2,2,0,0,1,.63,1.13l-1.25.16a1.08,1.08,0,0,0-.11-.31.87.87,0,0,0-.27-.27.74.74,0,0,0-.37-.12.82.82,0,0,0-.76.32,1.65,1.65,0,0,0-.27.87,1.69,1.69,0,0,0,.14,1.05.77.77,0,0,0,.62.33.75.75,0,0,0,.62-.17A1.45,1.45,0,0,0,246.19,314.42Z" style="fill:#fff"></path><path d="M248.32,311.92l1.4.13-.3,3.4,2.17.19-.09,1.11-3.58-.31Z" style="fill:#fff"></path><path d="M252.05,314.53a2.46,2.46,0,0,1,4.22-1.37,2.31,2.31,0,0,1,.46,1.75,2.93,2.93,0,0,1-.38,1.27,2,2,0,0,1-.84.72,2.47,2.47,0,0,1-1.28.17,2.89,2.89,0,0,1-1.25-.35,2,2,0,0,1-.74-.84A2.51,2.51,0,0,1,252.05,314.53Zm1.39.13a1.5,1.5,0,0,0,.17,1,.82.82,0,0,0,.66.36.85.85,0,0,0,.72-.23,1.59,1.59,0,0,0,.34-1,1.4,1.4,0,0,0-.17-.95.92.92,0,0,0-.67-.36.9.9,0,0,0-.71.24A1.6,1.6,0,0,0,253.44,314.66Z" style="fill:#fff"></path><path d="M257.17,315.75l1.33,0a1.12,1.12,0,0,0,.13.51.74.74,0,0,0,.6.33.7.7,0,0,0,.47-.1.43.43,0,0,0,.19-.31.4.4,0,0,0-.13-.33,1.68,1.68,0,0,0-.69-.32,3.15,3.15,0,0,1-1.26-.67,1.11,1.11,0,0,1-.32-.9,1.17,1.17,0,0,1,.26-.64,1.35,1.35,0,0,1,.65-.44,3,3,0,0,1,1.13-.08,2.29,2.29,0,0,1,1.29.44,1.42,1.42,0,0,1,.45,1.07l-1.32,0a.75.75,0,0,0-.18-.46.77.77,0,0,0-.45-.18.6.6,0,0,0-.38.07.33.33,0,0,0-.15.24.32.32,0,0,0,.09.21,1.19,1.19,0,0,0,.45.2,5.94,5.94,0,0,1,1.28.52,1.38,1.38,0,0,1,.53.55,1.31,1.31,0,0,1,.12.68,1.41,1.41,0,0,1-.31.78,1.49,1.49,0,0,1-.72.5,2.72,2.72,0,0,1-1.1.09,2.23,2.23,0,0,1-1.56-.58A1.75,1.75,0,0,1,257.17,315.75Z" style="fill:#fff"></path><path d="M262.23,313.15l3.74.33-.09,1-2.34-.2-.06.71,2.17.2-.08.92-2.17-.19-.08.89,2.41.21-.09,1-3.81-.34Z" style="fill:#fff"></path><path d="M266.81,313.55l2.07.18a2.56,2.56,0,0,1,1,.26,1.59,1.59,0,0,1,.59.53,2,2,0,0,1,.29.76,3.2,3.2,0,0,1,0,.88,3.12,3.12,0,0,1-.26,1.11,1.89,1.89,0,0,1-.52.63,1.51,1.51,0,0,1-.66.3,3.1,3.1,0,0,1-.84.05l-2.07-.18Zm1.3,1.15-.22,2.47.35,0a1.41,1.41,0,0,0,.63-.05.68.68,0,0,0,.32-.31,2.21,2.21,0,0,0,.17-.78,1.54,1.54,0,0,0-.15-1,1,1,0,0,0-.75-.33Z" style="fill:#fff"></path><path d="M363.49,335.82l-73.57-33.7a.42.42,0,0,1-.24-.37v-3.58a.41.41,0,0,1,.58-.37l73.57,33.7a.4.4,0,0,1,.24.37v3.58A.41.41,0,0,1,363.49,335.82Z" style="fill:#890031"></path><path d="M363.52,303l-73.58,28.56a.41.41,0,0,0-.26.38v3.6a.41.41,0,0,0,.56.38l73.57-28.56a.4.4,0,0,0,.26-.38v-3.6A.41.41,0,0,0,363.52,303Z" style="fill:#890031"></path></g><g id="freepik--Tree--inject-2"><rect x="419.91" y="309.26" width="4.5" height="57.36" style="fill:#263238"></rect><path d="M438.74,351H405.57a1.41,1.41,0,0,0-1.51,1.56l5.15,28.67a1.49,1.49,0,0,0,1.52,1.14h22.86a1.48,1.48,0,0,0,1.51-1.14l5.16-28.67A1.41,1.41,0,0,0,438.74,351Z" style="fill:#890031"></path><path d="M438.74,351H405.57a1.41,1.41,0,0,0-1.51,1.56l5.15,28.67a1.49,1.49,0,0,0,1.52,1.14h22.86a1.48,1.48,0,0,0,1.51-1.14l5.16-28.67A1.41,1.41,0,0,0,438.74,351Z" style="fill:#fff;opacity:0.5"></path><path d="M443.89,302.94h0a1.78,1.78,0,0,0-.81-1.5,1.7,1.7,0,0,0-.5-.34h0A.61.61,0,0,1,442,300h0a1.8,1.8,0,0,0-.5-1,1.83,1.83,0,0,0,0-1.73,1.77,1.77,0,0,0-.76-.75,14.95,14.95,0,0,0-2.2-3.44h0a1.79,1.79,0,0,0,.4-1.09,1.82,1.82,0,0,0-1.13-1.71,1.78,1.78,0,0,0,.17-1.36,1.81,1.81,0,0,0-2.22-1.28h0a1.71,1.71,0,0,0-.59.29l-.11-.07a1.87,1.87,0,0,0-1-.14,1.85,1.85,0,0,0-.73-.49h-.08a1.85,1.85,0,0,0,.38-.45,1.81,1.81,0,0,0-.63-2.48h0a1.8,1.8,0,0,0-2.29.37l-.17-.05a1.74,1.74,0,0,0-.91.07,1.82,1.82,0,0,0-1.45-.64,1.81,1.81,0,0,0-3.37-.63h0a1.37,1.37,0,0,0-.15.38,1.77,1.77,0,0,0-.56-.19h0a1.81,1.81,0,0,0-1.15.2,1.74,1.74,0,0,0-.87-.75h0a1.81,1.81,0,0,0-2.36,1,1.55,1.55,0,0,0-.07.23,1.8,1.8,0,0,0-1.75-.48,1,1,0,0,1-1.78.2,250.48,250.48,0,0,0-3.83,1,1.76,1.76,0,0,0-.41,1.1,1.7,1.7,0,0,0-.45,0,1.81,1.81,0,0,0-1.44,1.52,1.76,1.76,0,0,0-.75.07,1.82,1.82,0,0,0-1,.85,1,1,0,0,0-.3-.14,1.8,1.8,0,0,0-2.31,1.1h0a1.83,1.83,0,0,0,.41,1.86s0,0,0,.05a1.79,1.79,0,0,0-.11.88l-.13.09a1.88,1.88,0,0,0-.48.69l-.14,0h0a1.82,1.82,0,0,0-2,1.59,1.54,1.54,0,0,0,0,.43,1.81,1.81,0,0,0-.59,2.45,1.71,1.71,0,0,0,.95.77,1.79,1.79,0,0,0-.09.79l-.19.12h0a190,190,0,0,0-1,4,2,2,0,0,0,.38.63,1.93,1.93,0,0,0-.46.72,1.81,1.81,0,0,0,.61,2,1.12,1.12,0,0,0-.29.19h0a1.78,1.78,0,0,0,1.59,3,1.74,1.74,0,0,0,.1.19,1.81,1.81,0,0,0-.3,1.29,1.45,1.45,0,0,0,.12.42,1.79,1.79,0,0,0-.47,1.32,1.81,1.81,0,0,0,1.92,1.7h0l.21,0a1.8,1.8,0,0,0,1.67,1.19,2.88,2.88,0,0,0-.05.33h0a1.83,1.83,0,0,0,1.75,1.88l.21,0a1.91,1.91,0,0,0-.23.5,1.81,1.81,0,0,0,1.24,2.24h0a1.84,1.84,0,0,0,1.71-.4,3.48,3.48,0,0,1,2.71,1.38h0a1.78,1.78,0,0,0,1.78-.3,1.87,1.87,0,0,0,.38.82h0a1.81,1.81,0,0,0,2.55.24l0,0a1.83,1.83,0,0,0,1.55.12,1.76,1.76,0,0,0,.22.46h0a1.82,1.82,0,0,0,2.53.45,1.88,1.88,0,0,0,.52-.57,1.79,1.79,0,0,0,2.52-.87,6.72,6.72,0,0,1,4.23-1,1.78,1.78,0,0,0,.43-1,1.81,1.81,0,0,0,1.49-1,1.71,1.71,0,0,0,.15-.61,1.75,1.75,0,0,0,1-.66,1.82,1.82,0,0,0,3.4-1,1.85,1.85,0,0,0-.56-1.12,1.75,1.75,0,0,0,.71-.53h0a1.75,1.75,0,0,0,.35-.79l.12.07a1.8,1.8,0,0,0,2.45-.73h0a3.67,3.67,0,0,1,.52-3.28,1.83,1.83,0,0,0-.6-1.29c0-.06,0-.12,0-.19a1.86,1.86,0,0,0,.36-.38,1.79,1.79,0,0,0,.22-1.58,1.53,1.53,0,0,0,.36-.07h0a22.87,22.87,0,0,1,2.54-3.89Zm-38.68,8.15Z" style="fill:#890031"></path></g><g id="freepik--Tumbleweeds--inject-2"><path d="M340.55,410a46.62,46.62,0,0,1-19.13-4.1c-2-.91-4.39-2.26-5.18-4.64a8.8,8.8,0,0,1,.25-5A34.2,34.2,0,0,1,321,385.85a7.09,7.09,0,0,1,1.25-2.35,18.32,18.32,0,0,1-.38-5.61A20.37,20.37,0,0,1,325,369c1.47-2.35,4-5.4,7.85-6.55a15.84,15.84,0,0,1,3.64-.58,14.54,14.54,0,0,1,5.63-2.77,19.38,19.38,0,0,1,7-.16c.86.11,1.71.25,2.57.43a27.47,27.47,0,0,1,26.67,9.52,14.31,14.31,0,0,1,2.44,4.23,12.5,12.5,0,0,1-.09,7.74,15.63,15.63,0,0,1,2.57,8,15.81,15.81,0,0,1-4.66,11,26.87,26.87,0,0,1-10.2,6.33,31.41,31.41,0,0,1-15.18,2.09l-.24,0a45.43,45.43,0,0,1-5.14,1.16A46.19,46.19,0,0,1,340.55,410Zm-19.78-22.3a35.82,35.82,0,0,0-3.53,8.79A8.12,8.12,0,0,0,317,401c.69,2.1,2.9,3.33,4.76,4.17a45.69,45.69,0,0,0,26,3.45c1.17-.19,2.33-.43,3.48-.71a27.05,27.05,0,0,1-13.15-7.25,43.17,43.17,0,0,1-11.9-5.47c-3.56-2.35-5.33-4.78-5.42-7.42Zm34.14,20a31.64,31.64,0,0,0,13.27-2.21,26,26,0,0,0,9.91-6.14,15,15,0,0,0,4.45-10.43,14.63,14.63,0,0,0-2.12-7,25.62,25.62,0,0,1-1.14,2.66,15.52,15.52,0,0,1-1.38,5.21,25.53,25.53,0,0,1-6,7.9A46.68,46.68,0,0,1,354.91,407.68Zm-15.24-6.57A25.84,25.84,0,0,0,353,407.47a45.9,45.9,0,0,0,18.35-10.4,24.93,24.93,0,0,0,5.86-7.65,15.58,15.58,0,0,0,1-2.9C374,393.66,368,398.73,361.45,400.8a32.53,32.53,0,0,1-5,1.1,41.76,41.76,0,0,1-11.85.12A43.43,43.43,0,0,1,339.67,401.11Zm5,.14a40.42,40.42,0,0,0,13.48-.59,24.89,24.89,0,0,0,5.12-1.64,18.1,18.1,0,0,0,10.07-13.6,23.13,23.13,0,0,0-.93-9.64c-.28-.93-.59-1.82-.94-2.67-.82-.56-1.66-1.11-2.48-1.63a68,68,0,0,0-8.29-4.72,45.77,45.77,0,0,0-14.32-3.82,17.86,17.86,0,0,0-3.5,2.35A20.61,20.61,0,0,0,341.2,367a26.58,26.58,0,0,0-2.4,5.22c-.06.16-.11.33-.17.49a18.57,18.57,0,0,1,6.61-3.36c4.8-1.22,10.52.2,15.31,3.78a12.91,12.91,0,0,1,3.34,3.45,16.15,16.15,0,0,1,1.81,6.84c.48,4.66.55,9.44-2.23,12.81-1.54,1.86-3.85,3.18-7.28,4.15a21.73,21.73,0,0,1-11.18.53,14.69,14.69,0,0,1-2.08.08C343.5,401.07,344.09,401.16,344.68,401.25Zm2.5-.76a22.66,22.66,0,0,0,8.8-.89c3.27-.92,5.46-2.16,6.89-3.9,2.6-3.14,2.52-7.74,2.06-12.23a15.56,15.56,0,0,0-1.7-6.51,11.87,11.87,0,0,0-3.15-3.24c-4.6-3.44-10.07-4.8-14.65-3.65a18.73,18.73,0,0,0-7.22,3.93c-.28.91-.54,1.84-.76,2.77,7.57-.32,14.7,3.77,20.46,7.05,1.43.82,2.76,1.67,3.26,3.13a4.29,4.29,0,0,1,.05,2.47,6.29,6.29,0,0,1-4.5,4.38c-.84,2.1-2.75,3.88-5.69,5.28A20.43,20.43,0,0,1,347.18,400.49Zm-11-3.15a9.85,9.85,0,0,0,5.55,2.73c.39.05.78.09,1.17.11a12.19,12.19,0,0,1-6.81-6.76,16.72,16.72,0,0,1-.78-6.16,49.23,49.23,0,0,1,1.12-9.54h-.69a63.41,63.41,0,0,0-1.54,7.45,25.56,25.56,0,0,0-.31,7.32,9.61,9.61,0,0,0,.68,2.49A27.81,27.81,0,0,0,336.18,397.34Zm1-19.59a48.38,48.38,0,0,0-1.14,9.53,16.14,16.14,0,0,0,.73,5.88,11.81,11.81,0,0,0,8.1,6.89l.15,0a17.9,17.9,0,0,0,5.64-1.71,10.39,10.39,0,0,0,5.1-4.42,5.15,5.15,0,0,1-1.24,0,6.27,6.27,0,0,1-5.24-6.12l.78,0a5.47,5.47,0,0,0,4.56,5.34,4.9,4.9,0,0,0,1.48,0s0-.08,0-.13c1.05-3.47-1.32-7.1-3.89-9.33A25.31,25.31,0,0,0,339.21,378C338.5,377.86,337.84,377.79,337.22,377.75ZM325.84,390a23.29,23.29,0,0,0,7.62,7.41,24.47,24.47,0,0,0,3.06,1.57l-.21-.24-.72-.9a8.69,8.69,0,0,1-1.7-2.48v0a31.65,31.65,0,0,1-4.26-11.91A46,46,0,0,0,325.84,390Zm-4.1-3.83a5.18,5.18,0,0,0-.19,1.59c.08,2.37,1.74,4.6,5.07,6.8A41.82,41.82,0,0,0,333,398a24.15,24.15,0,0,1-7.49-7.18c-.23.53-.45,1.06-.67,1.59l-.72-.29c.28-.7.58-1.39.9-2.08a21.8,21.8,0,0,1-2.31-5.13C322.34,385.33,322,385.75,321.74,386.18Zm50.87-12.28c.2.54.38,1.09.55,1.66a23.63,23.63,0,0,1,.95,10,18.73,18.73,0,0,1-5.46,10.68A34.39,34.39,0,0,0,377.59,386c.34-.57.65-1.14.93-1.69a11.37,11.37,0,0,0-.5-4.22,12.21,12.21,0,0,0-1.48-3A36.27,36.27,0,0,0,372.61,373.9Zm-27.71,4.66a24.47,24.47,0,0,1,7.9,4.54c2.68,2.32,5.14,6.08,4.21,9.81a5.44,5.44,0,0,0,3.46-3.68,3.56,3.56,0,0,0,0-2c-.41-1.2-1.62-2-2.91-2.71C353.81,382.37,349.5,379.92,344.9,378.56Zm-14.63,3.94a31.52,31.52,0,0,0,2.81,9.74,26.28,26.28,0,0,1,.36-7.17,62.32,62.32,0,0,1,1.47-7.26L334,378A48.33,48.33,0,0,0,330.27,382.5Zm-7,1.7a20.49,20.49,0,0,0,2.1,5,47.88,47.88,0,0,1,4.11-6.93c-.07-.59-.12-1.19-.15-1.79,0-.33,0-.64,0-1-.43.18-.86.38-1.29.59a19.76,19.76,0,0,0-4.63,3.95Zm12.2-21.43a13.18,13.18,0,0,0-2.41.46,13.92,13.92,0,0,0-7.41,6.22,19.57,19.57,0,0,0-3,8.51,17.53,17.53,0,0,0,.24,4.79,16.35,16.35,0,0,1,4.5-3.21l.21-.1c.53-.32,1.08-.62,1.64-.89a23.9,23.9,0,0,1,2.59-11.11A17.7,17.7,0,0,1,335.46,362.77Zm43,16.38c.09.23.18.47.26.71a11.87,11.87,0,0,1,.53,2.79c.23-.55.43-1.1.6-1.63A20.09,20.09,0,0,0,378.5,379.15Zm-48.45.07c0,.41,0,.82,0,1.23s0,.61.07.91c.77-1,1.59-2.05,2.45-3C331.77,378.58,330.91,378.88,330.05,379.22Zm47.07-2.66c.53.5,1,1,1.52,1.57a20.75,20.75,0,0,1,1.53,1.92,11.4,11.4,0,0,0-.07-6.64,13.74,13.74,0,0,0-2.32-4,26.7,26.7,0,0,0-24.14-9.55c.39.1.79.21,1.17.33s.51,0,.76,0a18.62,18.62,0,0,1,12.58,6,20.16,20.16,0,0,1,2.5,3.43c.88.79,1.69,1.57,2.43,2.29A30.27,30.27,0,0,1,377.12,376.56Zm-40.37-13.89a16.8,16.8,0,0,0-4.21,5.13,23,23,0,0,0-2.49,10.4,16.23,16.23,0,0,1,3.66-1.06c.66-.69,1.34-1.37,2-2a25.86,25.86,0,0,1,4.83-8.62,14.65,14.65,0,0,1,3.32-3.78q-3.11-.2-6.38-.08Zm-1.51,14-.31.3h.22Zm1.18-1.14c-.15.44-.29.88-.43,1.33l.65-.07c.15-.63.31-1.27.49-1.9l-.38.34Zm2-4.59a26.24,26.24,0,0,0-1.42,3l.54-.46c.16-.53.34-1.07.53-1.6C338.18,371.63,338.29,371.3,338.42,371Zm33.69,1.64c.62.42,1.23.86,1.83,1.31-.46-.48-.93-1-1.4-1.41l-.82-.79C371.86,372,372,372.3,372.11,372.6Zm-24.38-10.28A45.91,45.91,0,0,1,361,366.06a70.84,70.84,0,0,1,8.38,4.76l1.48,1c-.27-.57-.56-1.12-.86-1.65a48.93,48.93,0,0,0-7.18-5.52,35.08,35.08,0,0,0-8.17-3.66A17.66,17.66,0,0,0,347.73,362.32Zm10.3-1a36.09,36.09,0,0,1,5.23,2.64,44.84,44.84,0,0,1,5.08,3.67c-.25-.31-.5-.61-.77-.89A17.9,17.9,0,0,0,358,361.32Zm-11.8.82h0a18.51,18.51,0,0,1,6-1.81l-.57-.13a22.74,22.74,0,0,0-2.9.82A18.47,18.47,0,0,0,346.23,362.14Zm-6.29-.32c1.69,0,3.35.07,5,.2a17.56,17.56,0,0,1,3.66-1.73c.44-.16.88-.3,1.33-.43l-.84-.12a18.72,18.72,0,0,0-6.77.16,13.59,13.59,0,0,0-4.42,2Z" style="fill:#890031"></path><path d="M340.55,410a46.62,46.62,0,0,1-19.13-4.1c-2-.91-4.39-2.26-5.18-4.64a8.8,8.8,0,0,1,.25-5A34.2,34.2,0,0,1,321,385.85a7.09,7.09,0,0,1,1.25-2.35,18.32,18.32,0,0,1-.38-5.61A20.37,20.37,0,0,1,325,369c1.47-2.35,4-5.4,7.85-6.55a15.84,15.84,0,0,1,3.64-.58,14.54,14.54,0,0,1,5.63-2.77,19.38,19.38,0,0,1,7-.16c.86.11,1.71.25,2.57.43a27.47,27.47,0,0,1,26.67,9.52,14.31,14.31,0,0,1,2.44,4.23,12.5,12.5,0,0,1-.09,7.74,15.63,15.63,0,0,1,2.57,8,15.81,15.81,0,0,1-4.66,11,26.87,26.87,0,0,1-10.2,6.33,31.41,31.41,0,0,1-15.18,2.09l-.24,0a45.43,45.43,0,0,1-5.14,1.16A46.19,46.19,0,0,1,340.55,410Zm-19.78-22.3a35.82,35.82,0,0,0-3.53,8.79A8.12,8.12,0,0,0,317,401c.69,2.1,2.9,3.33,4.76,4.17a45.69,45.69,0,0,0,26,3.45c1.17-.19,2.33-.43,3.48-.71a27.05,27.05,0,0,1-13.15-7.25,43.17,43.17,0,0,1-11.9-5.47c-3.56-2.35-5.33-4.78-5.42-7.42Zm34.14,20a31.64,31.64,0,0,0,13.27-2.21,26,26,0,0,0,9.91-6.14,15,15,0,0,0,4.45-10.43,14.63,14.63,0,0,0-2.12-7,25.62,25.62,0,0,1-1.14,2.66,15.52,15.52,0,0,1-1.38,5.21,25.53,25.53,0,0,1-6,7.9A46.68,46.68,0,0,1,354.91,407.68Zm-15.24-6.57A25.84,25.84,0,0,0,353,407.47a45.9,45.9,0,0,0,18.35-10.4,24.93,24.93,0,0,0,5.86-7.65,15.58,15.58,0,0,0,1-2.9C374,393.66,368,398.73,361.45,400.8a32.53,32.53,0,0,1-5,1.1,41.76,41.76,0,0,1-11.85.12A43.43,43.43,0,0,1,339.67,401.11Zm5,.14a40.42,40.42,0,0,0,13.48-.59,24.89,24.89,0,0,0,5.12-1.64,18.1,18.1,0,0,0,10.07-13.6,23.13,23.13,0,0,0-.93-9.64c-.28-.93-.59-1.82-.94-2.67-.82-.56-1.66-1.11-2.48-1.63a68,68,0,0,0-8.29-4.72,45.77,45.77,0,0,0-14.32-3.82,17.86,17.86,0,0,0-3.5,2.35A20.61,20.61,0,0,0,341.2,367a26.58,26.58,0,0,0-2.4,5.22c-.06.16-.11.33-.17.49a18.57,18.57,0,0,1,6.61-3.36c4.8-1.22,10.52.2,15.31,3.78a12.91,12.91,0,0,1,3.34,3.45,16.15,16.15,0,0,1,1.81,6.84c.48,4.66.55,9.44-2.23,12.81-1.54,1.86-3.85,3.18-7.28,4.15a21.73,21.73,0,0,1-11.18.53,14.69,14.69,0,0,1-2.08.08C343.5,401.07,344.09,401.16,344.68,401.25Zm2.5-.76a22.66,22.66,0,0,0,8.8-.89c3.27-.92,5.46-2.16,6.89-3.9,2.6-3.14,2.52-7.74,2.06-12.23a15.56,15.56,0,0,0-1.7-6.51,11.87,11.87,0,0,0-3.15-3.24c-4.6-3.44-10.07-4.8-14.65-3.65a18.73,18.73,0,0,0-7.22,3.93c-.28.91-.54,1.84-.76,2.77,7.57-.32,14.7,3.77,20.46,7.05,1.43.82,2.76,1.67,3.26,3.13a4.29,4.29,0,0,1,.05,2.47,6.29,6.29,0,0,1-4.5,4.38c-.84,2.1-2.75,3.88-5.69,5.28A20.43,20.43,0,0,1,347.18,400.49Zm-11-3.15a9.85,9.85,0,0,0,5.55,2.73c.39.05.78.09,1.17.11a12.19,12.19,0,0,1-6.81-6.76,16.72,16.72,0,0,1-.78-6.16,49.23,49.23,0,0,1,1.12-9.54h-.69a63.41,63.41,0,0,0-1.54,7.45,25.56,25.56,0,0,0-.31,7.32,9.61,9.61,0,0,0,.68,2.49A27.81,27.81,0,0,0,336.18,397.34Zm1-19.59a48.38,48.38,0,0,0-1.14,9.53,16.14,16.14,0,0,0,.73,5.88,11.81,11.81,0,0,0,8.1,6.89l.15,0a17.9,17.9,0,0,0,5.64-1.71,10.39,10.39,0,0,0,5.1-4.42,5.15,5.15,0,0,1-1.24,0,6.27,6.27,0,0,1-5.24-6.12l.78,0a5.47,5.47,0,0,0,4.56,5.34,4.9,4.9,0,0,0,1.48,0s0-.08,0-.13c1.05-3.47-1.32-7.1-3.89-9.33A25.31,25.31,0,0,0,339.21,378C338.5,377.86,337.84,377.79,337.22,377.75ZM325.84,390a23.29,23.29,0,0,0,7.62,7.41,24.47,24.47,0,0,0,3.06,1.57l-.21-.24-.72-.9a8.69,8.69,0,0,1-1.7-2.48v0a31.65,31.65,0,0,1-4.26-11.91A46,46,0,0,0,325.84,390Zm-4.1-3.83a5.18,5.18,0,0,0-.19,1.59c.08,2.37,1.74,4.6,5.07,6.8A41.82,41.82,0,0,0,333,398a24.15,24.15,0,0,1-7.49-7.18c-.23.53-.45,1.06-.67,1.59l-.72-.29c.28-.7.58-1.39.9-2.08a21.8,21.8,0,0,1-2.31-5.13C322.34,385.33,322,385.75,321.74,386.18Zm50.87-12.28c.2.54.38,1.09.55,1.66a23.63,23.63,0,0,1,.95,10,18.73,18.73,0,0,1-5.46,10.68A34.39,34.39,0,0,0,377.59,386c.34-.57.65-1.14.93-1.69a11.37,11.37,0,0,0-.5-4.22,12.21,12.21,0,0,0-1.48-3A36.27,36.27,0,0,0,372.61,373.9Zm-27.71,4.66a24.47,24.47,0,0,1,7.9,4.54c2.68,2.32,5.14,6.08,4.21,9.81a5.44,5.44,0,0,0,3.46-3.68,3.56,3.56,0,0,0,0-2c-.41-1.2-1.62-2-2.91-2.71C353.81,382.37,349.5,379.92,344.9,378.56Zm-14.63,3.94a31.52,31.52,0,0,0,2.81,9.74,26.28,26.28,0,0,1,.36-7.17,62.32,62.32,0,0,1,1.47-7.26L334,378A48.33,48.33,0,0,0,330.27,382.5Zm-7,1.7a20.49,20.49,0,0,0,2.1,5,47.88,47.88,0,0,1,4.11-6.93c-.07-.59-.12-1.19-.15-1.79,0-.33,0-.64,0-1-.43.18-.86.38-1.29.59a19.76,19.76,0,0,0-4.63,3.95Zm12.2-21.43a13.18,13.18,0,0,0-2.41.46,13.92,13.92,0,0,0-7.41,6.22,19.57,19.57,0,0,0-3,8.51,17.53,17.53,0,0,0,.24,4.79,16.35,16.35,0,0,1,4.5-3.21l.21-.1c.53-.32,1.08-.62,1.64-.89a23.9,23.9,0,0,1,2.59-11.11A17.7,17.7,0,0,1,335.46,362.77Zm43,16.38c.09.23.18.47.26.71a11.87,11.87,0,0,1,.53,2.79c.23-.55.43-1.1.6-1.63A20.09,20.09,0,0,0,378.5,379.15Zm-48.45.07c0,.41,0,.82,0,1.23s0,.61.07.91c.77-1,1.59-2.05,2.45-3C331.77,378.58,330.91,378.88,330.05,379.22Zm47.07-2.66c.53.5,1,1,1.52,1.57a20.75,20.75,0,0,1,1.53,1.92,11.4,11.4,0,0,0-.07-6.64,13.74,13.74,0,0,0-2.32-4,26.7,26.7,0,0,0-24.14-9.55c.39.1.79.21,1.17.33s.51,0,.76,0a18.62,18.62,0,0,1,12.58,6,20.16,20.16,0,0,1,2.5,3.43c.88.79,1.69,1.57,2.43,2.29A30.27,30.27,0,0,1,377.12,376.56Zm-40.37-13.89a16.8,16.8,0,0,0-4.21,5.13,23,23,0,0,0-2.49,10.4,16.23,16.23,0,0,1,3.66-1.06c.66-.69,1.34-1.37,2-2a25.86,25.86,0,0,1,4.83-8.62,14.65,14.65,0,0,1,3.32-3.78q-3.11-.2-6.38-.08Zm-1.51,14-.31.3h.22Zm1.18-1.14c-.15.44-.29.88-.43,1.33l.65-.07c.15-.63.31-1.27.49-1.9l-.38.34Zm2-4.59a26.24,26.24,0,0,0-1.42,3l.54-.46c.16-.53.34-1.07.53-1.6C338.18,371.63,338.29,371.3,338.42,371Zm33.69,1.64c.62.42,1.23.86,1.83,1.31-.46-.48-.93-1-1.4-1.41l-.82-.79C371.86,372,372,372.3,372.11,372.6Zm-24.38-10.28A45.91,45.91,0,0,1,361,366.06a70.84,70.84,0,0,1,8.38,4.76l1.48,1c-.27-.57-.56-1.12-.86-1.65a48.93,48.93,0,0,0-7.18-5.52,35.08,35.08,0,0,0-8.17-3.66A17.66,17.66,0,0,0,347.73,362.32Zm10.3-1a36.09,36.09,0,0,1,5.23,2.64,44.84,44.84,0,0,1,5.08,3.67c-.25-.31-.5-.61-.77-.89A17.9,17.9,0,0,0,358,361.32Zm-11.8.82h0a18.51,18.51,0,0,1,6-1.81l-.57-.13a22.74,22.74,0,0,0-2.9.82A18.47,18.47,0,0,0,346.23,362.14Zm-6.29-.32c1.69,0,3.35.07,5,.2a17.56,17.56,0,0,1,3.66-1.73c.44-.16.88-.3,1.33-.43l-.84-.12a18.72,18.72,0,0,0-6.77.16,13.59,13.59,0,0,0-4.42,2Z" style="fill:#fff;opacity:0.4"></path><path d="M353.46,417c-.79,0-1.64,0-2.56-.14a36.57,36.57,0,0,1-24.58-12.75c-.41-.48-.79-1-1.17-1.47a13.9,13.9,0,0,1-6.58-5.39c-2.43-4-1.86-9.09-1.22-12.54.33-1.81.76-3.61,1.27-5.38.06-.59.14-1.18.23-1.77a15,15,0,0,1,3.09-7.59c.21-.24.42-.47.65-.69a23.11,23.11,0,0,1,6.76-8.49A23.46,23.46,0,0,1,339.63,357c6.5-1.08,12.18-.57,16.91,1.52a24.35,24.35,0,0,1,8.66,6.65l3.15.52-.13.76-2.28-.38a35.41,35.41,0,0,1,5.72,11,36.29,36.29,0,0,1,1.64,7.54,13.12,13.12,0,0,1,2.62,10.8,21.63,21.63,0,0,1-2.73,5.86,54.9,54.9,0,0,1-6.67,9.59,18.87,18.87,0,0,1-10,6A16.66,16.66,0,0,1,353.46,417Zm-26.89-13.8.34.42A35.84,35.84,0,0,0,351,416.11a19.47,19.47,0,0,0,5.37-.11,18.07,18.07,0,0,0,9.61-5.73,54,54,0,0,0,6.57-9.46,21.08,21.08,0,0,0,2.65-5.64,12.1,12.1,0,0,0-1.74-9.08,25.86,25.86,0,0,1-.48,6.58,19.12,19.12,0,0,1-8.81,12.81,24,24,0,0,1-10.07,2.66,52.63,52.63,0,0,1-14.23-.79,23.08,23.08,0,0,1-7.71-2.7c-1.13-.19-2.25-.44-3.35-.73C328,403.71,327.27,403.48,326.57,403.22Zm7.82,1.73a26.08,26.08,0,0,0,5.59,1.64,52,52,0,0,0,14,.78,23.19,23.19,0,0,0,9.75-2.57,18.29,18.29,0,0,0,8.43-12.29,25.25,25.25,0,0,0,.37-7.67,15.45,15.45,0,0,0-2.51-2.54,20.42,20.42,0,0,0-6.9-3.52c3.37,5.82,3.36,13.25-.39,18.26a14.53,14.53,0,0,1-12.13,5.69,26.13,26.13,0,0,1-6.33,1.89A35.76,35.76,0,0,1,334.39,405Zm-2-1a35.64,35.64,0,0,0,11.75-.05,26.58,26.58,0,0,0,4.89-1.31h0a13.67,13.67,0,0,1-10.72-10.09,13,13,0,0,1,5.51-13.58,15.91,15.91,0,0,1,7.61-2.24,36.17,36.17,0,0,0-6.33,0l0-.77a27.31,27.31,0,0,1,8.73.48,10,10,0,0,1,1,.31c.5,0,1,.06,1.53.11a39,39,0,0,1,5.08.79,16.52,16.52,0,0,0-1.06-1.29c-4.69-5.13-12.32-7.72-20.41-6.93a16.32,16.32,0,0,0-6.64,1.85,15.24,15.24,0,0,0-6,7A23.75,23.75,0,0,0,326,394.81a16.44,16.44,0,0,0,5.48,8.47C331.8,403.5,332.1,403.71,332.41,403.91ZM325.65,402a26.61,26.61,0,0,0,3.34,1.14q.79.21,1.62.39a17.48,17.48,0,0,1-5.33-8.53,24.5,24.5,0,0,1,1.28-17.24,16.07,16.07,0,0,1,6.33-7.33,17.28,17.28,0,0,1,6.95-1.94c8.33-.81,16.2,1.87,21.05,7.17a19.64,19.64,0,0,1,1.65,2.11,21.78,21.78,0,0,1,8,3.9,16.16,16.16,0,0,1,1.86,1.74,37.31,37.31,0,0,0-1.46-6.19,34.29,34.29,0,0,0-6.13-11.4c-11.65-1.87-23.76-3-34.86.4a16.86,16.86,0,0,0-6.72,3.52c-.19.37-.38.76-.57,1.15a55.3,55.3,0,0,0-3.27,8.58A33,33,0,0,0,325.65,402Zm31.06-24.49a8.41,8.41,0,0,1,3.73,4.35,11.4,11.4,0,0,1,.43,4.46c-.37,5.67-2.48,10.5-5.93,13.6a15.93,15.93,0,0,1-2.79,2,13.68,13.68,0,0,0,10-5.37c3.72-5,3.55-12.45-.09-18.1A35.23,35.23,0,0,0,356.71,377.54Zm-3.52-.2a16.41,16.41,0,0,0-8.95,2.19,12.23,12.23,0,0,0-5.16,12.74,12.88,12.88,0,0,0,10.09,9.51,11.43,11.43,0,0,0,1.31.16,16.25,16.25,0,0,0,3.94-2.57c3.3-3,5.32-7.6,5.67-13.07a10.63,10.63,0,0,0-.38-4.15,8.33,8.33,0,0,0-5.09-4.77C354.13,377.36,353.65,377.34,353.19,377.34Zm-34.73,5.79c-.12.58-.24,1.16-.35,1.74-.62,3.33-1.17,8.19,1.12,12a12.42,12.42,0,0,0,5,4.48A34.11,34.11,0,0,1,318.46,383.13ZM346,357.19a37.79,37.79,0,0,0-6.21.54,22.55,22.55,0,0,0-9.95,3.71,20.63,20.63,0,0,0-5.63,6.56,20.49,20.49,0,0,1,5.53-2.49c11-3.4,22.84-2.37,34.3-.57a23.12,23.12,0,0,0-7.79-5.75A25.06,25.06,0,0,0,346,357.19Z" style="fill:#890031"></path><path d="M350.2,411.36h-.46a18.4,18.4,0,0,1-6.53-1.63c-.77-.32-1.52-.67-2.27-1.05a26.52,26.52,0,0,1-22.27-15.56,13.86,13.86,0,0,1-1.23-4.52,12,12,0,0,1,2-7.13,13.92,13.92,0,0,1,6.52-17,25.28,25.28,0,0,1,10.94-3.26,29.83,29.83,0,0,1,14.51,1.91l.21.09a42,42,0,0,1,5,.23,44.71,44.71,0,0,1,23.55,9.95c1.62,1.35,3.5,3.2,3.65,5.6a8.43,8.43,0,0,1-1.44,4.53,32.44,32.44,0,0,1-6.72,8.51,7.1,7.1,0,0,1-1.73,1.85,17.29,17.29,0,0,1-1,5.27,19.31,19.31,0,0,1-5,7.41c-1.93,1.8-5,4-8.82,4.06a15.77,15.77,0,0,1-3.5-.39A14,14,0,0,1,350.2,411.36Zm-7.45-2.65c.24.12.49.22.74.33a18,18,0,0,0,6.28,1.57,12.51,12.51,0,0,0,4.54-.69,60.73,60.73,0,0,1-6.45-1.93,17.5,17.5,0,0,1-3.79.67C343.63,408.69,343.19,408.71,342.75,408.71Zm14,1a12.06,12.06,0,0,0,2.34.19c3.56-.09,6.5-2.15,8.33-3.86a18.51,18.51,0,0,0,4.79-7.12,16.55,16.55,0,0,0,.94-4.49,15.21,15.21,0,0,1-4.92,1.82l-.22,0a17.32,17.32,0,0,1-1.73.4,22.64,22.64,0,0,1-5.08,9.61A16.12,16.12,0,0,1,356.75,409.68Zm-7.8-2.09c1.88.65,3.84,1.21,5.88,1.7l.71.16a15.81,15.81,0,0,0,5.12-3.67,21.82,21.82,0,0,0,4.82-9,15.77,15.77,0,0,1-3.63.06q-1.17.7-2.37,1.35a24.4,24.4,0,0,1-6.54,6.74A13.76,13.76,0,0,1,349,407.59Zm-7.81.35a22.89,22.89,0,0,0,2.87,0,18.29,18.29,0,0,0,2.66-.38h0a17.83,17.83,0,0,1-6,.15Zm-21.42-25.55a11,11,0,0,0-1.54,6.14,13,13,0,0,0,1.17,4.29,25.82,25.82,0,0,0,19.93,14.95l-1-.61-.7-.22a18,18,0,0,1-10.13-8.72,19.21,19.21,0,0,1-1.47-3.8c-.62-1-1.18-1.89-1.68-2.74a29,29,0,0,1-2.61-5.3c-.36-.59-.71-1.21-1-1.83A20.29,20.29,0,0,1,319.72,382.39Zm18.86,24.09a16.94,16.94,0,0,0,6.75.52A44.91,44.91,0,0,1,334,400.17a68.82,68.82,0,0,1-6.58-6.53l-1.12-1.26c.11.59.24,1.17.39,1.73a47.58,47.58,0,0,0,5.28,6.92A34.44,34.44,0,0,0,338.58,406.48ZM326.05,391c.63.73,1.26,1.44,1.89,2.14a67.24,67.24,0,0,0,6.5,6.46,44.21,44.21,0,0,0,12.28,7.16,16.16,16.16,0,0,0,3.79-1.29,15.76,15.76,0,0,0,2-1.12,24.68,24.68,0,0,0,3.49-4.21l.27-.42a17.18,17.18,0,0,1-6.91,1.43c-4.72-.09-9.65-2.85-13.19-7.37a12.27,12.27,0,0,1-2.25-4,15.66,15.66,0,0,1,0-6.78c.68-4.43,1.78-8.86,5.16-11.27,1.88-1.33,4.33-2,7.72-2H347a20.7,20.7,0,0,1,10.2,2.34,13.25,13.25,0,0,1,1.93.46c-.51-.25-1-.49-1.55-.72A38.46,38.46,0,0,0,345,368.92a22.89,22.89,0,0,0-5.11.22,17,17,0,0,0-12.58,10,21.86,21.86,0,0,0-1.48,9.14C325.87,389.23,325.94,390.13,326.05,391Zm1.58,5.88c.15.34.31.67.48,1a17.35,17.35,0,0,0,7.47,7.41,33.72,33.72,0,0,1-4.17-3.75A42.84,42.84,0,0,1,327.63,396.88Zm29.82,2.32c-.28.46-.58.91-.88,1.35-.18.27-.37.55-.58.83a25.65,25.65,0,0,0,2.07-2.46ZM347,370.45h-.23c-3.24,0-5.55.61-7.3,1.85-3.15,2.25-4.2,6.51-4.86,10.79a14.93,14.93,0,0,0,0,6.45,11.72,11.72,0,0,0,2.12,3.78c3.41,4.35,8.12,7,12.62,7.09a17.5,17.5,0,0,0,7.61-1.79q.72-1.17,1.38-2.37c-7.06-1.64-12.65-7.21-17.16-11.7-1.12-1.12-2.14-2.24-2.25-3.72a4.11,4.11,0,0,1,.56-2.29,5.9,5.9,0,0,1,5.14-2.92h.07c1.29-1.72,3.48-2.88,6.53-3.44a20.21,20.21,0,0,1,3.89-.32A21.5,21.5,0,0,0,347,370.45Zm12.07,26c-.3.55-.6,1.1-.92,1.64l.44-.22.38-.2c.24-.37.48-.74.71-1.11Zm1.41.22-.16.26.37-.21Zm5.67-2.78c-1,.77-2,1.49-3,2.17a25.69,25.69,0,0,0,2.58-.16c.09-.38.18-.76.26-1.15S366.1,394.14,366.15,393.85Zm-5.25,2.07c.3,0,.61.06.92.07a44.39,44.39,0,0,0,4.5-3.22,30.08,30.08,0,0,0-.23-9.71,25.16,25.16,0,0,1-2.07,6.53A58.65,58.65,0,0,1,360.9,395.92Zm-1.42-.3.64.17a56.57,56.57,0,0,0,3.22-6.49,23.7,23.7,0,0,0,2.06-6.68,9.31,9.31,0,0,0,0-2.48c-.27-.88-.57-1.74-.92-2.59a9.6,9.6,0,0,0-4.46-3.92,8.58,8.58,0,0,0-1-.39,11.83,11.83,0,0,1,4.64,8,16.06,16.06,0,0,1-.78,5.89A46.8,46.8,0,0,1,359.48,395.62Zm7.53-2.46c-.08.57-.18,1.13-.3,1.7-.06.3-.13.6-.2.9.44-.06.89-.13,1.33-.22a18.31,18.31,0,0,0,5.24-2.48l.12-.08a20.11,20.11,0,0,0-.73-5.18A44.59,44.59,0,0,1,367,393.16Zm-22-16.78-.06.1c-1.82,2.95-.51,6.9,1.32,9.61A24.49,24.49,0,0,0,357,394.7c.63.27,1.22.5,1.79.7a46.6,46.6,0,0,0,3.35-8.51,15.41,15.41,0,0,0,.75-5.62,11.47,11.47,0,0,0-5.79-8.43l-.13-.08a17.23,17.23,0,0,0-5.61.15,9.84,9.84,0,0,0-5.78,2.79,5.07,5.07,0,0,1,1.15.34,6.08,6.08,0,0,1,3.34,7l-.71-.2a5.31,5.31,0,0,0-2.92-6.1A4.67,4.67,0,0,0,345.05,376.38Zm-.85,0a5.12,5.12,0,0,0-4.08,2.52,3.34,3.34,0,0,0-.47,1.89c.09,1.22,1,2.23,2,3.24a59,59,0,0,0,10.15,8.65,23.65,23.65,0,0,1-6.14-6.16C343.79,383.68,342.44,379.58,344.2,376.37ZM373,387.12a21,21,0,0,1,.89,5.34c.38-.3.77-.6,1.14-.93a5,5,0,0,0,.57-1.41c.5-2.22-.49-4.7-3-7.58a40.76,40.76,0,0,0-5-4.77,23.39,23.39,0,0,1,5.15,8.51c.34-.42.67-.86,1-1.29l.59.44C373.94,386,373.5,386.57,373,387.12ZM324,389.66c.31.56.62,1.1.94,1.64l.56.93c-.06-.31-.1-.61-.14-.92C324.89,390.77,324.43,390.23,324,389.66ZM366.11,380a30.65,30.65,0,0,1,1,12.09,43.69,43.69,0,0,0,5.07-5.11,22.67,22.67,0,0,0-5.22-8.79,27.12,27.12,0,0,0-2.43-2.22c0,.09.08.18.13.27.15.34.3.68.44,1a8.36,8.36,0,0,1,1,2.72Zm-2.58-6a41.64,41.64,0,0,1,9.64,8.07c2.71,3.08,3.75,5.77,3.19,8.23,0,0,0,.05,0,.08a33.2,33.2,0,0,0,5.39-7.22,7.71,7.71,0,0,0,1.34-4.12c-.13-2.11-1.87-3.82-3.38-5.06a43.88,43.88,0,0,0-23.15-9.79c-1.12-.12-2.25-.19-3.38-.22A26.22,26.22,0,0,1,363.53,374ZM322.35,386A35.9,35.9,0,0,0,325.2,390c-.05-.54-.08-1.1-.1-1.66a22.66,22.66,0,0,1,1.54-9.45,17.71,17.71,0,0,1,7.65-8.5,32.13,32.13,0,0,0-10.74,7.16c-.45.44-.87.89-1.26,1.33a10.77,10.77,0,0,0-.57,4A12.06,12.06,0,0,0,322.35,386Zm-2.13-4.48a19.76,19.76,0,0,0,.82,2.07c0-.24-.05-.47-.06-.71a11.37,11.37,0,0,1,.19-2.72C320.82,380.66,320.51,381.11,320.22,381.56Zm20.15-19.79c-1.12,0-2.26.05-3.43.16a24.67,24.67,0,0,0-10.62,3.16,13.09,13.09,0,0,0-6.38,15.55,22.75,22.75,0,0,1,1.69-2.16,14.77,14.77,0,0,1,2.54-4.47,24,24,0,0,1,7.49-5.77,44,44,0,0,1,18.06-5A28.29,28.29,0,0,0,340.37,361.77Zm11.07,2.17a43.17,43.17,0,0,0-19.43,5,23.4,23.4,0,0,0-7.27,5.58,14.34,14.34,0,0,0-1.62,2.44c5.64-5.53,12.35-8.71,18.9-9a31.87,31.87,0,0,1,4.89.25,42.34,42.34,0,0,1,15.26,5A25.07,25.07,0,0,0,351.44,363.94Z" style="fill:#890031"></path><path d="M350.2,411.36h-.46a18.4,18.4,0,0,1-6.53-1.63c-.77-.32-1.52-.67-2.27-1.05a26.52,26.52,0,0,1-22.27-15.56,13.86,13.86,0,0,1-1.23-4.52,12,12,0,0,1,2-7.13,13.92,13.92,0,0,1,6.52-17,25.28,25.28,0,0,1,10.94-3.26,29.83,29.83,0,0,1,14.51,1.91l.21.09a42,42,0,0,1,5,.23,44.71,44.71,0,0,1,23.55,9.95c1.62,1.35,3.5,3.2,3.65,5.6a8.43,8.43,0,0,1-1.44,4.53,32.44,32.44,0,0,1-6.72,8.51,7.1,7.1,0,0,1-1.73,1.85,17.29,17.29,0,0,1-1,5.27,19.31,19.31,0,0,1-5,7.41c-1.93,1.8-5,4-8.82,4.06a15.77,15.77,0,0,1-3.5-.39A14,14,0,0,1,350.2,411.36Zm-7.45-2.65c.24.12.49.22.74.33a18,18,0,0,0,6.28,1.57,12.51,12.51,0,0,0,4.54-.69,60.73,60.73,0,0,1-6.45-1.93,17.5,17.5,0,0,1-3.79.67C343.63,408.69,343.19,408.71,342.75,408.71Zm14,1a12.06,12.06,0,0,0,2.34.19c3.56-.09,6.5-2.15,8.33-3.86a18.51,18.51,0,0,0,4.79-7.12,16.55,16.55,0,0,0,.94-4.49,15.21,15.21,0,0,1-4.92,1.82l-.22,0a17.32,17.32,0,0,1-1.73.4,22.64,22.64,0,0,1-5.08,9.61A16.12,16.12,0,0,1,356.75,409.68Zm-7.8-2.09c1.88.65,3.84,1.21,5.88,1.7l.71.16a15.81,15.81,0,0,0,5.12-3.67,21.82,21.82,0,0,0,4.82-9,15.77,15.77,0,0,1-3.63.06q-1.17.7-2.37,1.35a24.4,24.4,0,0,1-6.54,6.74A13.76,13.76,0,0,1,349,407.59Zm-7.81.35a22.89,22.89,0,0,0,2.87,0,18.29,18.29,0,0,0,2.66-.38h0a17.83,17.83,0,0,1-6,.15Zm-21.42-25.55a11,11,0,0,0-1.54,6.14,13,13,0,0,0,1.17,4.29,25.82,25.82,0,0,0,19.93,14.95l-1-.61-.7-.22a18,18,0,0,1-10.13-8.72,19.21,19.21,0,0,1-1.47-3.8c-.62-1-1.18-1.89-1.68-2.74a29,29,0,0,1-2.61-5.3c-.36-.59-.71-1.21-1-1.83A20.29,20.29,0,0,1,319.72,382.39Zm18.86,24.09a16.94,16.94,0,0,0,6.75.52A44.91,44.91,0,0,1,334,400.17a68.82,68.82,0,0,1-6.58-6.53l-1.12-1.26c.11.59.24,1.17.39,1.73a47.58,47.58,0,0,0,5.28,6.92A34.44,34.44,0,0,0,338.58,406.48ZM326.05,391c.63.73,1.26,1.44,1.89,2.14a67.24,67.24,0,0,0,6.5,6.46,44.21,44.21,0,0,0,12.28,7.16,16.16,16.16,0,0,0,3.79-1.29,15.76,15.76,0,0,0,2-1.12,24.68,24.68,0,0,0,3.49-4.21l.27-.42a17.18,17.18,0,0,1-6.91,1.43c-4.72-.09-9.65-2.85-13.19-7.37a12.27,12.27,0,0,1-2.25-4,15.66,15.66,0,0,1,0-6.78c.68-4.43,1.78-8.86,5.16-11.27,1.88-1.33,4.33-2,7.72-2H347a20.7,20.7,0,0,1,10.2,2.34,13.25,13.25,0,0,1,1.93.46c-.51-.25-1-.49-1.55-.72A38.46,38.46,0,0,0,345,368.92a22.89,22.89,0,0,0-5.11.22,17,17,0,0,0-12.58,10,21.86,21.86,0,0,0-1.48,9.14C325.87,389.23,325.94,390.13,326.05,391Zm1.58,5.88c.15.34.31.67.48,1a17.35,17.35,0,0,0,7.47,7.41,33.72,33.72,0,0,1-4.17-3.75A42.84,42.84,0,0,1,327.63,396.88Zm29.82,2.32c-.28.46-.58.91-.88,1.35-.18.27-.37.55-.58.83a25.65,25.65,0,0,0,2.07-2.46ZM347,370.45h-.23c-3.24,0-5.55.61-7.3,1.85-3.15,2.25-4.2,6.51-4.86,10.79a14.93,14.93,0,0,0,0,6.45,11.72,11.72,0,0,0,2.12,3.78c3.41,4.35,8.12,7,12.62,7.09a17.5,17.5,0,0,0,7.61-1.79q.72-1.17,1.38-2.37c-7.06-1.64-12.65-7.21-17.16-11.7-1.12-1.12-2.14-2.24-2.25-3.72a4.11,4.11,0,0,1,.56-2.29,5.9,5.9,0,0,1,5.14-2.92h.07c1.29-1.72,3.48-2.88,6.53-3.44a20.21,20.21,0,0,1,3.89-.32A21.5,21.5,0,0,0,347,370.45Zm12.07,26c-.3.55-.6,1.1-.92,1.64l.44-.22.38-.2c.24-.37.48-.74.71-1.11Zm1.41.22-.16.26.37-.21Zm5.67-2.78c-1,.77-2,1.49-3,2.17a25.69,25.69,0,0,0,2.58-.16c.09-.38.18-.76.26-1.15S366.1,394.14,366.15,393.85Zm-5.25,2.07c.3,0,.61.06.92.07a44.39,44.39,0,0,0,4.5-3.22,30.08,30.08,0,0,0-.23-9.71,25.16,25.16,0,0,1-2.07,6.53A58.65,58.65,0,0,1,360.9,395.92Zm-1.42-.3.64.17a56.57,56.57,0,0,0,3.22-6.49,23.7,23.7,0,0,0,2.06-6.68,9.31,9.31,0,0,0,0-2.48c-.27-.88-.57-1.74-.92-2.59a9.6,9.6,0,0,0-4.46-3.92,8.58,8.58,0,0,0-1-.39,11.83,11.83,0,0,1,4.64,8,16.06,16.06,0,0,1-.78,5.89A46.8,46.8,0,0,1,359.48,395.62Zm7.53-2.46c-.08.57-.18,1.13-.3,1.7-.06.3-.13.6-.2.9.44-.06.89-.13,1.33-.22a18.31,18.31,0,0,0,5.24-2.48l.12-.08a20.11,20.11,0,0,0-.73-5.18A44.59,44.59,0,0,1,367,393.16Zm-22-16.78-.06.1c-1.82,2.95-.51,6.9,1.32,9.61A24.49,24.49,0,0,0,357,394.7c.63.27,1.22.5,1.79.7a46.6,46.6,0,0,0,3.35-8.51,15.41,15.41,0,0,0,.75-5.62,11.47,11.47,0,0,0-5.79-8.43l-.13-.08a17.23,17.23,0,0,0-5.61.15,9.84,9.84,0,0,0-5.78,2.79,5.07,5.07,0,0,1,1.15.34,6.08,6.08,0,0,1,3.34,7l-.71-.2a5.31,5.31,0,0,0-2.92-6.1A4.67,4.67,0,0,0,345.05,376.38Zm-.85,0a5.12,5.12,0,0,0-4.08,2.52,3.34,3.34,0,0,0-.47,1.89c.09,1.22,1,2.23,2,3.24a59,59,0,0,0,10.15,8.65,23.65,23.65,0,0,1-6.14-6.16C343.79,383.68,342.44,379.58,344.2,376.37ZM373,387.12a21,21,0,0,1,.89,5.34c.38-.3.77-.6,1.14-.93a5,5,0,0,0,.57-1.41c.5-2.22-.49-4.7-3-7.58a40.76,40.76,0,0,0-5-4.77,23.39,23.39,0,0,1,5.15,8.51c.34-.42.67-.86,1-1.29l.59.44C373.94,386,373.5,386.57,373,387.12ZM324,389.66c.31.56.62,1.1.94,1.64l.56.93c-.06-.31-.1-.61-.14-.92C324.89,390.77,324.43,390.23,324,389.66ZM366.11,380a30.65,30.65,0,0,1,1,12.09,43.69,43.69,0,0,0,5.07-5.11,22.67,22.67,0,0,0-5.22-8.79,27.12,27.12,0,0,0-2.43-2.22c0,.09.08.18.13.27.15.34.3.68.44,1a8.36,8.36,0,0,1,1,2.72Zm-2.58-6a41.64,41.64,0,0,1,9.64,8.07c2.71,3.08,3.75,5.77,3.19,8.23,0,0,0,.05,0,.08a33.2,33.2,0,0,0,5.39-7.22,7.71,7.71,0,0,0,1.34-4.12c-.13-2.11-1.87-3.82-3.38-5.06a43.88,43.88,0,0,0-23.15-9.79c-1.12-.12-2.25-.19-3.38-.22A26.22,26.22,0,0,1,363.53,374ZM322.35,386A35.9,35.9,0,0,0,325.2,390c-.05-.54-.08-1.1-.1-1.66a22.66,22.66,0,0,1,1.54-9.45,17.71,17.71,0,0,1,7.65-8.5,32.13,32.13,0,0,0-10.74,7.16c-.45.44-.87.89-1.26,1.33a10.77,10.77,0,0,0-.57,4A12.06,12.06,0,0,0,322.35,386Zm-2.13-4.48a19.76,19.76,0,0,0,.82,2.07c0-.24-.05-.47-.06-.71a11.37,11.37,0,0,1,.19-2.72C320.82,380.66,320.51,381.11,320.22,381.56Zm20.15-19.79c-1.12,0-2.26.05-3.43.16a24.67,24.67,0,0,0-10.62,3.16,13.09,13.09,0,0,0-6.38,15.55,22.75,22.75,0,0,1,1.69-2.16,14.77,14.77,0,0,1,2.54-4.47,24,24,0,0,1,7.49-5.77,44,44,0,0,1,18.06-5A28.29,28.29,0,0,0,340.37,361.77Zm11.07,2.17a43.17,43.17,0,0,0-19.43,5,23.4,23.4,0,0,0-7.27,5.58,14.34,14.34,0,0,0-1.62,2.44c5.64-5.53,12.35-8.71,18.9-9a31.87,31.87,0,0,1,4.89.25,42.34,42.34,0,0,1,15.26,5A25.07,25.07,0,0,0,351.44,363.94Z" style="opacity:0.2"></path><path d="M141.5,418.62a20,20,0,0,1-9.22-2.19,10.87,10.87,0,0,1-3-2.18,9.61,9.61,0,0,1-2.38-5.42,11.17,11.17,0,0,1-4.52-13.89,20.51,20.51,0,0,1,5.11-7.63,24,24,0,0,1,9.93-6.25l.18-.05a34.37,34.37,0,0,1,3.22-2.43,35.58,35.58,0,0,1,19.52-5.9h0c1.68,0,3.77.19,5.07,1.6a6.73,6.73,0,0,1,1.39,3.55,26.23,26.23,0,0,1,.13,8.72,5.55,5.55,0,0,1-.13,2,14.16,14.16,0,0,1,2,3.79,15.67,15.67,0,0,1,.65,7.15,11.28,11.28,0,0,1-3.41,7,12.29,12.29,0,0,1-2.35,1.56,11.19,11.19,0,0,1-3.06,3.7,14.68,14.68,0,0,1-4.86,2.34c-.64.2-1.28.37-1.93.51A21.08,21.08,0,0,1,141.5,418.62Zm-14-9.38a8.73,8.73,0,0,0,2.14,4.61,10.63,10.63,0,0,0,2.88,2.06,20.41,20.41,0,0,0,19.84-1l-.91.14-.54.22a14.29,14.29,0,0,1-10.66-.21,15.43,15.43,0,0,1-2.83-1.61c-.86-.28-1.68-.56-2.42-.83a23.24,23.24,0,0,1-4.27-2c-.53-.18-1-.39-1.56-.61A16.36,16.36,0,0,1,127.53,409.24Zm12.17,4.93c.27.14.54.26.81.38a13.74,13.74,0,0,0,8.37.77,27.9,27.9,0,0,1-4.48-.19A33.13,33.13,0,0,1,139.7,414.17Zm-2-1.21a37.48,37.48,0,0,0,6.75,1.58,27.55,27.55,0,0,0,6.85,0,13.71,13.71,0,0,0,4.42-3.14A36.18,36.18,0,0,1,145.29,413a51.19,51.19,0,0,1-7.35-.68l-1.34-.2C137,412.39,137.34,412.69,137.72,413ZM156.83,411a14.34,14.34,0,0,1-3.64,3.17l.44-.09a16.7,16.7,0,0,0,1.76-1.49,14.88,14.88,0,0,0,1.46-1.59Zm1-.34a13.45,13.45,0,0,1-2,2.36c-.25.25-.52.49-.79.72l.63-.18a14.31,14.31,0,0,0,4.67-2.25,10.33,10.33,0,0,0,2.46-2.75A49.67,49.67,0,0,1,157.81,410.69Zm-24,.87c.48.19.95.37,1.43.54l.81.29c-.19-.16-.37-.33-.55-.5Zm2-.22,2.25.36a52,52,0,0,0,7.27.67,35.06,35.06,0,0,0,11.19-1.85,13.34,13.34,0,0,0,1.7-2.74,16,16,0,0,0,.65-1.7,20.08,20.08,0,0,0,0-4.41c0-.13,0-.26,0-.39a14.1,14.1,0,0,1-3.55,4.43c-3,2.36-7.4,3.17-11.87,2.18a9.48,9.48,0,0,1-3.41-1.35,12.09,12.09,0,0,1-3.42-4.19c-1.81-3.1-3.36-6.42-2.49-9.64a10.69,10.69,0,0,1,3.77-5.19,16.64,16.64,0,0,1,7.63-3.89,10,10,0,0,1,1.43-.71c-.44.1-.88.22-1.32.34a30.67,30.67,0,0,0-9.21,4.67,18.33,18.33,0,0,0-3,2.76,13.83,13.83,0,0,0-2.74,12.65,17.65,17.65,0,0,0,3.69,6.43C134.77,410.33,135.27,410.86,135.77,411.34ZM131,410.16a27.11,27.11,0,0,0,3.74,1q-.47-.48-.9-1a18,18,0,0,1-3.81-6.65,14.38,14.38,0,0,1,.44-9.16,26.33,26.33,0,0,0-3,9.92c-.06.51-.09,1-.11,1.47a8.71,8.71,0,0,0,1.67,2.79A9.4,9.4,0,0,0,131,410.16Zm28.41-4a11.39,11.39,0,0,1-1.12,3.69,47.86,47.86,0,0,0,4.47-2l.53-.26a13,13,0,0,0,1.32-4.91,17.67,17.67,0,0,0-1.55-8,12.48,12.48,0,0,1-2.22,1.9c-.24.69-.5,1.37-.78,2.05A19.76,19.76,0,0,1,159.41,406.2Zm-32,2.28a14.55,14.55,0,0,0,1.56.86,5.44,5.44,0,0,1-.41-.42,9,9,0,0,1-1.25-1.77C127.34,407.61,127.37,408.05,127.42,408.48Zm9-26.47a24.28,24.28,0,0,0-8.56,5.72,19.89,19.89,0,0,0-5,7.41,11.45,11.45,0,0,0,.19,8.67,11.12,11.12,0,0,0,3.69,4.24,17.85,17.85,0,0,1,0-2.21,11.75,11.75,0,0,1-.68-4.07,19.59,19.59,0,0,1,1.72-7.42A35.71,35.71,0,0,1,136.43,382Zm7.66,2.57a17.36,17.36,0,0,0-5.86,3.4,10,10,0,0,0-3.57,4.89c-.82,3,.68,6.19,2.42,9.18a11.85,11.85,0,0,0,3.24,4,9,9,0,0,0,3.21,1.27c4.3.95,8.55.17,11.37-2.08a14.24,14.24,0,0,0,3.8-5c-.09-.73-.21-1.45-.34-2.17-5.19,2.59-11.45,2-16.5,1.53a4.87,4.87,0,0,1-3.26-1.15,3.42,3.42,0,0,1-.81-1.71,4.82,4.82,0,0,1,1.75-4.47,8.16,8.16,0,0,1,2.31-5.48A15.46,15.46,0,0,1,144.09,384.58Zm19.41,9.65a18.35,18.35,0,0,1,1.7,8.57,13.43,13.43,0,0,1-1,4.39,10.07,10.07,0,0,0,1.53-1.08,10.61,10.61,0,0,0,3.21-6.67,15,15,0,0,0-.62-6.87,13.32,13.32,0,0,0-1.68-3.27,12.64,12.64,0,0,1-2.12,3.66l-.12.13A14.16,14.16,0,0,1,163.5,394.23Zm-25.65-12.69a35,35,0,0,0-9.52,13,19,19,0,0,0-1.68,7.19,11.74,11.74,0,0,0,.22,2.33c.7-6.31,3.25-11.72,7.17-15.23a23.66,23.66,0,0,1,3.15-2.35,33.75,33.75,0,0,1,11.94-4.74A19.81,19.81,0,0,0,137.85,381.54Zm21.46,18.79c.06.43.1.86.14,1.29,0,.25,0,.52.06.79a22,22,0,0,0,0-2.57C159.47,400,159.39,400.17,159.31,400.33ZM139.62,393a4.18,4.18,0,0,0-1.25,3.66A2.82,2.82,0,0,0,139,398a4.43,4.43,0,0,0,2.89,1,46.75,46.75,0,0,0,10.68.16,18.67,18.67,0,0,1-6.95-.68C143.06,397.71,140.15,395.86,139.62,393Zm19.29,4.8c.09.49.18,1,.25,1.48.06-.12.11-.24.16-.36s.09-.21.14-.31l-.12-1.06Zm-18.75-5.24s0,.07,0,.1c.36,2.76,3.16,4.54,5.65,5.29a19.48,19.48,0,0,0,10.93-.14,14.66,14.66,0,0,0,1.46-.49,37.92,37.92,0,0,0-2.21-7,12.29,12.29,0,0,0-2.37-3.86,9,9,0,0,0-7.82-2.26l-.12,0a13.68,13.68,0,0,0-3.39,3,8,8,0,0,0-2.17,4.69,4,4,0,0,1,.88-.38,4.8,4.8,0,0,1,5.58,2.62l-.55.23a4.18,4.18,0,0,0-4.86-2.28A3.7,3.7,0,0,0,140.16,392.53Zm19.73,4.65,0,.24.12-.32Zm-12.45-13.73a9.27,9.27,0,0,1,6.61,2.56,12.8,12.8,0,0,1,2.49,4.05,37.84,37.84,0,0,1,2.23,7l.47-.22a45.78,45.78,0,0,0-1.28-5.69,19.13,19.13,0,0,0-2.08-5.19,7.62,7.62,0,0,0-1.26-1.53,21.11,21.11,0,0,0-1.87-1.13,7.46,7.46,0,0,0-4.73-.15c-.28.08-.57.18-.85.29Zm9.08,2.44a20.12,20.12,0,0,1,2,5.11,46.87,46.87,0,0,1,1.26,5.53l.61-.43a35.54,35.54,0,0,0,1.15-4.31A23.85,23.85,0,0,0,156.52,385.89Zm5.48,6.67c-.22,1-.47,1.92-.77,2.87a16.64,16.64,0,0,0,1.51-1.42q-.19-.42-.42-.84C162.22,393,162.11,392.76,162,392.56Zm.18-.87c.23.39.46.79.67,1.2l.33.66c.24-.26.48-.54.71-.82a15.18,15.18,0,0,0,2-4.22l0-.11a15.87,15.87,0,0,0-3-2.84A37.22,37.22,0,0,1,162.18,391.69ZM155,384a24.36,24.36,0,0,1,6.74,7,36.25,36.25,0,0,0,.55-5.78,17.87,17.87,0,0,0-7.65-2.77,20.78,20.78,0,0,0-2.63-.13l.23.11.78.4a6.37,6.37,0,0,1,2,1.19Zm7.89.88a16.32,16.32,0,0,1,3.22,2.85c.1-.38.18-.77.25-1.16a3.89,3.89,0,0,0-.37-1.17c-.8-1.63-2.66-2.66-5.68-3.14a30.87,30.87,0,0,0-5.5-.41,18.49,18.49,0,0,1,7.49,2.64c0-.44,0-.88,0-1.32l.6,0C162.86,383.69,162.87,384.27,162.87,384.85Zm-7.71-3.63a32.93,32.93,0,0,1,5.23.42c3.22.52,5.22,1.65,6.12,3.47l0,.05a27,27,0,0,0-.3-7.24,6.32,6.32,0,0,0-1.25-3.24c-1.14-1.24-3.08-1.41-4.63-1.41h0a35,35,0,0,0-19.19,5.8c-.76.5-1.49,1-2.2,1.6a20.8,20.8,0,0,1,11.45.9A33.38,33.38,0,0,1,155.16,381.22Z" style="fill:#890031"></path><path d="M141.5,418.62a20,20,0,0,1-9.22-2.19,10.87,10.87,0,0,1-3-2.18,9.61,9.61,0,0,1-2.38-5.42,11.17,11.17,0,0,1-4.52-13.89,20.51,20.51,0,0,1,5.11-7.63,24,24,0,0,1,9.93-6.25l.18-.05a34.37,34.37,0,0,1,3.22-2.43,35.58,35.58,0,0,1,19.52-5.9h0c1.68,0,3.77.19,5.07,1.6a6.73,6.73,0,0,1,1.39,3.55,26.23,26.23,0,0,1,.13,8.72,5.55,5.55,0,0,1-.13,2,14.16,14.16,0,0,1,2,3.79,15.67,15.67,0,0,1,.65,7.15,11.28,11.28,0,0,1-3.41,7,12.29,12.29,0,0,1-2.35,1.56,11.19,11.19,0,0,1-3.06,3.7,14.68,14.68,0,0,1-4.86,2.34c-.64.2-1.28.37-1.93.51A21.08,21.08,0,0,1,141.5,418.62Zm-14-9.38a8.73,8.73,0,0,0,2.14,4.61,10.63,10.63,0,0,0,2.88,2.06,20.41,20.41,0,0,0,19.84-1l-.91.14-.54.22a14.29,14.29,0,0,1-10.66-.21,15.43,15.43,0,0,1-2.83-1.61c-.86-.28-1.68-.56-2.42-.83a23.24,23.24,0,0,1-4.27-2c-.53-.18-1-.39-1.56-.61A16.36,16.36,0,0,1,127.53,409.24Zm12.17,4.93c.27.14.54.26.81.38a13.74,13.74,0,0,0,8.37.77,27.9,27.9,0,0,1-4.48-.19A33.13,33.13,0,0,1,139.7,414.17Zm-2-1.21a37.48,37.48,0,0,0,6.75,1.58,27.55,27.55,0,0,0,6.85,0,13.71,13.71,0,0,0,4.42-3.14A36.18,36.18,0,0,1,145.29,413a51.19,51.19,0,0,1-7.35-.68l-1.34-.2C137,412.39,137.34,412.69,137.72,413ZM156.83,411a14.34,14.34,0,0,1-3.64,3.17l.44-.09a16.7,16.7,0,0,0,1.76-1.49,14.88,14.88,0,0,0,1.46-1.59Zm1-.34a13.45,13.45,0,0,1-2,2.36c-.25.25-.52.49-.79.72l.63-.18a14.31,14.31,0,0,0,4.67-2.25,10.33,10.33,0,0,0,2.46-2.75A49.67,49.67,0,0,1,157.81,410.69Zm-24,.87c.48.19.95.37,1.43.54l.81.29c-.19-.16-.37-.33-.55-.5Zm2-.22,2.25.36a52,52,0,0,0,7.27.67,35.06,35.06,0,0,0,11.19-1.85,13.34,13.34,0,0,0,1.7-2.74,16,16,0,0,0,.65-1.7,20.08,20.08,0,0,0,0-4.41c0-.13,0-.26,0-.39a14.1,14.1,0,0,1-3.55,4.43c-3,2.36-7.4,3.17-11.87,2.18a9.48,9.48,0,0,1-3.41-1.35,12.09,12.09,0,0,1-3.42-4.19c-1.81-3.1-3.36-6.42-2.49-9.64a10.69,10.69,0,0,1,3.77-5.19,16.64,16.64,0,0,1,7.63-3.89,10,10,0,0,1,1.43-.71c-.44.1-.88.22-1.32.34a30.67,30.67,0,0,0-9.21,4.67,18.33,18.33,0,0,0-3,2.76,13.83,13.83,0,0,0-2.74,12.65,17.65,17.65,0,0,0,3.69,6.43C134.77,410.33,135.27,410.86,135.77,411.34ZM131,410.16a27.11,27.11,0,0,0,3.74,1q-.47-.48-.9-1a18,18,0,0,1-3.81-6.65,14.38,14.38,0,0,1,.44-9.16,26.33,26.33,0,0,0-3,9.92c-.06.51-.09,1-.11,1.47a8.71,8.71,0,0,0,1.67,2.79A9.4,9.4,0,0,0,131,410.16Zm28.41-4a11.39,11.39,0,0,1-1.12,3.69,47.86,47.86,0,0,0,4.47-2l.53-.26a13,13,0,0,0,1.32-4.91,17.67,17.67,0,0,0-1.55-8,12.48,12.48,0,0,1-2.22,1.9c-.24.69-.5,1.37-.78,2.05A19.76,19.76,0,0,1,159.41,406.2Zm-32,2.28a14.55,14.55,0,0,0,1.56.86,5.44,5.44,0,0,1-.41-.42,9,9,0,0,1-1.25-1.77C127.34,407.61,127.37,408.05,127.42,408.48Zm9-26.47a24.28,24.28,0,0,0-8.56,5.72,19.89,19.89,0,0,0-5,7.41,11.45,11.45,0,0,0,.19,8.67,11.12,11.12,0,0,0,3.69,4.24,17.85,17.85,0,0,1,0-2.21,11.75,11.75,0,0,1-.68-4.07,19.59,19.59,0,0,1,1.72-7.42A35.71,35.71,0,0,1,136.43,382Zm7.66,2.57a17.36,17.36,0,0,0-5.86,3.4,10,10,0,0,0-3.57,4.89c-.82,3,.68,6.19,2.42,9.18a11.85,11.85,0,0,0,3.24,4,9,9,0,0,0,3.21,1.27c4.3.95,8.55.17,11.37-2.08a14.24,14.24,0,0,0,3.8-5c-.09-.73-.21-1.45-.34-2.17-5.19,2.59-11.45,2-16.5,1.53a4.87,4.87,0,0,1-3.26-1.15,3.42,3.42,0,0,1-.81-1.71,4.82,4.82,0,0,1,1.75-4.47,8.16,8.16,0,0,1,2.31-5.48A15.46,15.46,0,0,1,144.09,384.58Zm19.41,9.65a18.35,18.35,0,0,1,1.7,8.57,13.43,13.43,0,0,1-1,4.39,10.07,10.07,0,0,0,1.53-1.08,10.61,10.61,0,0,0,3.21-6.67,15,15,0,0,0-.62-6.87,13.32,13.32,0,0,0-1.68-3.27,12.64,12.64,0,0,1-2.12,3.66l-.12.13A14.16,14.16,0,0,1,163.5,394.23Zm-25.65-12.69a35,35,0,0,0-9.52,13,19,19,0,0,0-1.68,7.19,11.74,11.74,0,0,0,.22,2.33c.7-6.31,3.25-11.72,7.17-15.23a23.66,23.66,0,0,1,3.15-2.35,33.75,33.75,0,0,1,11.94-4.74A19.81,19.81,0,0,0,137.85,381.54Zm21.46,18.79c.06.43.1.86.14,1.29,0,.25,0,.52.06.79a22,22,0,0,0,0-2.57C159.47,400,159.39,400.17,159.31,400.33ZM139.62,393a4.18,4.18,0,0,0-1.25,3.66A2.82,2.82,0,0,0,139,398a4.43,4.43,0,0,0,2.89,1,46.75,46.75,0,0,0,10.68.16,18.67,18.67,0,0,1-6.95-.68C143.06,397.71,140.15,395.86,139.62,393Zm19.29,4.8c.09.49.18,1,.25,1.48.06-.12.11-.24.16-.36s.09-.21.14-.31l-.12-1.06Zm-18.75-5.24s0,.07,0,.1c.36,2.76,3.16,4.54,5.65,5.29a19.48,19.48,0,0,0,10.93-.14,14.66,14.66,0,0,0,1.46-.49,37.92,37.92,0,0,0-2.21-7,12.29,12.29,0,0,0-2.37-3.86,9,9,0,0,0-7.82-2.26l-.12,0a13.68,13.68,0,0,0-3.39,3,8,8,0,0,0-2.17,4.69,4,4,0,0,1,.88-.38,4.8,4.8,0,0,1,5.58,2.62l-.55.23a4.18,4.18,0,0,0-4.86-2.28A3.7,3.7,0,0,0,140.16,392.53Zm19.73,4.65,0,.24.12-.32Zm-12.45-13.73a9.27,9.27,0,0,1,6.61,2.56,12.8,12.8,0,0,1,2.49,4.05,37.84,37.84,0,0,1,2.23,7l.47-.22a45.78,45.78,0,0,0-1.28-5.69,19.13,19.13,0,0,0-2.08-5.19,7.62,7.62,0,0,0-1.26-1.53,21.11,21.11,0,0,0-1.87-1.13,7.46,7.46,0,0,0-4.73-.15c-.28.08-.57.18-.85.29Zm9.08,2.44a20.12,20.12,0,0,1,2,5.11,46.87,46.87,0,0,1,1.26,5.53l.61-.43a35.54,35.54,0,0,0,1.15-4.31A23.85,23.85,0,0,0,156.52,385.89Zm5.48,6.67c-.22,1-.47,1.92-.77,2.87a16.64,16.64,0,0,0,1.51-1.42q-.19-.42-.42-.84C162.22,393,162.11,392.76,162,392.56Zm.18-.87c.23.39.46.79.67,1.2l.33.66c.24-.26.48-.54.71-.82a15.18,15.18,0,0,0,2-4.22l0-.11a15.87,15.87,0,0,0-3-2.84A37.22,37.22,0,0,1,162.18,391.69ZM155,384a24.36,24.36,0,0,1,6.74,7,36.25,36.25,0,0,0,.55-5.78,17.87,17.87,0,0,0-7.65-2.77,20.78,20.78,0,0,0-2.63-.13l.23.11.78.4a6.37,6.37,0,0,1,2,1.19Zm7.89.88a16.32,16.32,0,0,1,3.22,2.85c.1-.38.18-.77.25-1.16a3.89,3.89,0,0,0-.37-1.17c-.8-1.63-2.66-2.66-5.68-3.14a30.87,30.87,0,0,0-5.5-.41,18.49,18.49,0,0,1,7.49,2.64c0-.44,0-.88,0-1.32l.6,0C162.86,383.69,162.87,384.27,162.87,384.85Zm-7.71-3.63a32.93,32.93,0,0,1,5.23.42c3.22.52,5.22,1.65,6.12,3.47l0,.05a27,27,0,0,0-.3-7.24,6.32,6.32,0,0,0-1.25-3.24c-1.14-1.24-3.08-1.41-4.63-1.41h0a35,35,0,0,0-19.19,5.8c-.76.5-1.49,1-2.2,1.6a20.8,20.8,0,0,1,11.45.9A33.38,33.38,0,0,1,155.16,381.22Z" style="fill:#fff;opacity:0.4"></path><path d="M150.67,416.83a18.79,18.79,0,0,1-8-1.9l-2.36.63-.15-.58,1.71-.45a27,27,0,0,1-7.45-5.85,28.18,28.18,0,0,1-3.52-4.74,10.07,10.07,0,0,1-5.23-6.71,16.42,16.42,0,0,1,0-5,42.26,42.26,0,0,1,1.63-8.79,14.44,14.44,0,0,1,5.12-7.32,15.53,15.53,0,0,1,3.85-1.85,28,28,0,0,1,21.17,1.14c.43.21.86.43,1.28.66h.17a10.61,10.61,0,0,1,6.12,1.68c3,2.05,4.16,5.75,4.8,8.36a42.22,42.22,0,0,1,.81,4.15c.15.44.28.87.4,1.31a11.52,11.52,0,0,1,.24,6.27c-.07.24-.15.46-.23.69a15.67,15.67,0,0,1-8,14c-4.19,2.8-8.32,4.23-12.27,4.27Zm-7.1-2.15a17.8,17.8,0,0,0,7.24,1.56c3.83,0,7.85-1.44,11.94-4.18a17.45,17.45,0,0,0,5.77-5.72,15.85,15.85,0,0,0,1.85-6.36,15.5,15.5,0,0,1-3.07,3.48C160.73,409.29,152.12,412.32,143.57,414.68Zm-11.68-10.26a28.48,28.48,0,0,0,3,3.86,26.26,26.26,0,0,0,7.87,6c8.71-2.38,17.52-5.38,24.18-11.28a12.9,12.9,0,0,0,3.58-4.57c0-.32,0-.65,0-1a42.18,42.18,0,0,0-.43-7,25.21,25.21,0,0,0-11.47-13.73,18.77,18.77,0,0,0-2.69.26c-.42.06-.84.14-1.25.23a13.38,13.38,0,0,1,6.4,4.27,18.77,18.77,0,0,1,4.55,12.43,12.25,12.25,0,0,1-2.11,7.11,13,13,0,0,1-4.23,3.54c-5.55,3.2-11.88,3.81-16.94,1.64a13,13,0,0,1-1.81-.95,16.59,16.59,0,0,1-6.81-.2A11.4,11.4,0,0,1,131.89,404.42Zm9.54.67c.37.2.76.39,1.15.56,4.89,2.1,11,1.5,16.42-1.6a12.53,12.53,0,0,0,4-3.38,11.58,11.58,0,0,0,2-6.77,18.16,18.16,0,0,0-4.39-12,12.64,12.64,0,0,0-6.5-4.18c-.27-.06-.55-.11-.83-.15a27,27,0,0,0-8.18,3.74,20.34,20.34,0,0,0-3,2.46h0a10.45,10.45,0,0,1,10.65,3.66,10,10,0,0,1,.45,11.2,12.33,12.33,0,0,1-4.61,4,27.86,27.86,0,0,0,4.43-2l.27.53a20.6,20.6,0,0,1-6.24,2.42l-.77.09-1.11.41A31.56,31.56,0,0,1,141.43,405.09Zm-10.1-1.59a11.51,11.51,0,0,0,2.55,1,15.85,15.85,0,0,0,5.92.28c-4.18-3-6.52-8.18-5.49-12.86a11.07,11.07,0,0,1,6.67-7.79,19.74,19.74,0,0,1,3.82-3.32,27.59,27.59,0,0,1,6.8-3.35,19.29,19.29,0,0,0-4.41.62,39.58,39.58,0,0,0-10,3.88,17.69,17.69,0,0,0-6,4.86,14,14,0,0,0-2,11.23A19.51,19.51,0,0,0,131.33,403.5Zm8.83-18.36a10.48,10.48,0,0,0-5.27,6.89c-1,4.64,1.45,9.81,5.77,12.6a26.24,26.24,0,0,0,4-1,6.42,6.42,0,0,1-4-1.86,8.82,8.82,0,0,1-1.71-3,15.07,15.07,0,0,1-.15-11.35A12.11,12.11,0,0,1,140.16,385.14Zm1.17-.53a12.38,12.38,0,0,0-1.94,3,14.5,14.5,0,0,0,.17,10.9,8.11,8.11,0,0,0,1.58,2.78,6.32,6.32,0,0,0,5.05,1.71c3.12-1.23,5.27-2.8,6.56-4.77a9.35,9.35,0,0,0-.42-10.51,9.88,9.88,0,0,0-10-3.45A8.84,8.84,0,0,0,141.33,384.61Zm4.25-11.24a27.91,27.91,0,0,0-9.06,1.51,15.11,15.11,0,0,0-3.71,1.78,13.82,13.82,0,0,0-4.9,7,42,42,0,0,0-1.6,8.67,16.23,16.23,0,0,0-.06,4.77,9.2,9.2,0,0,0,4.08,5.78,19.59,19.59,0,0,1-1.75-4.74,14.59,14.59,0,0,1,2.11-11.7,18.3,18.3,0,0,1,6.18-5,40.39,40.39,0,0,1,10.18-3.94,17.46,17.46,0,0,1,6.23-.54,24.81,24.81,0,0,1,2.56-.55c.6-.1,1.19-.17,1.76-.21l-.37-.19A26.8,26.8,0,0,0,145.58,373.37Zm14.24,3.37a26.11,26.11,0,0,1,9.77,10.89c-.09-.44-.19-.88-.3-1.33-.62-2.51-1.77-6.08-4.57-8A9.52,9.52,0,0,0,159.82,376.74Z" style="fill:#890031"></path><path d="M138.61,415.08a34.44,34.44,0,0,1-9-1.19c-1.55-.43-3.44-1.13-4.3-2.76a6.5,6.5,0,0,1-.43-3.61,24.74,24.74,0,0,1,2-8,5.41,5.41,0,0,1,.62-1.84,13.06,13.06,0,0,1-1-4,14.74,14.74,0,0,1,1.14-6.73,10.55,10.55,0,0,1,4.87-5.61,11.78,11.78,0,0,1,2.56-.84,10.6,10.6,0,0,1,3.74-2.64,14.31,14.31,0,0,1,5.07-.92c.63,0,1.27,0,1.91,0a20.3,20.3,0,0,1,20.44,3.83,10.73,10.73,0,0,1,2.28,2.76,9.22,9.22,0,0,1,.88,5.59,11.59,11.59,0,0,1,2.83,5.47,11.42,11.42,0,0,1-2,8.45,19.31,19.31,0,0,1-6.6,5.72A23,23,0,0,1,153,412h-.18a33.15,33.15,0,0,1-3.57,1.42A33.86,33.86,0,0,1,138.61,415.08ZM127,400.84a25.47,25.47,0,0,0-1.48,6.73,5.92,5.92,0,0,0,.36,3.3c.76,1.44,2.51,2.07,4,2.47a33.61,33.61,0,0,0,19.24-.48c.82-.27,1.63-.57,2.42-.91a20.07,20.07,0,0,1-10.39-3.72,32.14,32.14,0,0,1-9.27-2.59c-2.86-1.29-4.43-2.84-4.82-4.73Zm15.3,7.51a19.2,19.2,0,0,0,10.23,3.07h.16a33,33,0,0,0,12-9.58,18,18,0,0,0,3.31-6.19,10.72,10.72,0,0,0,.36-2.21c-2.19,5.64-5.86,10-10.36,12.21a23.33,23.33,0,0,1-3.49,1.37,30.6,30.6,0,0,1-8.52,1.43A32.3,32.3,0,0,1,142.25,408.35Zm26.6-16.47a11.25,11.25,0,0,1-.37,3.91,18.33,18.33,0,0,1-3.4,6.39,33.45,33.45,0,0,1-11,9.16,23.06,23.06,0,0,0,9.33-3.1,18.9,18.9,0,0,0,6.41-5.55,10,10,0,0,0-.45-12.86A19.64,19.64,0,0,1,168.85,391.88Zm-24.27,16c.44,0,.88,0,1.33,0a29.17,29.17,0,0,0,9.65-2,18.09,18.09,0,0,0,3.5-1.76,13,13,0,0,0,5.61-10.95,16.88,16.88,0,0,0-1.85-6.84c-.32-.64-.65-1.25-1-1.82-.67-.32-1.34-.61-2-.9a50.27,50.27,0,0,0-6.57-2.45,33.75,33.75,0,0,0-10.82-1.13,12.68,12.68,0,0,0-2.23,2.1,10.65,10.65,0,0,0-1,1.4,19.08,19.08,0,0,0-1.1,4L138,388a13.25,13.25,0,0,1,4.37-3.18c3.32-1.42,7.63-1.05,11.52,1a9.35,9.35,0,0,1,2.84,2.1,12,12,0,0,1,2.14,4.72c.92,3.31,1.55,6.75,0,9.49a10,10,0,0,1-4.75,3.83,15.92,15.92,0,0,1-8,1.65A8.9,8.9,0,0,1,144.58,407.86ZM139.26,406a7.4,7.4,0,0,0,4.35,1.33,8.08,8.08,0,0,0,.85-.05,9.15,9.15,0,0,1-5.75-4.09,12.38,12.38,0,0,1-1.31-4.36,34.93,34.93,0,0,1-.35-7l-.5.08a44,44,0,0,0-.2,5.55,18.19,18.19,0,0,0,.67,5.3,6.91,6.91,0,0,0,.79,1.73C138.27,405,138.75,405.55,139.26,406Zm-8.37-4.11a17.28,17.28,0,0,0,6.42,4.47,20.9,20.9,0,0,0,2.39.79l-.17-.15-.64-.57a6.37,6.37,0,0,1-1.52-1.59h0a23.37,23.37,0,0,1-4.54-8.11A34.2,34.2,0,0,0,130.89,401.92Zm22.79-.79a7.72,7.72,0,0,1-3.47,4.46,14.2,14.2,0,0,1-2.62,1.45,16.38,16.38,0,0,0,6.26-1.64,9.4,9.4,0,0,0,4.5-3.59c1.5-2.56.88-5.87,0-9.06a11.13,11.13,0,0,0-2-4.5,9,9,0,0,0-2.67-2c-3.75-2-7.87-2.32-11-1a13.63,13.63,0,0,0-4.74,3.64c-.09.7-.16,1.39-.21,2.09,5.44-1.08,11.09,1,15.66,2.75a4.8,4.8,0,0,1,2.74,1.88,3.22,3.22,0,0,1,.33,1.78A4.52,4.52,0,0,1,153.68,401.13Zm-16.06-9.34a34.83,34.83,0,0,0,.34,7,12,12,0,0,0,1.25,4.16,8.79,8.79,0,0,0,6.7,4.05H146a13.05,13.05,0,0,0,3.86-1.87,7.5,7.5,0,0,0,3.15-3.77,3.9,3.9,0,0,1-.9.12,4.64,4.64,0,0,1-4.53-3.81l.56-.08a4.06,4.06,0,0,0,3.87,3.33h.08a3.55,3.55,0,0,0,1.07-.2v-.09c.34-2.63-1.82-5-3.95-6.28a19,19,0,0,0-10.16-2.64C138.56,391.72,138.07,391.74,137.62,391.79Zm-10.16,7.83a3.58,3.58,0,0,0,.06,1.17c.34,1.71,1.81,3.12,4.5,4.33a30.94,30.94,0,0,0,5,1.76,18,18,0,0,1-6.27-4.32c-.11.41-.2.81-.29,1.22l-.56-.12c.12-.54.25-1.07.4-1.6a16.15,16.15,0,0,1-2.3-3.44C127.79,399,127.62,399.28,127.46,399.62Zm5.72-3.62a23.16,23.16,0,0,0,3.21,6.7,19.39,19.39,0,0,1-.61-5.2,45.6,45.6,0,0,1,.18-5.41l-.66.25A32.52,32.52,0,0,0,133.18,396Zm29.55-11c.21.36.41.74.6,1.13a17.18,17.18,0,0,1,1.9,7.07,13.59,13.59,0,0,1-2.65,8.34,24.58,24.58,0,0,0,5.23-8.38c.17-.45.33-.89.46-1.32a8.35,8.35,0,0,0-.87-3,9.62,9.62,0,0,0-1.46-2A26.81,26.81,0,0,0,162.73,385Zm-34.42,13a15.51,15.51,0,0,0,2.14,3.38,34.09,34.09,0,0,1,2.12-5.46c-.12-.42-.23-.85-.33-1.28-.05-.23-.1-.46-.14-.69l-.87.57a14.31,14.31,0,0,0-2.86,3.38Zm15-6.53a18.22,18.22,0,0,1,6.23,2.36c2.21,1.37,4.45,3.81,4.24,6.6a3.94,3.94,0,0,0,2.05-3,2.61,2.61,0,0,0-.27-1.46,4.29,4.29,0,0,0-2.44-1.63A45.73,45.73,0,0,0,143.31,391.5Zm-8.79-10.31a9.45,9.45,0,0,0-1.69.6,10,10,0,0,0-4.6,5.33,14,14,0,0,0-1.09,6.47,12.07,12.07,0,0,0,.76,3.43,11.5,11.5,0,0,1,2.86-2.82l.13-.1c.35-.3.71-.57,1.08-.83a17.33,17.33,0,0,1,.51-8.31A12.59,12.59,0,0,1,134.52,381.19Zm-1.91,12.47c.06.29.12.59.19.88l.15.65c.44-.84.91-1.66,1.41-2.45A17.38,17.38,0,0,0,132.61,393.66ZM135.44,381a12,12,0,0,0-2.42,4.18,16.65,16.65,0,0,0-.53,7.78,11.53,11.53,0,0,1,2.52-1.18c.39-.58.8-1.14,1.23-1.69a18.43,18.43,0,0,1,2.43-6.76,10.51,10.51,0,0,1,1.94-3.11,46.13,46.13,0,0,0-4.63.67Zm.62,10.27-.19.26.16,0Zm.71-.95-.15,1,.46-.12c0-.48.08-1,.13-1.43L137,390Zm30.86-2.19a4.39,4.39,0,0,1,.27.47,8.21,8.21,0,0,1,.72,2c.1-.43.18-.84.24-1.25A15.34,15.34,0,0,0,167.63,388.1Zm-30-1.36a19.35,19.35,0,0,0-.66,2.37l.33-.39c.06-.41.12-.81.19-1.22C137.56,387.26,137.61,387,137.66,386.74Zm28.65-.36c.45.3.88.62,1.3,1a15.56,15.56,0,0,1,1.34,1.21,8.44,8.44,0,0,0-.87-4.78,10.36,10.36,0,0,0-2.16-2.62A19.76,19.76,0,0,0,147.31,377l.88.1.56-.07a13.89,13.89,0,0,1,9.81,2.89,14.85,14.85,0,0,1,2.23,2.19c.73.48,1.42.95,2,1.38A22.09,22.09,0,0,1,166.31,386.38Zm-4.1-2.28c.49.23,1,.47,1.46.72-.39-.3-.79-.58-1.17-.84l-.68-.48C162,383.7,162.08,383.89,162.21,384.1Zm-17.89-4.65a34,34,0,0,1,9.09,1.19,51.36,51.36,0,0,1,6.64,2.48l1.18.53c-.26-.38-.54-.75-.82-1.09a36.21,36.21,0,0,0-5.87-3.16,26.2,26.2,0,0,0-6.34-1.71,13.16,13.16,0,0,0-4.87,1.77Zm6.35-1.88a27.78,27.78,0,0,1,4.09,1.3,31.45,31.45,0,0,1,4.1,2.07c-.21-.19-.43-.38-.65-.55A13.25,13.25,0,0,0,150.67,377.57Zm-6.08-.12H144a13.5,13.5,0,0,0-4.87.88,9.83,9.83,0,0,0-3,1.91,44.56,44.56,0,0,1,5.11-.68,13,13,0,0,1,2.43-1.66C144,377.74,144.28,377.59,144.59,377.45Zm1.36,0a19,19,0,0,0-2,.92,15.22,15.22,0,0,0-1.73,1.1h0a13.54,13.54,0,0,1,4.14-2Z" style="fill:#890031"></path><path d="M138.61,415.08a34.44,34.44,0,0,1-9-1.19c-1.55-.43-3.44-1.13-4.3-2.76a6.5,6.5,0,0,1-.43-3.61,24.74,24.74,0,0,1,2-8,5.41,5.41,0,0,1,.62-1.84,13.06,13.06,0,0,1-1-4,14.74,14.74,0,0,1,1.14-6.73,10.55,10.55,0,0,1,4.87-5.61,11.78,11.78,0,0,1,2.56-.84,10.6,10.6,0,0,1,3.74-2.64,14.31,14.31,0,0,1,5.07-.92c.63,0,1.27,0,1.91,0a20.3,20.3,0,0,1,20.44,3.83,10.73,10.73,0,0,1,2.28,2.76,9.22,9.22,0,0,1,.88,5.59,11.59,11.59,0,0,1,2.83,5.47,11.42,11.42,0,0,1-2,8.45,19.31,19.31,0,0,1-6.6,5.72A23,23,0,0,1,153,412h-.18a33.15,33.15,0,0,1-3.57,1.42A33.86,33.86,0,0,1,138.61,415.08ZM127,400.84a25.47,25.47,0,0,0-1.48,6.73,5.92,5.92,0,0,0,.36,3.3c.76,1.44,2.51,2.07,4,2.47a33.61,33.61,0,0,0,19.24-.48c.82-.27,1.63-.57,2.42-.91a20.07,20.07,0,0,1-10.39-3.72,32.14,32.14,0,0,1-9.27-2.59c-2.86-1.29-4.43-2.84-4.82-4.73Zm15.3,7.51a19.2,19.2,0,0,0,10.23,3.07h.16a33,33,0,0,0,12-9.58,18,18,0,0,0,3.31-6.19,10.72,10.72,0,0,0,.36-2.21c-2.19,5.64-5.86,10-10.36,12.21a23.33,23.33,0,0,1-3.49,1.37,30.6,30.6,0,0,1-8.52,1.43A32.3,32.3,0,0,1,142.25,408.35Zm26.6-16.47a11.25,11.25,0,0,1-.37,3.91,18.33,18.33,0,0,1-3.4,6.39,33.45,33.45,0,0,1-11,9.16,23.06,23.06,0,0,0,9.33-3.1,18.9,18.9,0,0,0,6.41-5.55,10,10,0,0,0-.45-12.86A19.64,19.64,0,0,1,168.85,391.88Zm-24.27,16c.44,0,.88,0,1.33,0a29.17,29.17,0,0,0,9.65-2,18.09,18.09,0,0,0,3.5-1.76,13,13,0,0,0,5.61-10.95,16.88,16.88,0,0,0-1.85-6.84c-.32-.64-.65-1.25-1-1.82-.67-.32-1.34-.61-2-.9a50.27,50.27,0,0,0-6.57-2.45,33.75,33.75,0,0,0-10.82-1.13,12.68,12.68,0,0,0-2.23,2.1,10.65,10.65,0,0,0-1,1.4,19.08,19.08,0,0,0-1.1,4L138,388a13.25,13.25,0,0,1,4.37-3.18c3.32-1.42,7.63-1.05,11.52,1a9.35,9.35,0,0,1,2.84,2.1,12,12,0,0,1,2.14,4.72c.92,3.31,1.55,6.75,0,9.49a10,10,0,0,1-4.75,3.83,15.92,15.92,0,0,1-8,1.65A8.9,8.9,0,0,1,144.58,407.86ZM139.26,406a7.4,7.4,0,0,0,4.35,1.33,8.08,8.08,0,0,0,.85-.05,9.15,9.15,0,0,1-5.75-4.09,12.38,12.38,0,0,1-1.31-4.36,34.93,34.93,0,0,1-.35-7l-.5.08a44,44,0,0,0-.2,5.55,18.19,18.19,0,0,0,.67,5.3,6.91,6.91,0,0,0,.79,1.73C138.27,405,138.75,405.55,139.26,406Zm-8.37-4.11a17.28,17.28,0,0,0,6.42,4.47,20.9,20.9,0,0,0,2.39.79l-.17-.15-.64-.57a6.37,6.37,0,0,1-1.52-1.59h0a23.37,23.37,0,0,1-4.54-8.11A34.2,34.2,0,0,0,130.89,401.92Zm22.79-.79a7.72,7.72,0,0,1-3.47,4.46,14.2,14.2,0,0,1-2.62,1.45,16.38,16.38,0,0,0,6.26-1.64,9.4,9.4,0,0,0,4.5-3.59c1.5-2.56.88-5.87,0-9.06a11.13,11.13,0,0,0-2-4.5,9,9,0,0,0-2.67-2c-3.75-2-7.87-2.32-11-1a13.63,13.63,0,0,0-4.74,3.64c-.09.7-.16,1.39-.21,2.09,5.44-1.08,11.09,1,15.66,2.75a4.8,4.8,0,0,1,2.74,1.88,3.22,3.22,0,0,1,.33,1.78A4.52,4.52,0,0,1,153.68,401.13Zm-16.06-9.34a34.83,34.83,0,0,0,.34,7,12,12,0,0,0,1.25,4.16,8.79,8.79,0,0,0,6.7,4.05H146a13.05,13.05,0,0,0,3.86-1.87,7.5,7.5,0,0,0,3.15-3.77,3.9,3.9,0,0,1-.9.12,4.64,4.64,0,0,1-4.53-3.81l.56-.08a4.06,4.06,0,0,0,3.87,3.33h.08a3.55,3.55,0,0,0,1.07-.2v-.09c.34-2.63-1.82-5-3.95-6.28a19,19,0,0,0-10.16-2.64C138.56,391.72,138.07,391.74,137.62,391.79Zm-10.16,7.83a3.58,3.58,0,0,0,.06,1.17c.34,1.71,1.81,3.12,4.5,4.33a30.94,30.94,0,0,0,5,1.76,18,18,0,0,1-6.27-4.32c-.11.41-.2.81-.29,1.22l-.56-.12c.12-.54.25-1.07.4-1.6a16.15,16.15,0,0,1-2.3-3.44C127.79,399,127.62,399.28,127.46,399.62Zm5.72-3.62a23.16,23.16,0,0,0,3.21,6.7,19.39,19.39,0,0,1-.61-5.2,45.6,45.6,0,0,1,.18-5.41l-.66.25A32.52,32.52,0,0,0,133.18,396Zm29.55-11c.21.36.41.74.6,1.13a17.18,17.18,0,0,1,1.9,7.07,13.59,13.59,0,0,1-2.65,8.34,24.58,24.58,0,0,0,5.23-8.38c.17-.45.33-.89.46-1.32a8.35,8.35,0,0,0-.87-3,9.62,9.62,0,0,0-1.46-2A26.81,26.81,0,0,0,162.73,385Zm-34.42,13a15.51,15.51,0,0,0,2.14,3.38,34.09,34.09,0,0,1,2.12-5.46c-.12-.42-.23-.85-.33-1.28-.05-.23-.1-.46-.14-.69l-.87.57a14.31,14.31,0,0,0-2.86,3.38Zm15-6.53a18.22,18.22,0,0,1,6.23,2.36c2.21,1.37,4.45,3.81,4.24,6.6a3.94,3.94,0,0,0,2.05-3,2.61,2.61,0,0,0-.27-1.46,4.29,4.29,0,0,0-2.44-1.63A45.73,45.73,0,0,0,143.31,391.5Zm-8.79-10.31a9.45,9.45,0,0,0-1.69.6,10,10,0,0,0-4.6,5.33,14,14,0,0,0-1.09,6.47,12.07,12.07,0,0,0,.76,3.43,11.5,11.5,0,0,1,2.86-2.82l.13-.1c.35-.3.71-.57,1.08-.83a17.33,17.33,0,0,1,.51-8.31A12.59,12.59,0,0,1,134.52,381.19Zm-1.91,12.47c.06.29.12.59.19.88l.15.65c.44-.84.91-1.66,1.41-2.45A17.38,17.38,0,0,0,132.61,393.66ZM135.44,381a12,12,0,0,0-2.42,4.18,16.65,16.65,0,0,0-.53,7.78,11.53,11.53,0,0,1,2.52-1.18c.39-.58.8-1.14,1.23-1.69a18.43,18.43,0,0,1,2.43-6.76,10.51,10.51,0,0,1,1.94-3.11,46.13,46.13,0,0,0-4.63.67Zm.62,10.27-.19.26.16,0Zm.71-.95-.15,1,.46-.12c0-.48.08-1,.13-1.43L137,390Zm30.86-2.19a4.39,4.39,0,0,1,.27.47,8.21,8.21,0,0,1,.72,2c.1-.43.18-.84.24-1.25A15.34,15.34,0,0,0,167.63,388.1Zm-30-1.36a19.35,19.35,0,0,0-.66,2.37l.33-.39c.06-.41.12-.81.19-1.22C137.56,387.26,137.61,387,137.66,386.74Zm28.65-.36c.45.3.88.62,1.3,1a15.56,15.56,0,0,1,1.34,1.21,8.44,8.44,0,0,0-.87-4.78,10.36,10.36,0,0,0-2.16-2.62A19.76,19.76,0,0,0,147.31,377l.88.1.56-.07a13.89,13.89,0,0,1,9.81,2.89,14.85,14.85,0,0,1,2.23,2.19c.73.48,1.42.95,2,1.38A22.09,22.09,0,0,1,166.31,386.38Zm-4.1-2.28c.49.23,1,.47,1.46.72-.39-.3-.79-.58-1.17-.84l-.68-.48C162,383.7,162.08,383.89,162.21,384.1Zm-17.89-4.65a34,34,0,0,1,9.09,1.19,51.36,51.36,0,0,1,6.64,2.48l1.18.53c-.26-.38-.54-.75-.82-1.09a36.21,36.21,0,0,0-5.87-3.16,26.2,26.2,0,0,0-6.34-1.71,13.16,13.16,0,0,0-4.87,1.77Zm6.35-1.88a27.78,27.78,0,0,1,4.09,1.3,31.45,31.45,0,0,1,4.1,2.07c-.21-.19-.43-.38-.65-.55A13.25,13.25,0,0,0,150.67,377.57Zm-6.08-.12H144a13.5,13.5,0,0,0-4.87.88,9.83,9.83,0,0,0-3,1.91,44.56,44.56,0,0,1,5.11-.68,13,13,0,0,1,2.43-1.66C144,377.74,144.28,377.59,144.59,377.45Zm1.36,0a19,19,0,0,0-2,.92,15.22,15.22,0,0,0-1.73,1.1h0a13.54,13.54,0,0,1,4.14-2Z" style="opacity:0.2"></path></g></svg>