<svg xmlns="http://www.w3.org/2000/svg" viewBox="0 0 500 500"><g id="freepik--Floor--inject-8"><path d="M409,255.09c-88.41-51-231.28-51-319.12,0S2.55,388.9,91,439.94s231.28,51.05,319.12,0S497.45,306.14,409,255.09Z" style="fill:#f5f5f5"></path></g><g id="freepik--Shadows--inject-8"><path d="M60.13,340.16c-6.2-3.58-16.23-3.58-22.39,0s-6.14,9.39.07,13,16.23,3.58,22.4,0S66.34,343.75,60.13,340.16Z" style="fill:#e0e0e0"></path><path d="M452.73,336.66c-6.54-3.77-17.11-3.77-23.6,0s-6.47,9.9.07,13.67,17.11,3.78,23.61,0S459.27,340.44,452.73,336.66Z" style="fill:#e0e0e0"></path><path d="M443.88,361.44,347,305.6l-85.86,49.62,20.11,11.59c-10.9.84-21.42,3.67-29.77,8.53-20.19,11.73-20.08,30.75.24,42.48s53.15,11.73,73.34,0c8.38-4.87,13.25-11,14.64-17.33L358,411.06Z" style="fill:#e0e0e0"></path><polygon points="311.16 257.48 59.98 404.15 49.34 398 300.51 251.33 311.16 257.48" style="fill:#e0e0e0"></polygon></g><g id="freepik--Plant--inject-8"><path d="M64,319.55,49,320l-15-.44C33.3,329.69,35.28,340,38,345.08h0a6.89,6.89,0,0,0,3,3c4.43,2.56,11.59,2.56,16,0A6.68,6.68,0,0,0,60,345C62.68,339.93,64.64,329.64,64,319.55Z" style="fill:#fff"></path><path d="M59.56,313.4c5.88,3.39,5.92,8.9.07,12.3s-15.36,3.4-21.25,0-5.91-8.91-.07-12.3S53.67,310,59.56,313.4Z" style="fill:#ebebeb"></path><path d="M57.23,314.75c4.59,2.65,4.62,6.95.06,9.6s-12,2.65-16.58,0-4.62-7-.05-9.6S52.64,312.1,57.23,314.75Z" style="fill:#e0e0e0"></path><g style="opacity:0.15"><path d="M57.23,314.75c4.59,2.65,4.62,6.95.06,9.6s-12,2.65-16.58,0-4.62-7-.05-9.6S52.64,312.1,57.23,314.75Z"></path></g><path d="M41.31,288.81c-2.45-3-5.28-5.76-7.52-8.95-1.53-2.18-2.81-4.84-2.17-7.42a6.64,6.64,0,0,1,5.26-4.63,10.07,10.07,0,0,1,7.06,1.57,21.65,21.65,0,0,1,5.34,5.08,53,53,0,0,1,11.16,37.86,8,8,0,0,1-1.39,4.35A4.36,4.36,0,0,1,54.56,318c-4.09-1.22-3.55-6.74-4.22-10a45.89,45.89,0,0,0-4.7-12.76A44,44,0,0,0,41.31,288.81Z" style="fill:#890031"></path><path d="M41.31,288.81c-2.45-3-5.28-5.76-7.52-8.95-1.53-2.18-2.81-4.84-2.17-7.42a6.64,6.64,0,0,1,5.26-4.63,10.07,10.07,0,0,1,7.06,1.57,21.65,21.65,0,0,1,5.34,5.08,53,53,0,0,1,11.16,37.86,8,8,0,0,1-1.39,4.35A4.36,4.36,0,0,1,54.56,318c-4.09-1.22-3.55-6.74-4.22-10a45.89,45.89,0,0,0-4.7-12.76A44,44,0,0,0,41.31,288.81Z" style="opacity:0.2"></path><path d="M54.81,313.92a.36.36,0,0,1-.29-.34c-.28-6.57-2.42-29-17.87-41.71a.36.36,0,0,1,0-.51.35.35,0,0,1,.5,0C52.79,284.23,55,306.91,55.24,313.55a.37.37,0,0,1-.34.38Z" style="fill:#f0f0f0"></path><path d="M57.07,314.63a11,11,0,0,1-5,7,14.1,14.1,0,0,1-7.59,1.27A33.17,33.17,0,0,1,36.75,321c-1.24-.42-2.61-1-2.75-2.51a2.73,2.73,0,0,1,.88-2.16,7.79,7.79,0,0,1,.8-.69.8.8,0,0,0-.42-1.43,18.1,18.1,0,0,1-2.2-.27,9.71,9.71,0,0,1-4.61-2.08,7.58,7.58,0,0,1-2.13-3.16,3,3,0,0,1,.3-3.1,3.39,3.39,0,0,1,1.71-.74q.83-.18,1.65-.3a.74.74,0,0,0,.17-1.41l-2.33-1a4.43,4.43,0,0,1-1.77-1.09,3.87,3.87,0,0,1-.44-3.22c.28-1.45.78-2.86,1.13-4.31a9.28,9.28,0,0,0,.15-4.41,37.28,37.28,0,0,1,13.06.87,9.5,9.5,0,0,1,3.56,1.56,5.25,5.25,0,0,1,1.68,4.8.34.34,0,0,0,.63.18l1.49-2.75a1.77,1.77,0,0,1,2.32-.74,10.8,10.8,0,0,1,3.4,2.68,5.9,5.9,0,0,1,1.46,4.36,37.55,37.55,0,0,1-1.09,6.4.6.6,0,0,0,.93.63l.07-.06a2,2,0,0,1,1.41-.4c1.31.16,1.65,1.49,1.74,2.63A22.36,22.36,0,0,1,57.07,314.63Z" style="fill:#890031"></path><path d="M57.07,314.63a11,11,0,0,1-5,7,14.1,14.1,0,0,1-7.59,1.27A33.17,33.17,0,0,1,36.75,321c-1.24-.42-2.61-1-2.75-2.51a2.73,2.73,0,0,1,.88-2.16,7.79,7.79,0,0,1,.8-.69.8.8,0,0,0-.42-1.43,18.1,18.1,0,0,1-2.2-.27,9.71,9.71,0,0,1-4.61-2.08,7.58,7.58,0,0,1-2.13-3.16,3,3,0,0,1,.3-3.1,3.39,3.39,0,0,1,1.71-.74q.83-.18,1.65-.3a.74.74,0,0,0,.17-1.41l-2.33-1a4.43,4.43,0,0,1-1.77-1.09,3.87,3.87,0,0,1-.44-3.22c.28-1.45.78-2.86,1.13-4.31a9.28,9.28,0,0,0,.15-4.41,37.28,37.28,0,0,1,13.06.87,9.5,9.5,0,0,1,3.56,1.56,5.25,5.25,0,0,1,1.68,4.8.34.34,0,0,0,.63.18l1.49-2.75a1.77,1.77,0,0,1,2.32-.74,10.8,10.8,0,0,1,3.4,2.68,5.9,5.9,0,0,1,1.46,4.36,37.55,37.55,0,0,1-1.09,6.4.6.6,0,0,0,.93.63l.07-.06a2,2,0,0,1,1.41-.4c1.31.16,1.65,1.49,1.74,2.63A22.36,22.36,0,0,1,57.07,314.63Z" style="opacity:0.2"></path><path d="M57.07,314.63a11,11,0,0,1-5,7,14.1,14.1,0,0,1-7.59,1.27A33.17,33.17,0,0,1,36.75,321c-1.24-.42-2.61-1-2.75-2.51a2.73,2.73,0,0,1,.88-2.16,7.79,7.79,0,0,1,.8-.69.8.8,0,0,0-.42-1.43,18.1,18.1,0,0,1-2.2-.27,9.71,9.71,0,0,1-4.61-2.08,7.58,7.58,0,0,1-2.13-3.16,3,3,0,0,1,.3-3.1,3.39,3.39,0,0,1,1.71-.74q.83-.18,1.65-.3a.74.74,0,0,0,.17-1.41l-2.33-1a4.43,4.43,0,0,1-1.77-1.09,3.87,3.87,0,0,1-.44-3.22c.28-1.45.78-2.86,1.13-4.31a9.28,9.28,0,0,0,.15-4.41,37.28,37.28,0,0,1,13.06.87,9.5,9.5,0,0,1,3.56,1.56,5.25,5.25,0,0,1,1.68,4.8.34.34,0,0,0,.63.18l1.49-2.75a1.77,1.77,0,0,1,2.32-.74,10.8,10.8,0,0,1,3.4,2.68,5.9,5.9,0,0,1,1.46,4.36,37.55,37.55,0,0,1-1.09,6.4.6.6,0,0,0,.93.63l.07-.06a2,2,0,0,1,1.41-.4c1.31.16,1.65,1.49,1.74,2.63A22.36,22.36,0,0,1,57.07,314.63Z" style="fill:#fff;opacity:0.2"></path><path d="M50.15,321.23a53.21,53.21,0,0,0-3.51-10.18.35.35,0,0,0-.13-.26l-.24-.54a33.11,33.11,0,0,1,3.47-11.65.36.36,0,1,0-.62-.35,33.55,33.55,0,0,0-3.42,10.83,47.76,47.76,0,0,0-15-18,.36.36,0,1,0-.41.59c7.55,5.25,12.32,12.54,15.21,18.58A21.83,21.83,0,0,0,33,308.54a.35.35,0,0,0-.29.41.38.38,0,0,0,.29.29h.13c.07,0,6.9-1.26,12.81,2.05a51.53,51.53,0,0,1,3.48,10.08.38.38,0,0,0,.29.28.33.33,0,0,0,.14,0A.36.36,0,0,0,50.15,321.23Z" style="fill:#f0f0f0"></path><path d="M456.8,314.94,441,315.4l-15.84-.46c-.68,10.69,1.41,21.59,4.29,26.91h0a7.26,7.26,0,0,0,3.13,3.19c4.68,2.69,12.22,2.69,16.87,0a7,7,0,0,0,3.13-3.28C455.41,336.41,457.48,325.58,456.8,314.94Z" style="fill:#fff"></path><path d="M452.13,308.45c6.2,3.58,6.23,9.39.07,13s-16.19,3.58-22.39,0-6.24-9.39-.07-13S445.92,304.87,452.13,308.45Z" style="fill:#ebebeb"></path><path d="M449.67,309.88c4.84,2.79,4.87,7.32.06,10.12s-12.63,2.79-17.47,0-4.86-7.33-.06-10.12S444.83,307.08,449.67,309.88Z" style="fill:#e0e0e0"></path><g style="opacity:0.15"><path d="M449.67,309.88c4.84,2.79,4.87,7.32.06,10.12s-12.63,2.79-17.47,0-4.86-7.33-.06-10.12S444.83,307.08,449.67,309.88Z"></path></g><path d="M467,247.37c-35.68,11.69-36,35.56-28,52.56,2,3.44,8.17,5.28,13.51-15.86l-9.37,1.21,10.92-5.54,2.84-8.48-9.11.68,11.56-4.87A171.38,171.38,0,0,1,467,247.37Z" style="fill:#890031"></path><path d="M467,247.37c-35.68,11.69-36,35.56-28,52.56,2,3.44,8.17,5.28,13.51-15.86l-9.37,1.21,10.92-5.54,2.84-8.48-9.11.68,11.56-4.87A171.38,171.38,0,0,1,467,247.37Z" style="opacity:0.2"></path><path d="M467,247.37c-35.68,11.69-36,35.56-28,52.56,2,3.44,8.17,5.28,13.51-15.86l-9.37,1.21,10.92-5.54,2.84-8.48-9.11.68,11.56-4.87A171.38,171.38,0,0,1,467,247.37Z" style="fill:#fff;opacity:0.2"></path><path d="M456.91,253.34c-18.82,14.28-20.52,30.66-15.2,47.75C439.83,286,437.8,270.82,456.91,253.34Z" style="fill:#fff"></path><path d="M406.56,271.62c35.18,4.95,39.44,27.13,34.78,44.3-1.32,3.54-6.73,6.28-15.22-12.52l8.93-.44L424,299.62l-4.06-7.42,8.6-.89-11.58-2.61A161.38,161.38,0,0,0,406.56,271.62Z" style="fill:#890031"></path><path d="M406.56,271.62c35.18,4.95,39.44,27.13,34.78,44.3-1.32,3.54-6.73,6.28-15.22-12.52l8.93-.44L424,299.62l-4.06-7.42,8.6-.89-11.58-2.61A161.38,161.38,0,0,0,406.56,271.62Z" style="fill:#fff;opacity:0.2"></path><path d="M406.56,271.62c35.18,4.95,39.44,27.13,34.78,44.3-1.32,3.54-6.73,6.28-15.22-12.52l8.93-.44L424,299.62l-4.06-7.42,8.6-.89-11.58-2.61A161.38,161.38,0,0,0,406.56,271.62Z" style="opacity:0.1"></path><path d="M417,275.5c19.89,10.18,24.19,25.14,22.08,41.95C438.29,303.12,437.66,288.61,417,275.5Z" style="fill:#fff"></path><path d="M477.29,279.93c-32.25.53-38.58,20-36.29,36,.79,3.34,5.36,6.41,15.11-9.58l-8-1.4,10.38-1.77L463,297l-7.65-1.76L466,294.17A148,148,0,0,1,477.29,279.93Z" style="fill:#890031"></path><path d="M467.49,282.27c-19.07,6.94-24.62,20-24.6,35.33C445.17,304.77,447.37,291.76,467.49,282.27Z" style="fill:#fff"></path><path d="M477.29,279.93c-32.25.53-38.58,20-36.29,36,.79,3.34,5.36,6.41,15.11-9.58l-8-1.4,10.38-1.77L463,297l-7.65-1.76L466,294.17A148,148,0,0,1,477.29,279.93Z" style="fill:#fff;opacity:0.2"></path></g><g id="freepik--Screen--inject-8"><polygon points="55.15 220.87 55.11 206.89 47.81 202.74 47.85 216.39 47.85 216.39 47.85 216.7 55.15 220.87 55.15 220.87" style="fill:#890031"></polygon><path d="M55.61,382.76l-.46-161.89-7.3-4.17.46,161.59A3,3,0,0,0,49.54,381h0l0,0,0,0,7.19,4.4A3,3,0,0,1,55.61,382.76Z" style="fill:#890031"></path><path d="M55.61,382.76l-.46-161.89-7.3-4.17.46,161.59A3,3,0,0,0,49.54,381h0l0,0,0,0,7.19,4.4A3,3,0,0,1,55.61,382.76Z" style="fill:#fff;opacity:0.2"></path><path d="M59.94,385.23a5.19,5.19,0,0,1-.84.39A5.19,5.19,0,0,0,59.94,385.23Z" style="fill:#455a64"></path><path d="M58.51,385.75a1.16,1.16,0,0,1-.18,0A1.16,1.16,0,0,0,58.51,385.75Z" style="fill:#455a64"></path><path d="M57,385.6h0l0,0Z" style="fill:#455a64"></path><path d="M55.13,206.86l0-8.05a9.5,9.5,0,0,1,4.3-7.46l244-140.85a3.07,3.07,0,0,1,3-.31l-7.2-4.42h0a3,3,0,0,0-3.11.26L52.12,186.87a9.48,9.48,0,0,0-4.3,7.47l0,8h0l0,0v.32l7.3,4.15Z" style="fill:#890031"></path><path d="M55.13,206.86l0-8.05a9.5,9.5,0,0,1,4.3-7.46l244-140.85a3.07,3.07,0,0,1,3-.31l-7.2-4.42h0a3,3,0,0,0-3.11.26L52.12,186.87a9.48,9.48,0,0,0-4.3,7.47l0,8h0l0,0v.32l7.3,4.15Z" style="fill:#fff;opacity:0.30000000000000004"></path><polygon points="55.15 220.87 55.11 206.89 47.81 202.74 47.85 216.39 47.85 216.39 47.85 216.7 55.15 220.87 55.15 220.87" style="opacity:0.2"></polygon><polygon points="55.15 220.87 55.11 206.89 47.81 202.74 47.85 216.39 47.85 216.39 47.85 216.7 55.15 220.87 55.15 220.87" style="fill:#fff;opacity:0.2"></polygon><path d="M303.36,50.5c2.38-1.37,4.32-.26,4.33,2.48l0,8.06L55.13,206.86l0-8.05a9.5,9.5,0,0,1,4.3-7.46Z" style="fill:#890031"></path><path d="M287,63.83c1.27-.74,2.31-.15,2.32,1.32a5.1,5.1,0,0,1-2.31,4c-1.27.73-2.31.14-2.31-1.33A5,5,0,0,1,287,63.83Z" style="fill:#fff"></path><path d="M294.06,59.76c1.27-.74,2.31-.15,2.31,1.32a5.06,5.06,0,0,1-2.3,4c-1.28.73-2.31.14-2.32-1.32A5.07,5.07,0,0,1,294.06,59.76Z" style="fill:#fff"></path><path d="M301.09,55.69c1.28-.73,2.32-.14,2.32,1.32a5,5,0,0,1-2.3,4c-1.28.74-2.31.15-2.32-1.32A5.12,5.12,0,0,1,301.09,55.69Z" style="fill:#fff"></path><path d="M105.93,169.55c.95-.55,1.83-.46,2.29.25l2.29,3.53c.45.7,1.32.81,2.28.26L307.69,61.06l0,14L55.15,220.89l0-14,7.48-4.32a5.64,5.64,0,0,0,2.28-2.89l2.26-6.16a5.65,5.65,0,0,1,2.27-2.88Z" style="fill:#e0e0e0"></path><path d="M307.73,75l.46,161.89a9.54,9.54,0,0,1-4.31,7.46L59.94,385.23c-2.39,1.38-4.33.27-4.33-2.47l-.46-161.89Z" style="fill:#890031"></path><g style="opacity:0.4"><path d="M307.73,75l.46,161.89a9.54,9.54,0,0,1-4.31,7.46L59.94,385.23c-2.39,1.38-4.33.27-4.33-2.47l-.46-161.89Z" style="fill:#fff"></path></g><path d="M297.74,69.66c1.69-1,3.07-.2,3.07,1.75a6.74,6.74,0,0,1-3.05,5.3L84,200.15c-1.69,1-3.07.2-3.08-1.75a6.75,6.75,0,0,1,3.06-5.3Z" style="fill:#fff"></path><path d="M59.19,208.13a.27.27,0,0,1,.31,0c.17.11.15.43,0,.72L58.13,211l3.54-2c.24-.14.44,0,.44.24a1,1,0,0,1-.44.75l-3.54,2,1.36.64c.17.09.19.4,0,.69a.88.88,0,0,1-.32.34.33.33,0,0,1-.3.05l-2.17-1-.08-.09,0,0,0-.18,0-.22,0,0,.07-.18,2.17-3.54A.81.81,0,0,1,59.19,208.13Z" style="fill:#e0e0e0"></path><path d="M66.84,203.71a.34.34,0,0,1,.3,0l2.17,1,.09.1h0l0,.18,0,.21,0,.05-.08.17L67.16,209a.86.86,0,0,1-.3.3.27.27,0,0,1-.31,0c-.16-.1-.16-.42,0-.71l1.34-2.2-3.54,2c-.23.14-.43,0-.43-.25a1,1,0,0,1,.43-.74l3.54-2-1.35-.65c-.18-.08-.19-.39,0-.69A1,1,0,0,1,66.84,203.71Z" style="fill:#e0e0e0"></path><path d="M74.12,199.51a1.84,1.84,0,0,1,1.46-.27l.33-.43a.79.79,0,0,1,.23-.22.4.4,0,0,1,.23-.05c.15,0,.22.18.2.39l-.18,1.33a1,1,0,0,1-.19.45.9.9,0,0,1-.23.21l-.11.05-1,.29a.24.24,0,0,1-.32-.22.81.81,0,0,1,.19-.6l.1-.14a1.38,1.38,0,0,0-.66.2,3.47,3.47,0,0,0-1.55,2.69c0,1,.71,1.38,1.56.89a3.44,3.44,0,0,0,1.37-1.71.92.92,0,0,1,.37-.48.42.42,0,0,1,.21-.06c.21,0,.29.28.17.58a5.21,5.21,0,0,1-2.12,2.66c-1.33.77-2.42.15-2.42-1.38A5.33,5.33,0,0,1,74.12,199.51Z" style="fill:#e0e0e0"></path><g style="opacity:0.30000000000000004"><path d="M59.19,208.13a.27.27,0,0,1,.31,0c.17.11.15.43,0,.72L58.13,211l3.54-2c.24-.14.44,0,.44.24a1,1,0,0,1-.44.75l-3.54,2,1.36.64c.17.09.19.4,0,.69a.88.88,0,0,1-.32.34.33.33,0,0,1-.3.05l-2.17-1-.08-.09,0,0,0-.18,0-.22,0,0,.07-.18,2.17-3.54A.81.81,0,0,1,59.19,208.13Z"></path></g><g style="opacity:0.30000000000000004"><path d="M66.84,203.71a.34.34,0,0,1,.3,0l2.17,1,.09.1h0l0,.18,0,.21,0,.05-.08.17L67.16,209a.86.86,0,0,1-.3.3.27.27,0,0,1-.31,0c-.16-.1-.16-.42,0-.71l1.34-2.2-3.54,2c-.23.14-.43,0-.43-.25a1,1,0,0,1,.43-.74l3.54-2-1.35-.65c-.18-.08-.19-.39,0-.69A1,1,0,0,1,66.84,203.71Z"></path></g><g style="opacity:0.30000000000000004"><path d="M74.12,199.51a1.84,1.84,0,0,1,1.46-.27l.33-.43a.79.79,0,0,1,.23-.22.4.4,0,0,1,.23-.05c.15,0,.22.18.2.39l-.18,1.33a1,1,0,0,1-.19.45.9.9,0,0,1-.23.21l-.11.05-1,.29a.24.24,0,0,1-.32-.22.81.81,0,0,1,.19-.6l.1-.14a1.38,1.38,0,0,0-.66.2,3.47,3.47,0,0,0-1.55,2.69c0,1,.71,1.38,1.56.89a3.44,3.44,0,0,0,1.37-1.71.92.92,0,0,1,.37-.48.42.42,0,0,1,.21-.06c.21,0,.29.28.17.58a5.21,5.21,0,0,1-2.12,2.66c-1.33.77-2.42.15-2.42-1.38A5.33,5.33,0,0,1,74.12,199.51Z"></path></g><g style="opacity:0.6000000000000001"><path d="M212.43,169.74l.22,80.06a15,15,0,0,1-7.47,13L79.08,336a5,5,0,0,1-7.51-4.31l-.22-80.06a15,15,0,0,1,7.47-13l126.1-73.15A5,5,0,0,1,212.43,169.74Z" style="fill:#fff"></path></g><g style="opacity:0.6000000000000001"><path d="M260.44,137.38,260.5,158a4,4,0,0,1-2,3.44l-34.92,20a1.33,1.33,0,0,1-2-1.14l-.05-20.59a4,4,0,0,1,2-3.45l34.92-20A1.32,1.32,0,0,1,260.44,137.38Z" style="fill:#fff"></path></g><polygon points="237.09 153.9 247.96 154.84 237.13 168.3 237.09 153.9" style="fill:#890031"></polygon><g style="opacity:0.30000000000000004"><polygon points="237.09 153.9 247.96 154.84 237.13 168.3 237.09 153.9" style="fill:#fff"></polygon></g><g style="opacity:0.6000000000000001"><path d="M90.71,214.37l0,9.58a1.85,1.85,0,0,1-.92,1.6l-16.24,9.31a.62.62,0,0,1-.93-.53l0-9.57a1.85,1.85,0,0,1,.92-1.61l16.24-9.31A.61.61,0,0,1,90.71,214.37Z" style="fill:#fff"></path></g><polygon points="79.85 222.06 84.91 222.49 79.87 228.75 79.85 222.06" style="fill:#890031"></polygon><g style="opacity:0.30000000000000004"><polygon points="79.85 222.06 84.91 222.49 79.87 228.75 79.85 222.06" style="fill:#fff"></polygon></g><g style="opacity:0.7000000000000001"><polygon points="183.4 162.93 183.42 168.1 168.73 176.58 168.72 171.41 183.4 162.93" style="fill:#fff"></polygon><polygon points="211.57 146.66 211.58 151.84 192 163.14 191.99 157.97 211.57 146.66" style="fill:#fff"></polygon><polygon points="268.19 113.97 268.2 119.15 253.51 127.63 253.5 122.46 268.19 113.97" style="fill:#fff"></polygon><polygon points="296.36 97.71 296.37 102.88 276.79 114.19 276.77 109.02 296.36 97.71" style="fill:#fff"></polygon><polygon points="243.42 128.28 243.44 133.45 220.06 146.94 220.05 141.77 243.42 128.28" style="fill:#fff"></polygon></g><polygon points="290.36 121.52 290.37 126.1 265.42 140.35 265.4 135.77 290.36 121.52" style="fill:#fff"></polygon><polygon points="283.69 132.63 283.7 135.98 265.41 146.43 265.4 143.07 283.69 132.63" style="fill:#fff"></polygon><polygon points="276.93 141.5 276.94 144.86 265.41 151.41 265.4 148.05 276.93 141.5" style="fill:#fff"></polygon><g style="opacity:0.6000000000000001"><path d="M260.44,169.76l.06,20.59a4,4,0,0,1-2,3.45l-34.92,20a1.33,1.33,0,0,1-2-1.14l-.05-20.59a4,4,0,0,1,2-3.45l34.92-20A1.32,1.32,0,0,1,260.44,169.76Z" style="fill:#fff"></path></g><polygon points="237.09 186.28 247.96 187.22 237.13 200.68 237.09 186.28" style="fill:#890031"></polygon><g style="opacity:0.30000000000000004"><polygon points="237.09 186.28 247.96 187.22 237.13 200.68 237.09 186.28" style="fill:#fff"></polygon></g><polygon points="295.67 150.95 295.68 155.53 265.42 172.73 265.4 168.15 295.67 150.95" style="fill:#fff"></polygon><polygon points="288.25 162.38 288.25 165.74 265.41 178.81 265.4 175.45 288.25 162.38" style="fill:#fff"></polygon><polygon points="276.93 173.89 276.94 177.25 265.41 183.79 265.4 180.44 276.93 173.89" style="fill:#fff"></polygon><g style="opacity:0.6000000000000001"><path d="M260.44,202.14l.06,20.59a4,4,0,0,1-2,3.45l-34.92,20a1.33,1.33,0,0,1-2-1.14l-.05-20.59a4,4,0,0,1,2-3.45l34.92-20A1.32,1.32,0,0,1,260.44,202.14Z" style="fill:#fff"></path></g><polygon points="237.09 218.66 247.96 219.6 237.13 233.06 237.09 218.66" style="fill:#890031"></polygon><g style="opacity:0.30000000000000004"><polygon points="237.09 218.66 247.96 219.6 237.13 233.06 237.09 218.66" style="fill:#fff"></polygon></g><polygon points="292.38 185.15 292.39 189.73 265.42 205.12 265.4 200.53 292.38 185.15" style="fill:#fff"></polygon><polygon points="278.24 200.57 278.25 203.93 265.41 211.19 265.4 207.83 278.24 200.57" style="fill:#fff"></polygon><polygon points="286 201.05 286 204.41 265.41 216.18 265.4 212.82 286 201.05" style="fill:#fff"></polygon><g style="opacity:0.6000000000000001"><path d="M260.44,234.52l.06,20.59a4,4,0,0,1-2,3.45l-34.92,20a1.33,1.33,0,0,1-2-1.14l-.05-20.59a4,4,0,0,1,2-3.45l34.92-20A1.32,1.32,0,0,1,260.44,234.52Z" style="fill:#fff"></path></g><polygon points="237.09 251.05 247.96 251.98 237.13 265.44 237.09 251.05" style="fill:#890031"></polygon><g style="opacity:0.30000000000000004"><polygon points="237.09 251.05 247.96 251.98 237.13 265.44 237.09 251.05" style="fill:#fff"></polygon></g><polygon points="295.94 215.57 295.95 220.16 265.42 237.5 265.4 232.91 295.94 215.57" style="fill:#fff"></polygon><polygon points="283.69 229.77 283.7 233.13 265.41 243.57 265.4 240.21 283.69 229.77" style="fill:#fff"></polygon><polygon points="290.37 230.85 290.38 234.21 265.41 248.56 265.4 245.2 290.37 230.85" style="fill:#fff"></polygon><polygon points="111.69 203.23 111.7 206.59 93.41 217.03 93.4 213.68 111.69 203.23" style="fill:#fff"></polygon><polygon points="104.93 212.11 104.94 215.47 93.41 222.02 93.4 218.66 104.93 212.11" style="fill:#fff"></polygon><path d="M180.89,199.84a2.75,2.75,0,0,0-4.14-2.38l-69.64,40.39A8.29,8.29,0,0,0,103,245v8.36l77.91-45.2Z" style="fill:#890031"></path><path d="M103,253.4l.11,48.86a2.76,2.76,0,0,0,4.14,2.38l69.64-40.4a8.26,8.26,0,0,0,4.12-7.19l-.1-48.85Z" style="fill:#890031"></path><g style="opacity:0.5"><polygon points="110.08 236.13 104.03 252.8 109.42 249.68 115.47 233 110.08 236.13" style="fill:#fff"></polygon><polygon points="122.92 228.68 116.87 245.35 122.26 242.23 128.31 225.56 122.92 228.68" style="fill:#fff"></polygon><polygon points="135.76 221.23 129.71 237.91 135.1 234.78 141.15 218.11 135.76 221.23" style="fill:#fff"></polygon><polygon points="148.59 213.79 142.54 230.46 147.93 227.33 153.98 210.66 148.59 213.79" style="fill:#fff"></polygon><polygon points="161.43 206.34 155.38 223.01 160.77 219.89 166.82 203.21 161.43 206.34" style="fill:#fff"></polygon><path d="M176.75,197.46l-2.48,1.43-6.05,16.68,5.39-3.13,5.5-15.16A2.71,2.71,0,0,0,176.75,197.46Z" style="fill:#fff"></path></g><polygon points="162.64 249.71 143.25 237.71 124 272.01 134.73 265.82 134.8 288.66 151.97 278.7 151.9 255.9 162.64 249.71" style="fill:#fff;opacity:0.9"></polygon><polygon points="151.06 308.04 181.57 290.43 181.56 286.56 151.05 304.18 151.06 308.04" style="fill:#fff"></polygon><polygon points="194.47 279.11 185.84 284.09 185.85 287.95 194.48 282.97 194.47 279.11" style="fill:#fff"></polygon><polygon points="130.73 329.35 130.72 325.49 122.08 330.47 122.1 334.33 130.73 329.35" style="fill:#fff"></polygon><polygon points="146.54 306.78 104.9 330.82 104.91 334.68 146.55 310.64 146.54 306.78" style="fill:#fff"></polygon><polygon points="99.02 338.08 99.01 334.22 71.75 349.96 71.76 353.82 99.02 338.08" style="fill:#fff"></polygon><polygon points="115.61 338.08 115.6 334.22 71.78 359.52 71.79 363.38 115.61 338.08" style="fill:#fff"></polygon><polygon points="137.24 321.73 137.25 325.59 165.67 309.18 165.67 305.31 137.24 321.73" style="fill:#fff"></polygon></g><g id="freepik--Clouds--inject-8"><path d="M427.16,154.1c-4.61-2.67-8.51-1.36-9.75,2.78a13.7,13.7,0,0,0-5-5.55c-3.61-2.09-6.56-.41-6.57,3.74V157l-4.85-2.8c-2.54-1.46-4.59-.29-4.6,2.62a10,10,0,0,0,4.57,7.91l41.09,23.73c2.54,1.46,4.6.29,4.6-2.62a10,10,0,0,0-4.57-7.91l-4.85-2.81v-3.5C437.28,165.16,432.76,157.33,427.16,154.1Z" style="fill:#e6e6e6"></path><polygon points="419.4 159.83 425.54 171.07 421.83 168.93 421.81 177.24 416.9 174.4 416.92 166.09 413.21 163.95 419.4 159.83" style="fill:#890031"></polygon><polygon points="421.83 178.4 421.82 181.57 416.91 178.74 416.92 175.56 421.83 178.4" style="fill:#890031"></polygon><polygon points="421.83 182.85 421.82 184.44 416.91 181.6 416.92 180.01 421.83 182.85" style="fill:#890031"></polygon><polygon points="421.83 185.5 421.82 186.46 416.91 183.63 416.92 182.67 421.83 185.5" style="fill:#890031"></polygon><g style="opacity:0.2"><polygon points="419.4 159.83 425.54 171.07 421.83 168.93 421.81 177.24 416.9 174.4 416.92 166.09 413.21 163.95 419.4 159.83" style="fill:#fff"></polygon><polygon points="421.83 178.4 421.82 181.57 416.91 178.74 416.92 175.56 421.83 178.4" style="fill:#fff"></polygon><polygon points="421.83 182.85 421.82 184.44 416.91 181.6 416.92 180.01 421.83 182.85" style="fill:#fff"></polygon><polygon points="421.83 185.5 421.82 186.46 416.91 183.63 416.92 182.67 421.83 185.5" style="fill:#fff"></polygon></g><path d="M367.1,76.6c-6.82-3.94-12.59-2-14.42,4.11a20.32,20.32,0,0,0-7.38-8.21c-5.34-3.08-9.7-.6-9.72,5.54v2.82l-7.18-4.14c-3.75-2.16-6.79-.42-6.81,3.88a14.91,14.91,0,0,0,6.76,11.71l60.83,35.12c3.74,2.16,6.8.43,6.81-3.88a14.91,14.91,0,0,0-6.77-11.71L382,107.69l0-5.19C382.08,93,375.39,81.38,367.1,76.6Z" style="fill:#e6e6e6"></path><polygon points="355.62 85.09 364.71 101.72 359.22 98.55 359.18 110.84 351.92 106.65 351.95 94.36 346.45 91.18 355.62 85.09" style="fill:#890031"></polygon><polygon points="359.22 112.56 359.21 117.27 351.94 113.07 351.95 108.37 359.22 112.56" style="fill:#890031"></polygon><polygon points="359.22 119.16 359.21 121.51 351.94 117.31 351.95 114.96 359.22 119.16" style="fill:#890031"></polygon><polygon points="359.22 123.08 359.21 124.5 351.94 120.31 351.95 118.89 359.22 123.08" style="fill:#890031"></polygon><g style="opacity:0.2"><polygon points="355.62 85.09 364.71 101.72 359.22 98.55 359.18 110.84 351.92 106.65 351.95 94.36 346.45 91.18 355.62 85.09" style="fill:#fff"></polygon><polygon points="359.22 112.56 359.21 117.27 351.94 113.07 351.95 108.37 359.22 112.56" style="fill:#fff"></polygon><polygon points="359.22 119.16 359.21 121.51 351.94 117.31 351.95 114.96 359.22 119.16" style="fill:#fff"></polygon><polygon points="359.22 123.08 359.21 124.5 351.94 120.31 351.95 118.89 359.22 123.08" style="fill:#fff"></polygon></g><path d="M114.59,78.65c7.07-4.09,13-2.09,15,4.27a21,21,0,0,1,7.64-8.52c5.55-3.2,10.06-.62,10.08,5.75v2.92l7.44-4.3c3.89-2.24,7-.43,7.06,4a15.45,15.45,0,0,1-7,12.14L91.7,131.35c-3.89,2.25-7,.45-7.06-4a15.44,15.44,0,0,1,7-12.15l7.45-4.3,0-5.38C99.05,95.63,106,83.61,114.59,78.65Z" style="fill:#e6e6e6"></path><polygon points="125.75 135.29 134.73 118.87 129.31 122 129.27 109.86 122.1 114 122.13 126.14 116.7 129.28 125.75 135.29" style="fill:#890031"></polygon><polygon points="129.31 108.16 129.3 103.52 122.12 107.66 122.14 112.31 129.31 108.16" style="fill:#890031"></polygon><polygon points="129.31 101.65 129.3 99.33 122.12 103.48 122.14 105.8 129.31 101.65" style="fill:#890031"></polygon><polygon points="129.31 97.78 129.3 96.37 122.12 100.52 122.14 101.92 129.31 97.78" style="fill:#890031"></polygon><g style="opacity:0.2"><polygon points="125.75 135.29 134.73 118.87 129.31 122 129.27 109.86 122.1 114 122.13 126.14 116.7 129.28 125.75 135.29" style="fill:#fff"></polygon><polygon points="129.31 108.16 129.3 103.52 122.12 107.66 122.14 112.31 129.31 108.16" style="fill:#fff"></polygon><polygon points="129.31 101.65 129.3 99.33 122.12 103.48 122.14 105.8 129.31 101.65" style="fill:#fff"></polygon><polygon points="129.31 97.78 129.3 96.37 122.12 100.52 122.14 101.92 129.31 97.78" style="fill:#fff"></polygon></g></g><g id="freepik--Character--inject-8"><path d="M275.16,296.72V360.4l81-46.76V250Zm8.91,5.27,63.09-36.45v42.88l-63.09,36.34Z" style="fill:#890031"></path><polygon points="275.16 296.72 266.16 291.56 266.16 355.24 275.16 360.4 275.16 296.72" style="fill:#890031"></polygon><polygon points="356.16 249.98 347.16 244.81 266.16 291.56 275.16 296.72 356.16 249.98" style="fill:#890031"></polygon><polygon points="356.16 249.98 347.16 244.81 266.16 291.56 275.16 296.72 356.16 249.98" style="fill:#fff;opacity:0.30000000000000004"></polygon><polygon points="338.16 303.25 347.16 308.42 347.16 265.54 338.16 270.74 338.16 303.25" style="fill:#890031"></polygon><polygon points="284.07 344.76 284.07 334.41 338.16 303.25 347.16 308.42 284.07 344.76" style="fill:#890031"></polygon><polygon points="275.16 296.72 266.16 291.56 266.16 355.24 275.16 360.4 275.16 296.72" style="fill:#fff;opacity:0.2"></polygon><polygon points="338.16 303.25 347.16 308.42 347.16 265.54 338.16 270.74 338.16 303.25" style="fill:#fff;opacity:0.2"></polygon><polygon points="284.07 344.76 284.07 334.41 338.16 303.25 347.16 308.42 284.07 344.76" style="fill:#fff;opacity:0.30000000000000004"></polygon><path d="M358.54,235.18h0a3.52,3.52,0,0,0-1.55-1.81l-5.46-3.11a8.9,8.9,0,0,0-8.94,0l-80,47.44a3.48,3.48,0,0,0-1.54,1.82h0a17.62,17.62,0,0,0,.1,14.88,4.06,4.06,0,0,0,1.46,1.55l5.46,3.12a8.93,8.93,0,0,0,8.94,0l80-47.43a3.55,3.55,0,0,0,1.44-1.57h0A17.62,17.62,0,0,0,358.54,235.18Z" style="fill:#455a64"></path><path d="M277,287l80-47.43a3.57,3.57,0,0,0,1.54-4.37h0a17.62,17.62,0,0,1-.1,14.88h0a3.55,3.55,0,0,1-1.44,1.57l-80,47.43a8.75,8.75,0,0,1-4.71,1.19V288.17A8.75,8.75,0,0,0,277,287Z" style="opacity:0.30000000000000004"></path><path d="M261,279.53h0a3.57,3.57,0,0,0,1.55,4.35L268,287a8.79,8.79,0,0,0,4.23,1.18v12.08a8.89,8.89,0,0,1-4.23-1.17L262.57,296a4.06,4.06,0,0,1-1.46-1.55A17.62,17.62,0,0,1,261,279.53Z" style="opacity:0.2"></path><path d="M419.94,330h0a3.54,3.54,0,0,0-1.54-1.81l-64.22-37.08a8.93,8.93,0,0,0-8.94,0l-63.76,37.05a3.54,3.54,0,0,0-1.55,1.82h0c-1.84,3.37-2.45,18.19.1,23.07a4,4,0,0,0,1.46,1.55l64.22,37.08a8.93,8.93,0,0,0,8.94,0l63.75-37.05a3.55,3.55,0,0,0,1.44-1.57h0C422.39,348.19,421.78,333.37,419.94,330Z" style="fill:#455a64"></path><path d="M419.94,330h0a3.54,3.54,0,0,0-1.54-1.81l-64.22-37.08a8.93,8.93,0,0,0-8.94,0l-63.76,37.05a3.54,3.54,0,0,0-1.55,1.82h0c-1.84,3.37-2.45,18.19.1,23.07a4,4,0,0,0,1.46,1.55l64.22,37.08a8.93,8.93,0,0,0,8.94,0l63.75-37.05a3.55,3.55,0,0,0,1.44-1.57h0C422.39,348.19,421.78,333.37,419.94,330Z" style="opacity:0.1"></path><path d="M354.65,371.41l63.75-37.05a3.54,3.54,0,0,0,1.54-4.36h0c1.84,3.37,2.45,18.19-.1,23.07h0a3.55,3.55,0,0,1-1.44,1.57l-63.75,37.05a9,9,0,0,1-4.71,1.19V372.61A8.88,8.88,0,0,0,354.65,371.41Z" style="opacity:0.30000000000000004"></path><path d="M279.93,330h0a3.57,3.57,0,0,0,1.56,4.35l64.22,37.08a9,9,0,0,0,4.23,1.18v20.27a8.87,8.87,0,0,1-4.23-1.18l-64.22-37.08a4,4,0,0,1-1.46-1.55C277.48,348.19,278.09,333.37,279.93,330Z" style="opacity:0.2"></path><path d="M419.94,307.52h0a3.54,3.54,0,0,0-1.54-1.81l-64.22-37.08a8.93,8.93,0,0,0-8.94,0L281.48,305.7a3.56,3.56,0,0,0-1.55,1.83h0c-1.84,3.37-2.45,18.19.1,23.07a4.05,4.05,0,0,0,1.46,1.56l64.22,37.07a8.9,8.9,0,0,0,8.94,0l63.75-37a3.55,3.55,0,0,0,1.44-1.57h0C422.39,325.71,421.78,310.89,419.94,307.52Z" style="fill:#455a64"></path><path d="M419.94,307.52h0a3.54,3.54,0,0,0-1.54-1.81l-64.22-37.08a8.93,8.93,0,0,0-8.94,0L281.48,305.7a3.56,3.56,0,0,0-1.55,1.83h0c-1.84,3.37-2.45,18.19.1,23.07a4.05,4.05,0,0,0,1.46,1.56l64.22,37.07a8.9,8.9,0,0,0,8.94,0l63.75-37a3.55,3.55,0,0,0,1.44-1.57h0C422.39,325.71,421.78,310.89,419.94,307.52Z" style="opacity:0.1"></path><path d="M357.35,203.85h0l0,0Z" style="fill:#ffa8a7"></path><path d="M433.42,232,372.7,196.92a3.58,3.58,0,0,0-1.77-.49h-.3c-5.55,0-9.9,3.36-13.12,7.24l-.14.16,0,0a3.79,3.79,0,0,0-.7,1.37L339.24,270.1a8.61,8.61,0,0,0,4,9.71L404,314.86a3.69,3.69,0,0,0,2.14.49h0c6.95-.71,11-5,13.08-7.28a3.63,3.63,0,0,0,.83-1.52l17.42-64.88A8.64,8.64,0,0,0,433.42,232Z" style="fill:#455a64"></path><path d="M433.42,232,372.7,196.92a3.58,3.58,0,0,0-1.77-.49h-.3c-5.55,0-9.9,3.36-13.12,7.24a3.68,3.68,0,0,1,4.56-.69L422.79,238a8.66,8.66,0,0,1,3.76,4.44l10.6-6.12A8.6,8.6,0,0,0,433.42,232Z" style="opacity:0.1"></path><path d="M426.55,242.47a8.67,8.67,0,0,1,.26,5.27l-17.42,64.88a3.68,3.68,0,0,1-3.28,2.73h0c6.95-.71,11-5,13.08-7.28a3.63,3.63,0,0,0,.83-1.52l17.42-64.88a8.64,8.64,0,0,0-.29-5.33Z" style="opacity:0.2"></path><path d="M339.24,270.1l17.41-64.88a3.79,3.79,0,0,1,.7-1.37h0l0,0,.14-.16c3.22-3.88,7.57-7.19,13.12-7.24h.3a3.45,3.45,0,0,1,1.77.49L433.42,232a8.65,8.65,0,0,1,1.22.86l0,0a8.85,8.85,0,0,1,1,1v0a8.48,8.48,0,0,1,1.46,2.47h0a8.18,8.18,0,0,1,.38,1.28h0c0,.21.08.43.11.64a.07.07,0,0,0,0,.05c0,.21,0,.41,0,.61a.57.57,0,0,1,0,.13c0,.18,0,.36,0,.55s0,.14,0,.21l0,.47c0,.12,0,.23-.05.35s0,.23-.05.34-.09.46-.15.69L420,306.56a3.63,3.63,0,0,1-.83,1.52c-2,2.27-6.13,6.57-13.08,7.28h0a3.69,3.69,0,0,1-2.14-.49l-60.71-35.05A8.61,8.61,0,0,1,339.24,270.1Z" style="opacity:0.1"></path><path d="M354.65,348.94l63.75-37.06a3.54,3.54,0,0,0,1.54-4.36h0c1.84,3.37,2.45,18.19-.1,23.07h0a3.55,3.55,0,0,1-1.44,1.57l-63.75,37a8.87,8.87,0,0,1-4.71,1.19V350.13A9,9,0,0,0,354.65,348.94Z" style="opacity:0.30000000000000004"></path><path d="M279.93,307.52h0a3.56,3.56,0,0,0,1.56,4.34L345.71,349a9,9,0,0,0,4.23,1.18V370.4a8.87,8.87,0,0,1-4.23-1.18l-64.22-37.07a4.05,4.05,0,0,1-1.46-1.56C277.48,325.71,278.09,310.89,279.93,307.52Z" style="opacity:0.2"></path><path d="M301.91,353.46a66.54,66.54,0,0,1,1.15,10.78l2.56-1a6.61,6.61,0,0,1,7.11,1.62l.13.13a2.57,2.57,0,0,0,3.56.16h0a2.55,2.55,0,0,0,.88-1.86l.34-10.89Z" style="fill:#ffa8a7"></path><path d="M311.79,393.94c-5.31,5.68-15.09,10.64-22.2,5.8l.8,1.81c7.11,4.84,16.88-.12,22.2-5.8s1.86-9.62,6.64-14.66a17.24,17.24,0,0,0,4.13-6.14c-.21-.54-.42-1.25-.67-2.06a21.64,21.64,0,0,1-4.26,6.39C313.65,384.32,317.1,388.26,311.79,393.94Z" style="fill:#f5f5f5"></path><path d="M320.08,367a10.25,10.25,0,0,1-1.67-3.88,2.31,2.31,0,0,0-1.05-1.58l-.06,1.83a2.58,2.58,0,0,1-4.44,1.7l-.13-.13a6.61,6.61,0,0,0-7.11-1.62l-2.6,1a2,2,0,0,0-1.29,1.91c.17,7.45-3.31,17.35-7,22.78-3.75,1.55-7,6.67-5.34,10.42l.16.37c7.11,4.84,16.89-.12,22.2-5.8s1.86-9.62,6.64-14.66a21.64,21.64,0,0,0,4.26-6.39A23.52,23.52,0,0,0,320.08,367Z" style="fill:#890031"></path><path d="M309.69,377.71a.91.91,0,0,0,.83-1.61,10.35,10.35,0,0,0-10.2,0c-.16.58-.32,1.17-.5,1.75A10,10,0,0,1,309.69,377.71Z" style="fill:#fff"></path><path d="M311,373.68a.89.89,0,0,0,1.2-.4.91.91,0,0,0-.37-1.21,10.87,10.87,0,0,0-10.61.09c-.11.6-.24,1.21-.37,1.82C304,372.35,307.07,371.7,311,373.68Z" style="fill:#fff"></path><path d="M308.25,381.72a.92.92,0,0,0,1.21-.41.9.9,0,0,0-.37-1.2,10.34,10.34,0,0,0-10-.1c-.22.63-.46,1.25-.7,1.86A9.94,9.94,0,0,1,308.25,381.72Z" style="fill:#fff"></path><path d="M294.77,389c-3.75,1.55-7,6.67-5.34,10.42l.16.37c7,4.77,16.59,0,22-5.55C307.07,385.42,297.72,387.61,294.77,389Z" style="fill:#fff"></path><path d="M306.68,385.63a.91.91,0,0,0,.84-1.61,10.37,10.37,0,0,0-10-.09c-.31.7-.64,1.36-1,2C299.63,384.3,302.75,383.65,306.68,385.63Z" style="fill:#fff"></path><path d="M290.75,375.11a66.19,66.19,0,0,1-3.3,10.34l2.73.15A6.61,6.61,0,0,1,296,390l.06.17a2.58,2.58,0,0,0,3.19,1.59h0a2.61,2.61,0,0,0,1.56-1.35l4.71-9.83Z" style="fill:#ffa8a7"></path><path d="M283.45,416.14c-7.16,3.05-18.11,3.65-22.65-3.65v2c4.54,7.3,15.49,6.71,22.65,3.65s5.58-8,12-10.72a17.43,17.43,0,0,0,6.26-3.95c0-.58.12-1.31.22-2.16a21.54,21.54,0,0,1-6.48,4.13C289,408.09,290.6,413.08,283.45,416.14Z" style="fill:#f5f5f5"></path><path d="M301.92,394.8a10.19,10.19,0,0,1,0-4.22,2.26,2.26,0,0,0-.33-1.87l-.79,1.65a2.61,2.61,0,0,1-1.56,1.35,2.58,2.58,0,0,1-3.19-1.59L296,390a6.61,6.61,0,0,0-5.85-4.35l-2.77-.15a2,2,0,0,0-2,1.23c-2.85,6.88-10,14.52-15.56,18-4.06-.1-9.09,3.27-9.09,7.37v.41c4.54,7.3,15.49,6.7,22.65,3.65s5.58-8.05,12-10.73a21.54,21.54,0,0,0,6.48-4.13A23.18,23.18,0,0,0,301.92,394.8Z" style="fill:#890031"></path><path d="M288.07,400.44a.9.9,0,0,0,1.27.12.89.89,0,0,0,.15-1.25,10.38,10.38,0,0,0-9.34-4.11c-.38.48-.77.94-1.17,1.4A10,10,0,0,1,288.07,400.44Z" style="fill:#fff"></path><path d="M290.9,397.29a.91.91,0,0,0,1.41-1.14,10.91,10.91,0,0,0-9.75-4.21c-.34.51-.7,1-1.07,1.53C285,393.22,288.1,393.88,290.9,397.29Z" style="fill:#fff"></path><path d="M285.14,403.53a.91.91,0,0,0,1.42-1.14,10.38,10.38,0,0,0-9.1-4.12c-.46.49-.92,1-1.39,1.42A10,10,0,0,1,285.14,403.53Z" style="fill:#fff"></path><path d="M269.89,404.71c-4.06-.1-9.09,3.27-9.09,7.37v.41c4.48,7.19,15.16,6.71,22.32,3.78C282.57,406.44,273.13,404.67,269.89,404.71Z" style="fill:#fff"></path><path d="M282.13,406.48a.91.91,0,0,0,1.41-1.14,10.36,10.36,0,0,0-9.11-4.12c-.58.51-1.14,1-1.71,1.44C276.22,402.41,279.34,403.07,282.13,406.48Z" style="fill:#fff"></path><path d="M332.76,282.09,297,302a17.75,17.75,0,0,0-8.8,18.74l6.94,37.41-5.69,18.11c4.91,6.59,16.2,6.92,16.2,6.92,6.29-12.62,10.91-18,14.49-28.56s6-17.88,6-17.88l29.72-8.13a35.2,35.2,0,0,0,25.76-30c.51-4.49.53-7.56.53-7.56Z" style="fill:#890031"></path><path d="M332.76,282.09,297,302a17.75,17.75,0,0,0-8.8,18.74l6.94,37.41-5.69,18.11c4.91,6.59,16.2,6.92,16.2,6.92,6.29-12.62,10.91-18,14.49-28.56s6-17.88,6-17.88l29.72-8.13a35.2,35.2,0,0,0,25.76-30c.51-4.49.53-7.56.53-7.56Z" style="opacity:0.4"></path><path d="M333,292.15a17,17,0,0,0,4,10.91l-25.26,15.81A18.19,18.19,0,0,0,304,329l-8.94,29.23,8.07-32.55a14.73,14.73,0,0,1,6.56-9l23.33-14.42C330.67,296.24,333,292.15,333,292.15Z" style="opacity:0.2"></path><path d="M358,307.05a1.31,1.31,0,0,1,0,.48v0a2.16,2.16,0,0,1-.19.37s0,0,0,0a3.45,3.45,0,0,1-.32.36,0,0,0,0,0,0,0,3.23,3.23,0,0,1-.49.34l-26.19,15.23a5.67,5.67,0,0,1-.75.33l-.29.08-.38.1-.47.08h-.11a4.58,4.58,0,0,1-.64,0H328a4.49,4.49,0,0,1-.64,0h-.09a6,6,0,0,1-.61-.1l-.11,0a4.64,4.64,0,0,1-.53-.16l-.1,0a6.11,6.11,0,0,1-.58-.27l-43.21-25a3.23,3.23,0,0,1-.49-.34l-.13-.14a2.73,2.73,0,0,1-.23-.25c0-.05,0-.11-.08-.16a2,2,0,0,1-.13-.25c0-.06,0-.12,0-.18a2,2,0,0,1,0-.24v1.53a2.17,2.17,0,0,0,0,.25c0,.06,0,.12,0,.17a2,2,0,0,0,.13.25l.08.16a2.73,2.73,0,0,0,.23.25,1.79,1.79,0,0,0,.13.14,3.25,3.25,0,0,0,.49.35l43.21,24.95a6.11,6.11,0,0,0,.58.27l.1,0a3.24,3.24,0,0,0,.53.16l.11,0a6,6,0,0,0,.61.11h.09c.21,0,.42,0,.64,0h.1c.21,0,.43,0,.64,0l.11,0,.47-.08.38-.09.29-.09a4.6,4.6,0,0,0,.75-.33l26.19-15.23a2.64,2.64,0,0,0,.49-.34l0,0a3.45,3.45,0,0,0,.32-.36l0,0a1.85,1.85,0,0,0,.19-.37v0a1.39,1.39,0,0,0,0-.35h0v-1.67Z" style="fill:#e0e0e0"></path><path d="M358,307.05a1.31,1.31,0,0,1,0,.48v0a2.16,2.16,0,0,1-.19.37s0,0,0,0a3.45,3.45,0,0,1-.32.36,0,0,0,0,0,0,0,3.23,3.23,0,0,1-.49.34l-26.19,15.23a5.67,5.67,0,0,1-.75.33l-.29.08-.38.1-.47.08h-.11a4.58,4.58,0,0,1-.64,0H328a4.49,4.49,0,0,1-.64,0h-.09a6,6,0,0,1-.61-.1l-.11,0a4.64,4.64,0,0,1-.53-.16l-.1,0a6.11,6.11,0,0,1-.58-.27l-43.21-25a3.23,3.23,0,0,1-.49-.34l-.13-.14a2.73,2.73,0,0,1-.23-.25c0-.05,0-.11-.08-.16a2,2,0,0,1-.13-.25c0-.06,0-.12,0-.18a2,2,0,0,1,0-.24v1.53a2.17,2.17,0,0,0,0,.25c0,.06,0,.12,0,.17a2,2,0,0,0,.13.25l.08.16a2.73,2.73,0,0,0,.23.25,1.79,1.79,0,0,0,.13.14,3.25,3.25,0,0,0,.49.35l43.21,24.95a6.11,6.11,0,0,0,.58.27l.1,0a3.24,3.24,0,0,0,.53.16l.11,0a6,6,0,0,0,.61.11h.09c.21,0,.42,0,.64,0h.1c.21,0,.43,0,.64,0l.11,0,.47-.08.38-.09.29-.09a4.6,4.6,0,0,0,.75-.33l26.19-15.23a2.64,2.64,0,0,0,.49-.34l0,0a3.45,3.45,0,0,0,.32-.36l0,0a1.85,1.85,0,0,0,.19-.37v0a1.39,1.39,0,0,0,0-.35h0v-1.67Z" style="opacity:0.2"></path><path d="M281.07,297.82a2,2,0,0,0,.13.25c0,.05.05.11.08.16a2.73,2.73,0,0,0,.23.25l.13.14a3.23,3.23,0,0,0,.49.34l43.21,25a6.11,6.11,0,0,0,.58.27l.1,0a4.64,4.64,0,0,0,.53.16l.11,0a6,6,0,0,0,.61.1h.09a4.49,4.49,0,0,0,.64,0h.1a4.58,4.58,0,0,0,.64,0h.11l.47-.08.38-.1.29-.08a5.67,5.67,0,0,0,.75-.33l26.19-15.23a3.23,3.23,0,0,0,.49-.34,0,0,0,0,1,0,0,3.45,3.45,0,0,0,.32-.36s0,0,0,0a2.16,2.16,0,0,0,.19-.37v0a1.31,1.31,0,0,0,0-.48,2,2,0,0,0-1.11-1.48l-43.22-24.95a5.93,5.93,0,0,0-5.38,0l-26.19,15.22A1.91,1.91,0,0,0,281,297.4a2,2,0,0,0,0,.24C281.06,297.7,281.05,297.76,281.07,297.82Z" style="fill:#e0e0e0"></path><path d="M284.67,297.4l42,24.24a.68.68,0,0,0,.17.08l.09,0a2.31,2.31,0,0,0,.33.1l.23,0h.16l.4,0h0a2.27,2.27,0,0,0,.43,0l.28,0,.34-.1a1,1,0,0,0,.29-.12l13.5-7.85-43.37-25Z" style="fill:#e0e0e0"></path><path d="M328.09,321.93h0Z" style="fill:#263238"></path><path d="M324.62,290.73l-7.9,4.65a.8.8,0,0,0,0,1.38l11.82,6.82a1.32,1.32,0,0,0,1.32,0l7.9-4.64a.8.8,0,0,0,0-1.38l-11.81-6.82A1.3,1.3,0,0,0,324.62,290.73Z" style="fill:#e0e0e0"></path><path d="M284.67,297.4l42,24.24a.68.68,0,0,0,.17.08l.09,0a2.31,2.31,0,0,0,.33.1l.23,0h.16l.4,0h0a2.27,2.27,0,0,0,.43,0l.28,0,.34-.1a1,1,0,0,0,.29-.12l13.5-7.85-43.37-25Z" style="opacity:0.4"></path><path d="M324.62,290.73l-7.9,4.65a.8.8,0,0,0,0,1.38l11.82,6.82a1.32,1.32,0,0,0,1.32,0l7.9-4.64a.8.8,0,0,0,0-1.38l-11.81-6.82A1.3,1.3,0,0,0,324.62,290.73Z" style="opacity:0.4"></path><path d="M322.46,233.53l-1.95,31.36-20.24,17.45a8.08,8.08,0,0,1-3.73.59l-7.5-.62a4.21,4.21,0,0,0-2.52.59l-4.3,2.6a4.89,4.89,0,0,0-1.14,1L279,289a1.58,1.58,0,0,0,.28,2.31l1.33.94a4.69,4.69,0,0,0,4.85.38l3.33-1.68,6.86.75v1.8l-1.86,1.59a2,2,0,0,0,.05,3h0s4.59-1.36,8.75-8l24.23-10.95a14.84,14.84,0,0,0,8.71-12.82l2.15-45.82-3.35.42A13.56,13.56,0,0,0,322.46,233.53Z" style="fill:#ffa8a7"></path><path d="M337.66,220.49l-3.67.24a13.91,13.91,0,0,0-13,12.76l-1.52,18.91c5.25,6.58,18.92,3.82,18.92,3.82Z" style="fill:#455a64"></path><path d="M337.66,220.49l-3.67.24a13.91,13.91,0,0,0-13,12.76l-1.52,18.91c5.25,6.58,18.92,3.82,18.92,3.82Z" style="fill:#fff;opacity:0.5"></path><path d="M382.65,293.9c-6.35,6.1-36.85,7.22-52.42-7.6,1.5-10.45,1-21.66,0-32.74s-7.47-30.46,4.9-32.71c16.52-3.23,27.31-3,38.35,3.25C385.26,243.73,383.64,273.11,382.65,293.9Z" style="fill:#455a64"></path><path d="M382.65,293.9c-6.35,6.1-36.85,7.22-52.42-7.6,1.5-10.45,1-21.66,0-32.74s-7.47-30.46,4.9-32.71c16.52-3.23,27.31-3,38.35,3.25C385.26,243.73,383.64,273.11,382.65,293.9Z" style="fill:#fff;opacity:0.30000000000000004"></path><path d="M392.61,273l-4.67-17.37-16.38,3.59,3.92,13.47-24,17-8.07,3.4a12.66,12.66,0,0,0-5.35,4.25l-6.59,9.12a.74.74,0,0,0-.07.39,1.26,1.26,0,0,0,2.2.6c1.47-1.67,2.68-3.21,4.21-4.68l-3.88,5.25a1.55,1.55,0,0,0,.48,2.26,6.32,6.32,0,0,0,1.4.61,5.91,5.91,0,0,0,5.46-1.36l5.08-4.66,1.41-.49A21.37,21.37,0,0,0,358,296.81l28.15-10.93A10.78,10.78,0,0,0,392.61,273Z" style="fill:#ffa8a7"></path><path d="M390.5,257.93l-.5-2.3c-5.95-27-10.69-29-18.67-32.67-7.76,6.76-6.46,18.25-6.46,18.25L371.82,262l.21.6A24.22,24.22,0,0,0,390.5,257.93Z" style="fill:#455a64"></path><path d="M390.5,257.93l-.5-2.3c-5.95-27-10.69-29-18.67-32.67-7.76,6.76-6.46,18.25-6.46,18.25L371.82,262l.21.6A24.22,24.22,0,0,0,390.5,257.93Z" style="fill:#fff;opacity:0.5"></path><path d="M334.33,212.72a5.44,5.44,0,0,0,1.76,6.28,8.16,8.16,0,0,0,6.68,1.29,17.12,17.12,0,0,0,6.28-3c1.6-1.14,3.2-2.45,5.14-2.75s3.86.82,3.92,2.78a5.12,5.12,0,0,0,3.71-2.81,4,4,0,0,0,4.39,1.43,4.1,4.1,0,0,0,2.64-3.85,3.92,3.92,0,0,0,5.12-1,7.29,7.29,0,0,1-5-9.79c1.1-2.71,3.83-4.81,3.95-7.73a5.34,5.34,0,0,0-4.62-5.11,6.22,6.22,0,0,0,2.21-7,6.71,6.71,0,0,0-6.28-4.32,2.72,2.72,0,0,0-.11-3.29,4.43,4.43,0,0,0-3.1-1.52,13.15,13.15,0,0,0-3.53.3l-3.8.67c-2.74-4.25-7.69-7.06-12.52-5.6-1.46.45-2.81,1.16-4.24,1.7a8,8,0,0,1-4.46.58,3.86,3.86,0,0,1-3.08-3c-1.71,1.14-2.33,4.17-1.4,6a8.1,8.1,0,0,0-5.17,2.1,5.77,5.77,0,0,0-1.84,5,4.66,4.66,0,0,0,3.57,3.81,9.3,9.3,0,0,0-2.24,9.39,19,19,0,0,0,2.36,4,14.25,14.25,0,0,1,2.17,4.09,5.24,5.24,0,0,1-.58,4.47,3.26,3.26,0,0,1-4.11,1,8.32,8.32,0,0,0,4.3,5.59C328.59,213.54,332.24,213.82,334.33,212.72Z" style="fill:#263238"></path><path d="M357.93,208.94v11.61a5.46,5.46,0,0,1-1.84,4.12,15.53,15.53,0,0,1-11.1,3.78,4,4,0,0,1-2.31-.71,3.06,3.06,0,0,1-.74-3.16,6.08,6.08,0,0,1,.85-1.71,5.23,5.23,0,0,0,.91-2.94v-11Z" style="fill:#ffa8a7"></path><path d="M349.48,218.32a30.64,30.64,0,0,1-5.78,1.14V208.94h14.23v2.48a11.33,11.33,0,0,1-1.16,2A14.1,14.1,0,0,1,349.48,218.32Z" style="opacity:0.2"></path><path d="M343.09,190.32c1.77-.51,3.64-1.44,5.34-.75a9.8,9.8,0,0,1,2.4,1.83,8.26,8.26,0,0,0,5.3,1.88,1.81,1.81,0,0,1,.21.92l-.22,4.85a2.31,2.31,0,0,0,.5,1.91,1.55,1.55,0,0,0,1.75,0,4.47,4.47,0,0,0,1.27-1.36,14,14,0,0,1,2.55-3,4.65,4.65,0,0,1,3.66-1.07c2.1.43,3.34,2.81,3.19,5a6.65,6.65,0,0,1-3.44,5.32,6.57,6.57,0,0,1-6.27-.34c.32,3.82-2.29,7.41-5.57,9.39s-7.15,2.69-10.93,3.36c-2.07.36-4.25.71-6.21,0a7.71,7.71,0,0,1-3.76-3.33,18.33,18.33,0,0,1-1.83-4.76,59.66,59.66,0,0,1-1.5-23.15C333.16,190.14,339.36,191.4,343.09,190.32Z" style="fill:#ffa8a7"></path><polygon points="340.19 198.74 335.83 206.07 341.02 207.05 340.19 198.74" style="fill:#f28f8f"></polygon><path d="M346,209.58l-3.94,1.92a2.59,2.59,0,0,0,3,.85A2.33,2.33,0,0,0,346,209.58Z" style="fill:#f28f8f"></path><path d="M346,209.58l-3.94,1.92a2.59,2.59,0,0,0,3,.85A2.33,2.33,0,0,0,346,209.58Z" style="opacity:0.30000000000000004"></path><path d="M343.71,212.48a2.44,2.44,0,0,0,1.37-.13,2.09,2.09,0,0,0,1.05-2.08,2.42,2.42,0,0,0-1.55.54A2.45,2.45,0,0,0,343.71,212.48Z" style="fill:#f28f8f"></path><path d="M347.71,199a1.49,1.49,0,0,1-3,.3,1.51,1.51,0,0,1,1.34-1.64A1.49,1.49,0,0,1,347.71,199Z" style="fill:#263238"></path><path d="M335.2,199.8a1.49,1.49,0,1,1-3,.3,1.49,1.49,0,0,1,3-.3Z" style="fill:#263238"></path><path d="M333.16,194l-3.06,2.61a2.13,2.13,0,0,1,.4-2.4A2.54,2.54,0,0,1,333.16,194Z" style="fill:#263238"></path><path d="M345.85,192.58l3.52,1.95a2.12,2.12,0,0,0-.87-2.27A2.54,2.54,0,0,0,345.85,192.58Z" style="fill:#263238"></path><path d="M343.36,228.13l2.42-3.1c6.83-.8,10.89-6.84,12.15-8.38h0a2.9,2.9,0,0,1,1.81,1.28l1.25,2c-1,6-8.62,12-11.12,13a15.56,15.56,0,0,0-2.25-4.56A4.42,4.42,0,0,1,343.36,228.13Z" style="fill:#455a64"></path><path d="M343.36,228.13l2.42-3.1c6.83-.8,10.89-6.84,12.15-8.38h0a2.9,2.9,0,0,1,1.81,1.28l1.25,2c-1,6-8.62,12-11.12,13a15.56,15.56,0,0,0-2.25-4.56A4.42,4.42,0,0,1,343.36,228.13Z" style="fill:#fff;opacity:0.5"></path><path d="M346,226.12a13.66,13.66,0,0,1,1.67,2.26,4.7,4.7,0,0,1-2,.41A4.23,4.23,0,0,0,346,226.12Z" style="opacity:0.1"></path><path d="M343.36,228.13c-.83-2.23.35-4.56.35-7.64v-2a8.65,8.65,0,0,1-3.12,3.07,15.32,15.32,0,0,0-2.15,5.43,23.74,23.74,0,0,1,2.64-2.87C341.11,226.81,342.28,227.87,343.36,228.13Z" style="fill:#455a64"></path><path d="M343.36,228.13c-.83-2.23.35-4.56.35-7.64v-2a8.65,8.65,0,0,1-3.12,3.07,15.32,15.32,0,0,0-2.15,5.43,23.74,23.74,0,0,1,2.64-2.87C341.11,226.81,342.28,227.87,343.36,228.13Z" style="fill:#fff;opacity:0.5"></path><path d="M339.68,225.5a8.82,8.82,0,0,1,1.62-3.41,8.29,8.29,0,0,0-.23,2A17.78,17.78,0,0,0,339.68,225.5Z" style="opacity:0.1"></path><path d="M327.78,322.37l-4.47-28.46a5.24,5.24,0,0,0-2.55-3.72l-43.52-25.3a1.3,1.3,0,0,0-1.16-.08h0l-1,.51.35.13a1.35,1.35,0,0,0-.12.78l4.48,28.45a5.21,5.21,0,0,0,2.55,3.72l43.51,25.3a1.19,1.19,0,0,0,.29.12l0,.42,1-.5h0A1.28,1.28,0,0,0,327.78,322.37Z" style="fill:#e0e0e0"></path><path d="M327.78,322.37l-4.47-28.46a5.24,5.24,0,0,0-2.55-3.72l-43.52-25.3a1.3,1.3,0,0,0-1.16-.08h0l-1,.51.35.13a1.35,1.35,0,0,0-.12.78l4.48,28.45a5.21,5.21,0,0,0,2.55,3.72l43.51,25.3a1.19,1.19,0,0,0,.29.12l0,.42,1-.5h0A1.28,1.28,0,0,0,327.78,322.37Z" style="opacity:0.30000000000000004"></path><path d="M319.88,290.63l-43.52-25.31a1.31,1.31,0,0,0-1.95,1.34l4.47,28.45a5.24,5.24,0,0,0,2.55,3.73L325,324.14a1.31,1.31,0,0,0,2-1.34l-4.48-28.45A5.21,5.21,0,0,0,319.88,290.63Z" style="fill:#e0e0e0"></path><path d="M298.79,291.36a9.6,9.6,0,0,1,4.32,6.22c.28,2.22-1.18,3.05-3.29,1.83a9.62,9.62,0,0,1-4.32-6.22C295.22,291,296.69,290.15,298.79,291.36Z" style="fill:#fff"></path><path d="M358.11,344.77v63.68l81-46.77V298ZM367,350l63.09-36.44v42.87L367,392.81Z" style="fill:#890031"></path><polygon points="358.11 344.77 349.11 339.61 349.11 403.29 358.11 408.45 358.11 344.77" style="fill:#890031"></polygon><polygon points="439.11 298.02 430.11 292.86 349.11 339.61 358.11 344.77 439.11 298.02" style="fill:#890031"></polygon><polygon points="439.11 298.02 430.11 292.86 349.11 339.61 358.11 344.77 439.11 298.02" style="fill:#fff;opacity:0.30000000000000004"></polygon><polygon points="421.11 351.3 430.11 356.46 430.11 313.58 421.11 318.79 421.11 351.3" style="fill:#890031"></polygon><polygon points="367.02 392.81 367.02 382.46 421.11 351.3 430.11 356.46 367.02 392.81" style="fill:#890031"></polygon><polygon points="358.11 344.77 349.11 339.61 349.11 403.29 358.11 408.45 358.11 344.77" style="fill:#fff;opacity:0.2"></polygon><polygon points="421.11 351.3 430.11 356.46 430.11 313.58 421.11 318.79 421.11 351.3" style="fill:#fff;opacity:0.2"></polygon><polygon points="367.02 392.81 367.02 382.46 421.11 351.3 430.11 356.46 367.02 392.81" style="fill:#fff;opacity:0.30000000000000004"></polygon><path d="M441.49,283.23h0a3.56,3.56,0,0,0-1.55-1.81l-5.46-3.12a8.93,8.93,0,0,0-8.94,0l-80,47.43a3.5,3.5,0,0,0-1.54,1.83h0a17.6,17.6,0,0,0,.1,14.87,4.05,4.05,0,0,0,1.46,1.56l5.46,3.11a8.93,8.93,0,0,0,8.94,0l80-47.44a3.54,3.54,0,0,0,1.44-1.56h0A17.62,17.62,0,0,0,441.49,283.23Z" style="fill:#455a64"></path><path d="M359.92,335l80-47.44a3.57,3.57,0,0,0,1.54-4.36h0a17.62,17.62,0,0,1-.1,14.88h0a3.54,3.54,0,0,1-1.44,1.56l-80,47.44a9,9,0,0,1-4.71,1.19V336.22A9,9,0,0,0,359.92,335Z" style="opacity:0.30000000000000004"></path><path d="M344,327.58h0a3.56,3.56,0,0,0,1.55,4.35L351,335a8.9,8.9,0,0,0,4.23,1.18V348.3a8.9,8.9,0,0,1-4.23-1.18L345.52,344a4.05,4.05,0,0,1-1.46-1.56A17.6,17.6,0,0,1,344,327.58Z" style="opacity:0.2"></path></g><g id="freepik--Arrows--inject-8"><polygon points="232.04 295.74 243.58 316.84 236.61 312.81 236.56 328.41 227.35 323.08 227.39 307.49 220.42 303.47 232.04 295.74" style="fill:#890031"></polygon><polygon points="236.62 330.59 236.6 336.55 227.38 331.23 227.4 325.27 236.62 330.59" style="fill:#890031"></polygon><polygon points="236.62 338.95 236.6 341.93 227.38 336.61 227.4 333.62 236.62 338.95" style="fill:#890031"></polygon><polygon points="236.62 343.93 236.6 345.73 227.38 340.4 227.4 338.6 236.62 343.93" style="fill:#890031"></polygon><polygon points="406.15 242.44 417.68 263.54 410.71 259.52 410.67 275.11 401.45 269.79 401.5 254.2 394.53 250.18 406.15 242.44" style="fill:#890031"></polygon><polygon points="410.72 277.29 410.7 283.26 401.49 277.94 401.5 271.97 410.72 277.29" style="fill:#890031"></polygon><polygon points="410.72 285.65 410.7 288.63 401.49 283.31 401.5 280.33 410.72 285.65" style="fill:#890031"></polygon><polygon points="410.72 290.63 410.7 292.43 401.49 287.11 401.5 285.31 410.72 290.63" style="fill:#890031"></polygon><polygon points="286.04 180.12 297.58 201.22 290.61 197.2 290.56 212.79 281.35 207.47 281.39 191.88 274.42 187.85 286.04 180.12" style="fill:#890031"></polygon><polygon points="290.62 214.97 290.6 220.93 281.38 215.61 281.4 209.65 290.62 214.97" style="fill:#890031"></polygon><polygon points="290.62 223.33 290.6 226.31 281.38 220.99 281.4 218.01 290.62 223.33" style="fill:#890031"></polygon><polygon points="290.62 228.31 290.6 230.11 281.38 224.79 281.4 222.99 290.62 228.31" style="fill:#890031"></polygon></g></svg>