<svg width="1354" height="512" viewBox="0 0 1354 512" fill="none" xmlns="http://www.w3.org/2000/svg">
<path d="M256 498.8L138.88 426.8C81.0396 390.8 46.5596 333.44 46.5596 273.04V62.08L256 16L465.44 62.08V273.04C465.44 333.44 430.96 390.8 373.12 426.48L256 498.8ZM78.5596 88V273.04C78.5596 322.24 107.36 369.04 155.76 399.28L256 461.2L356.24 399.28C404.24 369.44 433.44 322.24 433.44 273.04V88L256 48.4L78.5596 88Z" fill="white"/>
<path d="M464.936 211.432C464.089 182.984 452.713 159.573 430.677 141.555C410.234 124.85 386.136 115.874 360.762 109.996C326.387 102.03 291.415 99.9079 256.252 100.003C245.763 100.283 235.279 100.248 224.778 100.723C204.372 101.646 184.116 103.537 164.064 107.351C137.181 112.462 111.356 120.414 88.5663 136.235C66.9999 151.212 53.153 171.205 48.6493 197.295C44.9382 218.776 47.6661 239.65 55.0611 259.95C64.9247 287.025 83.689 305.469 110.625 315.685C128.972 322.645 148.055 324.74 167.574 324.951C187.485 325.169 204.974 319.236 220.481 306.863C228.332 300.601 235.227 293.223 243.432 287.394C252.016 281.287 259.203 281.171 267.992 286.969C274.027 290.948 279.181 295.991 284.521 300.798C297.57 312.547 311.982 321.837 329.863 323.905C352.958 326.571 375.674 324.405 397.774 317.009C424.052 308.219 443.317 291.529 454.637 266.122C462.388 248.729 465.497 230.406 464.936 211.432ZM159.868 251.378C130.353 251.378 106.437 223.224 106.437 223.224C106.437 223.224 130.353 195.069 159.868 195.069C189.376 195.069 213.293 223.224 213.293 223.224C213.293 223.224 189.376 251.378 159.868 251.378ZM361.581 251.378C332.073 251.378 308.152 223.224 308.152 223.224C308.152 223.224 332.073 195.069 361.581 195.069C391.089 195.069 415.013 223.224 415.013 223.224C415.013 223.224 391.089 251.378 361.581 251.378Z" fill="white"/>
<path d="M665.16 262.48L617.797 108.186H616.696C616.879 111.86 617.155 117.37 617.522 124.718C617.889 132.065 618.256 139.963 618.623 148.413C618.99 156.678 619.174 164.209 619.174 171.006V262.48H582V65.7552H638.725L685.261 216.192H686.087L735.377 65.7552H792.102V262.48H753.276V169.353C753.276 163.107 753.368 155.944 753.551 147.862C753.918 139.78 754.194 132.157 754.377 124.993C754.744 117.646 755.02 112.135 755.203 108.462H754.102L703.435 262.48H665.16Z" fill="white"/>
<path d="M966.231 262.48L951.912 215.641H880.317L865.998 262.48H821.114L890.506 64.9287H941.448L1011.11 262.48H966.231ZM927.68 134.912C926.762 131.789 925.569 127.84 924.1 123.064C922.631 118.289 921.163 113.421 919.694 108.462C918.226 103.502 917.032 99.1856 916.114 95.5119C915.197 99.1856 913.912 103.778 912.259 109.288C910.791 114.615 909.322 119.758 907.854 124.718C906.569 129.493 905.559 132.891 904.825 134.912L890.781 180.649H941.999L927.68 134.912Z" fill="white"/>
<path d="M1156.07 207.926C1156.07 219.498 1153.23 229.601 1147.54 238.234C1141.85 246.867 1133.59 253.571 1122.76 258.347C1112.11 262.939 1099.07 265.235 1083.65 265.235C1076.86 265.235 1070.16 264.776 1063.55 263.858C1057.13 262.939 1050.89 261.653 1044.83 260C1038.95 258.163 1033.35 255.959 1028.03 253.388V214.539C1037.39 218.58 1047.03 222.345 1056.94 225.835C1067.04 229.141 1077.04 230.795 1086.96 230.795C1093.75 230.795 1099.17 229.876 1103.2 228.039C1107.43 226.203 1110.46 223.723 1112.29 220.6C1114.31 217.478 1115.32 213.896 1115.32 209.855C1115.32 204.895 1113.58 200.671 1110.09 197.181C1106.78 193.691 1102.29 190.476 1096.6 187.537C1090.9 184.415 1084.39 181.108 1077.04 177.618C1072.46 175.414 1067.5 172.843 1062.18 169.904C1056.85 166.781 1051.71 163.016 1046.75 158.607C1041.98 154.015 1038.04 148.505 1034.91 142.076C1031.79 135.647 1030.23 127.932 1030.23 118.932C1030.23 107.176 1032.89 97.1651 1038.22 88.8993C1043.73 80.4499 1051.44 74.021 1061.35 69.6126C1071.45 65.2042 1083.29 63 1096.87 63C1107.15 63 1116.88 64.1939 1126.06 66.5818C1135.42 68.9697 1145.15 72.3678 1155.25 76.7762L1141.76 109.288C1132.76 105.615 1124.68 102.767 1117.52 100.747C1110.36 98.7264 1103.02 97.7161 1095.49 97.7161C1090.35 97.7161 1085.95 98.5427 1082.28 100.196C1078.61 101.849 1075.76 104.145 1073.74 107.084C1071.9 110.023 1070.99 113.513 1070.99 117.554C1070.99 122.146 1072.36 126.095 1075.12 129.401C1077.87 132.524 1082 135.555 1087.51 138.494C1093.02 141.433 1099.9 144.923 1108.16 148.964C1118.26 153.74 1126.79 158.699 1133.77 163.842C1140.93 168.985 1146.44 175.047 1150.29 182.027C1154.15 189.007 1156.07 197.64 1156.07 207.926Z" fill="white"/>
<path d="M1354 262.48H1306.64L1255.14 179.547L1237.52 192.221V262.48H1195.94V65.7552H1237.52V155.852C1240.27 151.995 1243.03 148.137 1245.78 144.28C1248.54 140.422 1251.29 136.565 1254.04 132.708L1307.19 65.7552H1353.45L1284.88 152.821L1354 262.48Z" fill="white"/>
<path d="M684.661 446.163L668.873 405.569H616.921L601.317 446.163H584.612L635.83 314.462H650.699L701.733 446.163H684.661ZM649.231 351.199C648.863 350.219 648.251 348.444 647.395 345.872C646.538 343.301 645.681 340.668 644.825 337.974C644.09 335.157 643.479 333.014 642.989 331.545C642.377 333.994 641.704 336.504 640.97 339.076C640.358 341.525 639.685 343.79 638.95 345.872C638.338 347.954 637.788 349.729 637.298 351.199L622.429 390.875H663.917L649.231 351.199Z" fill="white"/>
<path d="M823.567 446.163H804.292L734.166 337.239H733.431C733.554 339.443 733.676 341.892 733.799 344.586C734.043 347.28 734.227 350.219 734.349 353.403C734.472 356.465 734.594 359.648 734.716 362.955C734.839 366.261 734.9 369.567 734.9 372.874V446.163H719.663V315.013H738.755L808.697 423.57H809.432C809.309 422.101 809.187 420.08 809.065 417.509C808.942 414.815 808.82 411.876 808.697 408.692C808.575 405.385 808.453 402.018 808.33 398.589C808.208 395.16 808.147 391.977 808.147 389.038V315.013H823.567V446.163Z" fill="white"/>
<path d="M893.283 379.486L927.428 315.013H945.234L901.544 395.283V446.163H885.022V396.018L841.331 315.013H859.321L893.283 379.486Z" fill="white"/>
<path d="M1073.9 380.405C1073.9 390.568 1072.61 399.814 1070.04 408.141C1067.47 416.345 1063.62 423.448 1058.48 429.448C1053.46 435.448 1047.16 440.04 1039.57 443.224C1032.1 446.408 1023.41 448 1013.5 448C1003.22 448 994.287 446.408 986.7 443.224C979.112 439.918 972.809 435.326 967.791 429.448C962.774 423.448 959.041 416.284 956.593 407.957C954.146 399.63 952.922 390.385 952.922 380.221C952.922 366.751 955.125 354.995 959.53 344.954C963.936 334.912 970.606 327.075 979.54 321.442C988.597 315.809 999.978 312.993 1013.69 312.993C1026.78 312.993 1037.79 315.809 1046.73 321.442C1055.66 326.953 1062.39 334.79 1066.92 344.954C1071.57 354.995 1073.9 366.812 1073.9 380.405ZM970.361 380.405C970.361 391.426 971.891 400.916 974.951 408.875C978.01 416.835 982.722 422.958 989.086 427.244C995.572 431.53 1003.71 433.673 1013.5 433.673C1023.41 433.673 1031.49 431.53 1037.73 427.244C1044.1 422.958 1048.81 416.835 1051.87 408.875C1054.93 400.916 1056.46 391.426 1056.46 380.405C1056.46 363.873 1053.03 350.954 1046.18 341.647C1039.32 332.218 1028.49 327.504 1013.69 327.504C1003.77 327.504 995.572 329.647 989.086 333.933C982.722 338.096 978.01 344.158 974.951 352.117C971.891 359.955 970.361 369.384 970.361 380.405Z" fill="white"/>
<path d="M1206.85 446.163H1187.58L1117.45 337.239H1116.72C1116.84 339.443 1116.96 341.892 1117.08 344.586C1117.33 347.28 1117.51 350.219 1117.63 353.403C1117.76 356.465 1117.88 359.648 1118 362.955C1118.12 366.261 1118.19 369.567 1118.19 372.874V446.163H1102.95V315.013H1122.04L1191.98 423.57H1192.72C1192.59 422.101 1192.47 420.08 1192.35 417.509C1192.23 414.815 1192.11 411.876 1191.98 408.692C1191.86 405.385 1191.74 402.018 1191.62 398.589C1191.49 395.16 1191.43 391.977 1191.43 389.038V315.013H1206.85V446.163Z" fill="white"/>
<path d="M1315.67 446.163H1242.42V315.013H1315.67V329.524H1258.94V370.486H1312.37V384.813H1258.94V431.652H1315.67V446.163Z" fill="white"/>
</svg>
