<svg width="512" height="512" viewBox="0 0 512 512" fill="none" xmlns="http://www.w3.org/2000/svg">
<path d="M256 498.8L138.88 426.8C81.0396 390.8 46.5596 333.44 46.5596 273.04V62.08L256 16L465.44 62.08V273.04C465.44 333.44 430.96 390.8 373.12 426.48L256 498.8ZM78.5596 88V273.04C78.5596 322.24 107.36 369.04 155.76 399.28L256 461.2L356.24 399.28C404.24 369.44 433.44 322.24 433.44 273.04V88L256 48.4L78.5596 88Z"/>
<path d="M464.936 211.432C464.089 182.984 452.713 159.573 430.677 141.555C410.234 124.85 386.136 115.874 360.762 109.996C326.387 102.03 291.415 99.9079 256.252 100.003C245.763 100.283 235.279 100.248 224.778 100.723C204.372 101.646 184.116 103.537 164.064 107.351C137.181 112.462 111.356 120.414 88.5663 136.235C66.9999 151.212 53.153 171.205 48.6493 197.295C44.9382 218.776 47.6661 239.65 55.0611 259.95C64.9247 287.025 83.689 305.469 110.625 315.685C128.972 322.645 148.055 324.74 167.574 324.951C187.485 325.169 204.974 319.236 220.481 306.863C228.332 300.601 235.227 293.223 243.432 287.394C252.016 281.287 259.203 281.171 267.992 286.969C274.027 290.948 279.181 295.991 284.521 300.798C297.57 312.547 311.982 321.837 329.863 323.905C352.958 326.571 375.674 324.405 397.774 317.009C424.052 308.219 443.317 291.529 454.637 266.122C462.388 248.729 465.497 230.406 464.936 211.432ZM159.868 251.378C130.353 251.378 106.437 223.224 106.437 223.224C106.437 223.224 130.353 195.069 159.868 195.069C189.376 195.069 213.293 223.224 213.293 223.224C213.293 223.224 189.376 251.378 159.868 251.378ZM361.581 251.378C332.073 251.378 308.152 223.224 308.152 223.224C308.152 223.224 332.073 195.069 361.581 195.069C391.089 195.069 415.013 223.224 415.013 223.224C415.013 223.224 391.089 251.378 361.581 251.378Z"/>
</svg>
