<svg xmlns="http://www.w3.org/2000/svg" viewBox="0 0 500 500"><g id="freepik--Floor--inject-4"><path id="freepik--floor--inject-4" d="M84.39,246.52c-91.46,52.81-91.45,138.42,0,191.22s239.75,52.81,331.21,0,91.45-138.41,0-191.22S175.85,193.72,84.39,246.52Z" style="fill:#f5f5f5"></path></g><g id="freepik--Plants--inject-4"><g id="freepik--plants--inject-4"><path d="M455.06,375.25a.42.42,0,0,1-.16,0L450.19,374a.39.39,0,0,1-.28-.26c-.05-.12-4.14-12.38,4.59-29,6.23-11.86,16-19.56,22.19-17.54a6.91,6.91,0,0,1,4.84,4.93,8,8,0,0,1-2.53,7.48c-.48.48-1.24,1.13-2.21,1.94-6,5.06-19.88,16.92-21.39,33.29a.4.4,0,0,1-.17.3A.51.51,0,0,1,455.06,375.25Zm-4.45-1.95,4,1c1.76-16.46,15.66-28.28,21.63-33.36,1-.8,1.7-1.44,2.16-1.9a7.22,7.22,0,0,0,2.31-6.72,6.06,6.06,0,0,0-4.3-4.34c-5.85-1.9-15.17,5.63-21.22,17.15C447.27,360.27,450.13,371.65,450.61,373.3Z" style="fill:#890031"></path><path d="M452.38,374.56h-.05a.39.39,0,0,1-.41-.4c-.35-19.12,12.89-37.55,21.8-41.35a.41.41,0,0,1,.53.21.42.42,0,0,1-.21.54c-8.81,3.75-21.64,22.45-21.31,40.59A.41.41,0,0,1,452.38,374.56Z" style="fill:#890031"></path><path d="M450.35,374a.37.37,0,0,1-.18,0l-3.19-1a.41.41,0,0,1-.27-.27c-.06-.18-5.69-18.46-1.54-43.07,2.11-12.55,9.42-24.78,17.38-29.09,3.83-2.07,7.59-2.34,11.18-.77a6.07,6.07,0,0,1,3.78,3.87c1.32,4.66-3.52,11.59-8.63,18.93-3.59,5.14-7.29,10.45-9,15.14a.4.4,0,0,1-.52.24.41.41,0,0,1-.25-.52c1.73-4.79,5.47-10.14,9.08-15.32,5-7.18,9.73-14,8.52-18.25a5.3,5.3,0,0,0-3.32-3.35,11.47,11.47,0,0,0-10.47.74c-7.76,4.21-14.89,16.2-17,28.51-3.88,23,.85,40.43,1.45,42.49l3,.91a.41.41,0,0,1,.27.5A.42.42,0,0,1,450.35,374Z" style="fill:#890031"></path><path d="M449.56,362.4h0a.41.41,0,0,1-.44-.37c-2.4-29.59,14.1-53.29,19-57.35a.4.4,0,1,1,.52.62c-4.81,4-21.08,27.39-18.7,56.66A.4.4,0,0,1,449.56,362.4Z" style="fill:#890031"></path></g><g id="freepik--plants--inject-4"><path d="M45,375.18a.4.4,0,0,1-.17-.3c-1.51-16.37-15.44-28.23-21.39-33.29-1-.81-1.73-1.46-2.21-1.94a8,8,0,0,1-2.53-7.48,6.89,6.89,0,0,1,4.84-4.93c6.21-2,16,5.68,22.19,17.54,8.73,16.61,4.64,28.87,4.59,29a.39.39,0,0,1-.28.26l-4.71,1.21a.43.43,0,0,1-.16,0A.51.51,0,0,1,45,375.18Zm0-30C39,333.64,29.68,326.11,23.83,328a6.06,6.06,0,0,0-4.3,4.34,7.22,7.22,0,0,0,2.31,6.72c.46.46,1.21,1.1,2.16,1.9,6,5.08,19.87,16.9,21.63,33.36l4-1C50.14,371.65,53,360.27,45.05,345.16Z" style="fill:#890031"></path><path d="M47.89,374.56h0a.4.4,0,0,0,.41-.4c.35-19.12-12.89-37.55-21.8-41.35A.4.4,0,0,0,26,333a.42.42,0,0,0,.21.54C35,337.31,47.87,356,47.54,374.15A.41.41,0,0,0,47.89,374.56Z" style="fill:#890031"></path><path d="M49.92,374a.37.37,0,0,0,.18,0l3.19-1a.41.41,0,0,0,.27-.27c.06-.18,5.69-18.46,1.54-43.07-2.11-12.55-9.42-24.78-17.38-29.09a12.27,12.27,0,0,0-11.19-.77,6.07,6.07,0,0,0-3.77,3.87c-1.32,4.66,3.51,11.59,8.63,18.93,3.59,5.14,7.29,10.45,9,15.14a.4.4,0,0,0,.52.24.41.41,0,0,0,.25-.52c-1.73-4.79-5.47-10.14-9.08-15.32-5-7.18-9.73-14-8.52-18.25a5.3,5.3,0,0,1,3.32-3.35,11.47,11.47,0,0,1,10.47.74c7.76,4.21,14.89,16.2,17,28.51,3.88,23-.85,40.43-1.46,42.49l-3,.91a.41.41,0,0,0-.27.5A.42.42,0,0,0,49.92,374Z" style="fill:#890031"></path><path d="M50.71,362.4h0a.41.41,0,0,0,.44-.37c2.4-29.59-14.11-53.29-19-57.35a.4.4,0,0,0-.52.62c4.81,4,21.08,27.39,18.7,56.66A.4.4,0,0,0,50.71,362.4Z" style="fill:#890031"></path></g></g><g id="freepik--Shadows--inject-4"><path id="freepik--Shadow--inject-4" d="M291.33,359.41l-124,72.36c-1.46.84-1.46,2.22,0,3.06l19.4,11.3a5.74,5.74,0,0,0,5.26,0l124-72.35c1.45-.85,1.45-2.22,0-3.07l-19.41-11.3A5.8,5.8,0,0,0,291.33,359.41Z" style="fill:#e0e0e0"></path><path id="freepik--shadow--inject-4" d="M305.43,377.38,198.12,440c-1.45.85-1.45,2.22,0,3.07l4.53,2.66a5.72,5.72,0,0,0,5.25,0l107.31-62.62c1.45-.85,1.45-2.22,0-3.07l-4.53-2.66A5.72,5.72,0,0,0,305.43,377.38Z" style="fill:#e0e0e0"></path><ellipse id="freepik--shadow--inject-4" cx="92.37" cy="396.54" rx="62.52" ry="36.49" style="fill:#e0e0e0"></ellipse><ellipse id="freepik--shadow--inject-4" cx="407.63" cy="393.68" rx="62.52" ry="36.49" style="fill:#e0e0e0"></ellipse></g><g id="freepik--Device--inject-4"><g id="freepik--Mobile--inject-4"><path d="M303.45,365.27V113.5c0-6.48-3.18-8.27-6-9.92s-7.48-2.65-11.49-.3l-102.83,60A16.29,16.29,0,0,0,175.85,176V427.81c0,4.69,2.91,7.45,5.73,9.1s7.76,3.46,11.77,1.12l102.83-60A13.83,13.83,0,0,0,303.45,365.27Z" style="fill:#37474f"></path><path d="M296.91,367.65,191.17,429.38l0-252.87L178,168.79a15.12,15.12,0,0,0-2.13,7.25V427.81c0,4.69,2.91,7.45,5.73,9.1s7.76,3.46,11.77,1.12l102.83-60a14,14,0,0,0,6.3-7.1l-.41-.24Z" style="fill:#263238"></path><path d="M296,111.32l-103.12,60.2a11.44,11.44,0,0,0-5.11,8.93V430.18c0,5,3.54,7.09,7.85,4.57L296,376.16A13,13,0,0,0,301.77,366V114.7C301.77,111,299.17,109.46,296,111.32Z" style="fill:#455a64"></path><path d="M296.74,126.63V360.07a12.34,12.34,0,0,1-5.49,9.63l-93,54.27c-3,1.78-5.49.35-5.49-3.2V185.61a12.45,12.45,0,0,1,3.86-8.37c.17-.16.34-.32.52-.47a11.19,11.19,0,0,1,1.11-.78l26.15-15.26,1.71-1c.94-.56,1.7-.12,1.7,1s.82,1.52,1.82.92l30.48-17.78a4,4,0,0,0,1.82-3.05,3.91,3.91,0,0,1,1.53-2.89l.17-.11,25.58-14.92.55-.33C293.62,120.34,296.74,122.17,296.74,126.63Z"></path><path d="M283.27,363.47a12.34,12.34,0,0,0,5.49-9.63V123.18l-25.1,14.64-.17.11a3.91,3.91,0,0,0-1.53,2.89,4,4,0,0,1-1.82,3.05l-30.48,17.78c-1,.6-1.82.17-1.82-.92s-.76-1.55-1.7-1l-1.71,1L198.28,176a11.19,11.19,0,0,0-1.11.78c-.18.15-.35.31-.52.47a12.45,12.45,0,0,0-3.86,8.37V416.28Z" style="fill:#263238"></path><path d="M234.29,152.26l14-8.16c.83-.48,1.51-.14,1.51.78a3.29,3.29,0,0,1-1.51,2.53l-14,8.15c-.83.49-1.51.14-1.51-.77A3.28,3.28,0,0,1,234.29,152.26Z" style="fill:#263238"></path><path d="M255.43,139.25c.94-.55,1.7-.1,1.7,1a3.81,3.81,0,0,1-1.7,3c-.94.55-1.7.1-1.7-1A3.81,3.81,0,0,1,255.43,139.25Z" style="fill:#263238"></path><path d="M185.39,206.24a6.25,6.25,0,0,0-2.69-4.91,1.76,1.76,0,0,0-1.84-.16c-.34.21-1.67,1-2,1.17a2.14,2.14,0,0,0-.83,1.93v20.52a6.22,6.22,0,0,0,2.69,4.91,1.81,1.81,0,0,0,1.78.19c.37-.2,1.72-1,2.07-1.2a2.12,2.12,0,0,0,.84-1.93Z" style="fill:#455a64"></path><path d="M183.39,207.41v20.51c0,1.85-1.21,2.65-2.69,1.78a6.22,6.22,0,0,1-2.69-4.91V204.27c0-1.85,1.2-2.64,2.69-1.78A6.26,6.26,0,0,1,183.39,207.41Z" style="fill:#37474f"></path><path d="M185.39,242.15a6.26,6.26,0,0,0-2.69-4.92,1.78,1.78,0,0,0-1.84-.15c-.34.21-1.67.95-2,1.17a2.14,2.14,0,0,0-.83,1.93v20.51a6.23,6.23,0,0,0,2.69,4.92,1.83,1.83,0,0,0,1.78.19c.37-.2,1.72-1,2.07-1.2a2.13,2.13,0,0,0,.84-1.94Z" style="fill:#455a64"></path><path d="M183.39,243.31v20.52c0,1.85-1.21,2.64-2.69,1.78a6.23,6.23,0,0,1-2.69-4.92V240.18c0-1.85,1.2-2.65,2.69-1.78A6.25,6.25,0,0,1,183.39,243.31Z" style="fill:#37474f"></path></g></g><g id="freepik--Screen--inject-4"><g id="freepik--window-2--inject-4"><g id="freepik--Window--inject-4"><path d="M305.23,127.85c-1.27-.75-3-.64-5,.49l-.55.33-26,15.15-.18.11a4,4,0,0,0-1.55,2.93,4,4,0,0,1-1.85,3.09L239.23,168l-.07,0a1.2,1.2,0,0,0-.51-1.06l-1.78-1a1.18,1.18,0,0,0-1.22.12c-1,.55-1.73,1-1.73,1l-26.55,15.5a9.12,9.12,0,0,0-1.13.78l-.53.48a12.66,12.66,0,0,0-3.91,8.5V431c0,1.8.62,3.06,1.62,3.65.31.17,1.5.87,1.8,1.05a3.9,3.9,0,0,0,3.94-.4l94.37-55.1a12.51,12.51,0,0,0,5.58-9.77v-237c0-2.26-.79-3.85-2.07-4.6Z" style="fill:#890031"></path><path d="M209.69,434.56V435l-.53.3a3.88,3.88,0,0,1-3.94.41c-.29-.18-1.5-.88-1.8-1.05A4,4,0,0,1,201.8,431V192.33a11.82,11.82,0,0,1,1.92-6l2.13,1.24a11.47,11.47,0,0,0-1.87,5.82V432.09a4.39,4.39,0,0,0,.77,2.71,2.32,2.32,0,0,0,1.91.91A4.71,4.71,0,0,0,209,435Z" style="opacity:0.30000000000000004"></path><path d="M274.84,146.08a3.31,3.31,0,0,0-.65,1.82,4.07,4.07,0,0,1-.68,2.1l-2.15-1.25a3.55,3.55,0,0,0,.65-1.89,3.82,3.82,0,0,1,.7-2Z" style="opacity:0.30000000000000004"></path><path d="M206.66,435.71a2.34,2.34,0,0,1-1.91-.9,4.4,4.4,0,0,1-.77-2.72V193.37a12.33,12.33,0,0,1,3.79-8.2l.17-.16.34-.31a9,9,0,0,1,1.08-.74l26.54-15.5,1.73-1a1.23,1.23,0,0,1,.58-.19c.5,0,.56.6.56.85,0,1,.55,1.62,1.37,1.62a2.11,2.11,0,0,0,1.07-.33l30.94-18.06a4.38,4.38,0,0,0,2.05-3.44,3.53,3.53,0,0,1,1.38-2.6l.14-.09,26-15.16.56-.32a6,6,0,0,1,2.94-.92c2.17,0,3.52,1.8,3.52,4.69v237a12.06,12.06,0,0,1-5.38,9.43L209,435A4.71,4.71,0,0,1,206.66,435.71Z" style="fill:#fafafa"></path><path d="M305.19,128.81a6,6,0,0,0-2.94.92l-.56.33-26,15.15a1.19,1.19,0,0,0-.15.09,3.54,3.54,0,0,0-1.38,2.6,4.38,4.38,0,0,1-2.05,3.44L241.21,169.4a2.05,2.05,0,0,1-1.07.33c-.82,0-1.37-.65-1.37-1.62,0-.25-.06-.85-.56-.85a1.23,1.23,0,0,0-.58.19l-1.73,1L209.36,184a9,9,0,0,0-1.08.74l-.34.31-.17.16a12.33,12.33,0,0,0-3.79,8.21v32L308.71,164.2V133.5C308.71,130.61,307.36,128.81,305.19,128.81Z" style="fill:#890031"></path><g style="opacity:0.30000000000000004"><path d="M305.19,128.81a6,6,0,0,0-2.94.92l-.56.33-26,15.15a1.19,1.19,0,0,0-.15.09,3.54,3.54,0,0,0-1.38,2.6,4.38,4.38,0,0,1-2.05,3.44L241.21,169.4a2.05,2.05,0,0,1-1.07.33c-.82,0-1.37-.65-1.37-1.62,0-.25-.06-.85-.56-.85a1.23,1.23,0,0,0-.58.19l-1.73,1L209.36,184a9,9,0,0,0-1.08.74l-.34.31-.17.16a12.33,12.33,0,0,0-3.79,8.21v32L308.71,164.2V133.5C308.71,130.61,307.36,128.81,305.19,128.81Z" style="fill:#fff"></path></g><path d="M211.53,193.45a.29.29,0,0,1,0,.16.22.22,0,0,1-.1.11l-.21.13a.09.09,0,0,1-.1,0,.12.12,0,0,1,0-.11v-3.85l-.84,1.35c0,.06-.06.09-.1.1a.07.07,0,0,1-.09,0l-.13-.14a.23.23,0,0,1,0-.13.39.39,0,0,1,.06-.15l1.11-1.8a.39.39,0,0,1,.08-.1l.08,0,.21-.12a.08.08,0,0,1,.1,0,.12.12,0,0,1,0,.11Z" style="fill:#fafafa"></path><path d="M213.72,192.18a.33.33,0,0,1-.05.16.25.25,0,0,1-.09.11l-.22.13a.09.09,0,0,1-.1,0,.16.16,0,0,1,0-.11v-3.85l-.84,1.35c0,.05-.06.09-.1.1s-.07,0-.09,0l-.13-.15a.21.21,0,0,1,0-.12.52.52,0,0,1,.06-.16l1.11-1.79a.21.21,0,0,1,.08-.1l.08-.05.22-.13a.07.07,0,0,1,.09,0,.13.13,0,0,1,.05.11Z" style="fill:#fafafa"></path><path d="M214.94,188.37a.08.08,0,0,1,.1,0,.16.16,0,0,1,0,.11v.47a.47.47,0,0,1,0,.16.27.27,0,0,1-.1.11l-.35.2a.08.08,0,0,1-.1,0,.18.18,0,0,1,0-.11v-.47a.47.47,0,0,1,0-.16.27.27,0,0,1,.1-.11Zm0,2.44a.09.09,0,0,1,.1,0,.16.16,0,0,1,0,.11v.47a.42.42,0,0,1,0,.15.31.31,0,0,1-.1.12l-.35.2a.09.09,0,0,1-.1,0,.16.16,0,0,1,0-.11v-.47a.42.42,0,0,1,0-.15.31.31,0,0,1,.1-.12Z" style="fill:#fafafa"></path><path d="M216.14,189.68a.4.4,0,0,0,.3.35.67.67,0,0,0,.52-.12,1.51,1.51,0,0,0,.33-.25,1.8,1.8,0,0,0,.26-.34,1.6,1.6,0,0,0,.17-.42,1.51,1.51,0,0,0,.07-.48,1,1,0,0,0-.07-.41.41.41,0,0,0-.17-.21.45.45,0,0,0-.26,0,1,1,0,0,0-.33.13,1.67,1.67,0,0,0-.31.24,2.79,2.79,0,0,0-.19.24l-.14.2a.36.36,0,0,1-.13.14l-.27.16a.06.06,0,0,1-.08,0,.12.12,0,0,1,0-.09l.15-2.42a.3.3,0,0,1,0-.16.25.25,0,0,1,.09-.11l1.83-1.07s.07,0,.1,0a.11.11,0,0,1,0,.1v.26a.28.28,0,0,1,0,.15.31.31,0,0,1-.1.12l-1.5.88-.09,1.25.24-.25a2.5,2.5,0,0,1,.38-.27,1.46,1.46,0,0,1,.51-.19.72.72,0,0,1,.42.08.76.76,0,0,1,.29.36,1.79,1.79,0,0,1,.1.62,3.08,3.08,0,0,1-.1.75,3,3,0,0,1-.29.68,2.48,2.48,0,0,1-.42.57,2.14,2.14,0,0,1-.51.41,1.31,1.31,0,0,1-.49.19.73.73,0,0,1-.42,0,.58.58,0,0,1-.28-.26.93.93,0,0,1-.12-.47.22.22,0,0,1,0-.13.24.24,0,0,1,.08-.09l.24-.14a.08.08,0,0,1,.08,0A.12.12,0,0,1,216.14,189.68Z" style="fill:#fafafa"></path><path d="M219.21,188a.75.75,0,0,0,.07.18.24.24,0,0,0,.14.12.52.52,0,0,0,.25,0,1.48,1.48,0,0,0,.39-.17,2.26,2.26,0,0,0,.31-.23,1.54,1.54,0,0,0,.25-.32,2.12,2.12,0,0,0,.18-.37,1.56,1.56,0,0,0,.06-.44.77.77,0,0,0-.06-.34.28.28,0,0,0-.17-.15.36.36,0,0,0-.25,0,1.08,1.08,0,0,0-.32.14l-.43.25a.09.09,0,0,1-.1,0,.16.16,0,0,1,0-.11v-.25a.35.35,0,0,1,0-.13l.06-.13.93-1.9L219,185a.08.08,0,0,1-.1,0,.14.14,0,0,1,0-.11v-.25a.29.29,0,0,1,0-.16.27.27,0,0,1,.1-.11l2-1.2a.09.09,0,0,1,.1,0,.16.16,0,0,1,0,.11v.25a.39.39,0,0,1,0,.14,1,1,0,0,1-.07.15l-.91,1.87a1.25,1.25,0,0,1,.47-.16.51.51,0,0,1,.37.07.6.6,0,0,1,.24.31,1.62,1.62,0,0,1,.08.54,2.42,2.42,0,0,1-.1.7,2.75,2.75,0,0,1-.28.63,2.41,2.41,0,0,1-.41.54,2.05,2.05,0,0,1-.5.39,1.79,1.79,0,0,1-.6.25.68.68,0,0,1-.41,0,.47.47,0,0,1-.24-.26.82.82,0,0,1-.09-.4.27.27,0,0,1,0-.12.29.29,0,0,1,.08-.1l.24-.13s.07,0,.09,0A.12.12,0,0,1,219.21,188Z" style="fill:#fafafa"></path><path d="M227.29,179.75h0m0,0-1.59,5.51v-2.4l-1.78,1,3.37-4.15m0-.41h0a.31.31,0,0,0-.19.06l-.09.07v0l-3.37,4.14a.41.41,0,0,0,.31.67.35.35,0,0,0,.2-.05l1.17-.69v1.69a.41.41,0,0,0,.35.41h.06a.4.4,0,0,0,.39-.29l1.58-5.47a.41.41,0,0,0,0-.16.41.41,0,0,0-.4-.41Zm0,.82h0Z" style="fill:#fafafa"></path><polygon points="282.7 152.05 281.83 152.55 281.83 150.84 282.7 150.33 282.7 152.05" style="fill:#fafafa"></polygon><polygon points="284.08 151.24 283.21 151.75 283.21 149.29 284.08 148.79 284.08 151.24" style="fill:#fafafa"></polygon><polygon points="285.45 150.44 284.58 150.95 284.58 147.56 285.45 147.06 285.45 150.44" style="fill:#fafafa"></polygon><polygon points="286.83 149.64 285.96 150.14 285.96 145.86 286.83 145.36 286.83 149.64" style="fill:#890031"></polygon><path d="M292.87,141.71a6.53,6.53,0,0,0-2.29,2.6l.57.46a4.88,4.88,0,0,1,1.72-2,1.54,1.54,0,0,1,1.73-.06l.58-1.13A2.05,2.05,0,0,0,292.87,141.71Zm-1.5,3.24.53.43a2.82,2.82,0,0,1,1-1.11.86.86,0,0,1,1,0l.53-1a1.33,1.33,0,0,0-1.51.05A4.27,4.27,0,0,0,291.37,145Zm.78.63.72.58.74-1.45a.69.69,0,0,0-.74,0A2,2,0,0,0,292.15,145.58Z" style="fill:#fafafa"></path><path d="M303.34,135.72c.31-.19.57,0,.57.43v2.76a1.38,1.38,0,0,1-.57,1.09l-4.88,2.84c-.31.19-.56,0-.56-.43v-2.76a1.38,1.38,0,0,1,.56-1.09l4.88-2.84m0-.24-4.88,2.85a1.78,1.78,0,0,0-.73,1.42v2.77c0,.55.33.8.73.56l4.88-2.85a1.76,1.76,0,0,0,.74-1.42V136c0-.55-.33-.8-.74-.56Z" style="fill:#890031"></path><path d="M301.37,140.46l-2.75,1.61c-.13.07-.23,0-.23-.18V139.6a.54.54,0,0,1,.23-.44l2.75-1.6c.12-.08.23,0,.23.17V140A.57.57,0,0,1,301.37,140.46Z" style="fill:#fafafa"></path><path d="M304.6,137.87l-.19.11v-1.49l.19-.12c.11-.06.2.22.2.64A1.36,1.36,0,0,1,304.6,137.87Z" style="fill:#890031"></path><path d="M295.91,158.09a2.26,2.26,0,0,0-.93,1.79c0,.69.42,1,.93.71a2.26,2.26,0,0,0,.93-1.79C296.84,158.11,296.42,157.79,295.91,158.09ZM303,154a2.25,2.25,0,0,0-.93,1.8c0,.69.41,1,.93.71a2.28,2.28,0,0,0,.93-1.8C303.91,154,303.49,153.66,303,154ZM299.44,156a2.24,2.24,0,0,0-.92,1.79c0,.69.41,1,.92.71a2.24,2.24,0,0,0,.93-1.8C300.37,156,300,155.73,299.44,156Z" style="fill:#fafafa"></path><g id="freepik--sync-icon--inject-4"><path d="M221.1,202a12.47,12.47,0,0,1-5.56,9.75c-1.58.93-3,1-4,.33l0,0h0a4.1,4.1,0,0,1-1.48-3.54,11.64,11.64,0,0,1,1.86-5.91,11.13,11.13,0,0,1,3.71-3.84,4.05,4.05,0,0,1,3.75-.49h0l0,0C220.43,198.86,221.1,200.15,221.1,202Z" style="fill:#455a64"></path></g><path d="M215.3,200.46c1-.6,1.85-.11,1.85,1.08a4.16,4.16,0,0,1-1.85,3.24c-1,.6-1.85.11-1.85-1.08A4.16,4.16,0,0,1,215.3,200.46Z" style="fill:#fff"></path><path d="M215.54,210.71A9.7,9.7,0,0,0,219,207v-.15c0-2-1.36-2.75-3-1.77l-1,.61a6.84,6.84,0,0,0-3,5,1.57,1.57,0,0,0,.27.25h0l0,0A3.2,3.2,0,0,0,215.54,210.71Z" style="fill:#fff"></path><path d="M226.38,198.85v1.28c0,1.17.82,1.65,1.82,1.06l52.25-30.5a4.09,4.09,0,0,0,1.82-3.19v-1.27c0-1.18-.82-1.65-1.82-1.07l-52.25,30.5A4.11,4.11,0,0,0,226.38,198.85Z" style="fill:#fafafa"></path><path d="M305.19,129.21h0c1.95,0,3.12,1.61,3.12,4.29v237a11.77,11.77,0,0,1-5.18,9.08l-94.37,55.09a4.24,4.24,0,0,1-2.1.67c-1.43,0-2.28-1.21-2.28-3.22V193.37a11.86,11.86,0,0,1,3.65-7.9l.18-.17.31-.28a8.44,8.44,0,0,1,1-.72l26.54-15.49,1.73-1a.78.78,0,0,1,.38-.13c.16,0,.16.4.16.44a1.83,1.83,0,0,0,1.77,2,2.51,2.51,0,0,0,1.27-.38l30.94-18.06a4.83,4.83,0,0,0,2.24-3.79,3.2,3.2,0,0,1,1.22-2.28l.12-.07,26-15.15.55-.33a5.68,5.68,0,0,1,2.75-.86m0-.8a6.27,6.27,0,0,0-3.14,1l-.56.33-26,15.15-.18.11a4,4,0,0,0-1.55,2.93A4.06,4.06,0,0,1,272,151L241,169.05a1.7,1.7,0,0,1-.87.28c-.58,0-1-.45-1-1.22s-.39-1.25-.95-1.25a1.62,1.62,0,0,0-.78.24l-1.73,1-26.54,15.5a9.22,9.22,0,0,0-1.14.78l-.52.49a12.63,12.63,0,0,0-3.92,8.49V432.09c0,2.55,1.26,4,3.08,4a5.09,5.09,0,0,0,2.5-.77l94.37-55.1a12.51,12.51,0,0,0,5.58-9.77v-237c0-3.22-1.6-5.09-3.92-5.09Z" style="fill:#890031"></path></g></g><g id="freepik--voice-note--inject-4"><path d="M308.31,355.9v14.57a11.81,11.81,0,0,1-5.17,9.08l-94.38,55.09a4.27,4.27,0,0,1-2.1.67c-1.43,0-2.28-1.21-2.28-3.22V416.55Z" style="fill:#890031"></path><path d="M308.31,355.9v14.57a11.81,11.81,0,0,1-5.17,9.08l-94.38,55.09a4.27,4.27,0,0,1-2.1.67c-1.43,0-2.28-1.21-2.28-3.22V416.55Z" style="fill:#fff;opacity:0.65"></path><path d="M219.12,416.88a4.18,4.18,0,0,0-1.56,3.33c0,1.34.7,2,1.56,1.51a4.16,4.16,0,0,0,1.56-3.33C220.68,417.06,220,416.38,219.12,416.88Z" style="fill:#fff"></path><path d="M222.46,412.79l-1.18.7v-.63c0-.4-.21-.6-.47-.45l-3.38,2a1.24,1.24,0,0,0-.46,1V416l-1.19.7a2.56,2.56,0,0,0-1,2.06v6.12c0,.82.43,1.24,1,.93l6.68-3.9a2.58,2.58,0,0,0,1-2.07v-6.1C223.42,412.9,223,412.49,222.46,412.79Zm-3.34,10.14c-1.28.75-2.33-.26-2.33-2.27s1.05-4.24,2.33-5,2.33.28,2.33,2.28S220.4,422.18,219.12,422.93Z" style="fill:#fff"></path><path d="M234.58,404a10.35,10.35,0,0,0-4.63,8.09c0,3,2.08,4.19,4.63,2.7a10.37,10.37,0,0,0,4.61-8.09C239.19,403.72,237.12,402.51,234.58,404Zm2.5,4.85L235.16,410v2.41a.59.59,0,0,1-.58.59.6.6,0,0,1-.59-.59v-1.73l-1.34.78a.6.6,0,0,1-.3.07.58.58,0,0,1-.5-.28.59.59,0,0,1,.22-.81L234,409.3v-2.63a.6.6,0,0,1,.59-.59.59.59,0,0,1,.58.59v1.95l1.34-.78a.58.58,0,0,1,.8.21A.59.59,0,0,1,237.08,408.85Z" style="fill:#fff"></path><path d="M250.29,395.72l47.6-27.78c2.28-1.33,4.12-.38,4.12,2.11a8.93,8.93,0,0,1-4.12,6.91l-47.61,27.78c-2.27,1.33-4.11.38-4.11-2.11A8.91,8.91,0,0,1,250.29,395.72Z" style="fill:#fafafa"></path><path d="M298.15,369.16c1.48-.87,2.69-.17,2.69,1.57a6,6,0,0,1-2.69,4.71c-1.49.87-2.69.17-2.69-1.57A6,6,0,0,1,298.15,369.16Z" style="fill:#890031"></path><path d="M299.67,371.26,298.4,370h0a.24.24,0,0,0-.11-.06l-.06,0h-.16l-.09,0,0,0a.36.36,0,0,0-.07.1l0,0-1.27,2.72a.37.37,0,0,0,.17.49.32.32,0,0,0,.16,0,.36.36,0,0,0,.33-.21l.57-1.23v2.51a.38.38,0,0,0,.37.37.37.37,0,0,0,.36-.37v-3.29l.65.63a.37.37,0,0,0,.51-.53Z" style="fill:#fafafa"></path></g></g><g id="freepik--voice-notes--inject-4"><g id="freepik--voice-note--inject-4"><path d="M294.9,187.51c-1.59-.93-3.56-.88-5.68.36l-50.8,29.65c-5.24,3.06-9.49,12.18-9.49,20.33,0,4.82,1.5,8.24,3.81,9.59.57.33,2.86,1.68,3.45,2,1.58.91,3.53.86,5.64-.38l50.8-29.65c5.24-3.06,9.5-12.18,9.5-20.32,0-4.83-1.5-8.24-3.81-9.59Z" style="fill:#890031"></path><path d="M294.9,187.51c-1.59-.93-3.56-.88-5.68.36l-50.8,29.65c-5.24,3.06-9.49,12.18-9.49,20.33,0,4.82,1.5,8.24,3.81,9.59.57.33,2.86,1.68,3.45,2,1.58.91,3.53.86,5.64-.38l50.8-29.65c5.24-3.06,9.5-12.18,9.5-20.32,0-4.83-1.5-8.24-3.81-9.59Z" style="fill:#fff;opacity:0.30000000000000004"></path><path d="M292.63,190.72l-50.8,29.65c-4.93,2.88-8.94,11.47-8.94,19.14s4,11.59,8.94,8.71l50.8-29.66c4.94-2.87,8.95-11.46,8.95-19.14S297.57,187.83,292.63,190.72Z" style="fill:#fff"></path><g id="freepik--Audio--inject-4"><path d="M253.44,227.12v1.19a.34.34,0,1,1-.67,0v-1.19a.34.34,0,1,1,.67,0Z" style="fill:#890031"></path><path d="M255.14,222.76v7.93a.34.34,0,0,1-.34.34.34.34,0,0,1-.34-.34v-7.93a.34.34,0,0,1,.34-.34A.34.34,0,0,1,255.14,222.76Z" style="fill:#890031"></path><path d="M256.84,223.56v4.35a.34.34,0,0,1-.34.34.35.35,0,0,1-.34-.34v-4.35a.35.35,0,0,1,.34-.34A.34.34,0,0,1,256.84,223.56Z" style="fill:#890031"></path><path d="M258.54,218.39v12.7a.34.34,0,1,1-.68,0v-12.7a.34.34,0,1,1,.68,0Z" style="fill:#890031"></path><path d="M260.24,222.73v2a.35.35,0,0,1-.35.34.34.34,0,0,1-.33-.34v-2a.33.33,0,0,1,.33-.33A.34.34,0,0,1,260.24,222.73Z" style="fill:#890031"></path><path d="M261.94,220.21v5.1a.34.34,0,0,1-.35.34.33.33,0,0,1-.33-.34v-5.1a.34.34,0,0,1,.33-.34A.35.35,0,0,1,261.94,220.21Z" style="fill:#890031"></path><path d="M263.63,215.52V228a.34.34,0,1,1-.67,0v-12.5a.34.34,0,1,1,.67,0Z" style="fill:#890031"></path><path d="M265.33,215.82v9.91a.34.34,0,0,1-.34.35.35.35,0,0,1-.34-.35v-9.91a.34.34,0,0,1,.34-.34A.34.34,0,0,1,265.33,215.82Z" style="fill:#890031"></path><path d="M267,212.65v14.28a.34.34,0,0,1-.68,0V212.65a.34.34,0,1,1,.68,0Z" style="fill:#890031"></path><path d="M268.73,215.37v6.85a.34.34,0,0,1-.34.34.34.34,0,0,1-.34-.34v-6.85a.34.34,0,0,1,.34-.34A.34.34,0,0,1,268.73,215.37Z" style="fill:#890031"></path><path d="M270.42,217v1.63a.34.34,0,0,1-.34.34.33.33,0,0,1-.33-.34V217a.32.32,0,0,1,.33-.34A.33.33,0,0,1,270.42,217Z" style="fill:#890031"></path><path d="M272.12,215.07v3.49a.34.34,0,0,1-.34.34.34.34,0,0,1-.33-.34v-3.49a.33.33,0,0,1,.33-.34A.34.34,0,0,1,272.12,215.07Z" style="fill:#890031"></path><path d="M273.81,211.14v9.37a.34.34,0,0,1-.33.35.35.35,0,0,1-.34-.35v-9.37a.34.34,0,0,1,.34-.35A.33.33,0,0,1,273.81,211.14Z" style="fill:#890031"></path><path d="M275.51,206.83v16a.33.33,0,0,1-.33.35.34.34,0,0,1-.34-.35v-16a.34.34,0,0,1,.34-.34A.34.34,0,0,1,275.51,206.83Z" style="fill:#890031"></path><path d="M277.21,206.72V221a.33.33,0,0,1-.33.34.34.34,0,0,1-.34-.34V206.72a.34.34,0,0,1,.34-.34A.33.33,0,0,1,277.21,206.72Z" style="fill:#890031"></path><path d="M278.91,209.53v6.64a.34.34,0,0,1-.34.34.34.34,0,0,1-.33-.34v-6.64a.33.33,0,0,1,.33-.34A.34.34,0,0,1,278.91,209.53Z" style="fill:#890031"></path><path d="M280.61,210.84v2a.34.34,0,0,1-.68,0v-2a.34.34,0,0,1,.68,0Z" style="fill:#890031"></path><path d="M297.55,201.37v1.2a.33.33,0,0,1-.34.33.32.32,0,0,1-.33-.33v-1.2a.34.34,0,0,1,.33-.34A.34.34,0,0,1,297.55,201.37Z" style="fill:#890031"></path><path d="M295.85,199v7.93a.34.34,0,0,1-.34.34.34.34,0,0,1-.33-.34V199a.34.34,0,0,1,.33-.35A.35.35,0,0,1,295.85,199Z" style="fill:#890031"></path><path d="M294.15,201.78v4.34a.33.33,0,0,1-.34.34.32.32,0,0,1-.33-.34v-4.34a.33.33,0,0,1,.33-.34A.34.34,0,0,1,294.15,201.78Z" style="fill:#890031"></path><path d="M292.45,198.59v12.7a.34.34,0,0,1-.33.35.35.35,0,0,1-.34-.35v-12.7a.34.34,0,0,1,.34-.34A.33.33,0,0,1,292.45,198.59Z" style="fill:#890031"></path><path d="M290.75,204.92v2a.34.34,0,0,1-.33.34.34.34,0,0,1-.34-.34v-2a.34.34,0,0,1,.34-.34A.33.33,0,0,1,290.75,204.92Z" style="fill:#890031"></path><path d="M289.06,204.37v5.11a.34.34,0,1,1-.68,0v-5.11a.34.34,0,1,1,.68,0Z" style="fill:#890031"></path><path d="M287.36,201.67v12.49a.34.34,0,0,1-.34.34.33.33,0,0,1-.33-.34V201.67a.33.33,0,0,1,.33-.34A.34.34,0,0,1,287.36,201.67Z" style="fill:#890031"></path><path d="M285.67,204v9.92a.35.35,0,0,1-.35.34.34.34,0,0,1-.33-.34V204a.34.34,0,0,1,.33-.35A.35.35,0,0,1,285.67,204Z" style="fill:#890031"></path><path d="M284,202.76V217a.34.34,0,0,1-.34.34.34.34,0,0,1-.34-.34V202.76a.34.34,0,0,1,.34-.34A.34.34,0,0,1,284,202.76Z" style="fill:#890031"></path><path d="M282.27,208.22v5.33a.34.34,0,0,1-.68,0v-5.33a.34.34,0,0,1,.68,0Z" style="fill:#890031"></path><path d="M280.57,211.06v1.64a.34.34,0,0,1-.64.15.42.42,0,0,1,0-.15v-1.64a.37.37,0,0,1,0-.14.33.33,0,0,1,.3-.2A.34.34,0,0,1,280.57,211.06Z" style="fill:#890031"></path></g><path d="M292.63,189.86l-50.8,29.65c-5.23,3.06-9.49,12.18-9.49,20.33s4.26,12.29,9.49,9.23l50.8-29.65c5.24-3.06,9.5-12.18,9.5-20.32S297.87,186.81,292.63,189.86Zm0,28.7-50.8,29.66c-4.93,2.88-8.94-1-8.94-8.71s4-16.26,8.94-19.14l50.8-29.65c4.94-2.89,8.95,1,8.95,8.7S297.57,215.69,292.63,218.56Z" style="fill:#890031"></path><g style="opacity:0.5"><path d="M292.63,189.86l-50.8,29.65c-5.23,3.06-9.49,12.18-9.49,20.33s4.26,12.29,9.49,9.23l50.8-29.65c5.24-3.06,9.5-12.18,9.5-20.32S297.87,186.81,292.63,189.86Zm0,28.7-50.8,29.66c-4.93,2.88-8.94-1-8.94-8.71s4-16.26,8.94-19.14l50.8-29.65c4.94-2.89,8.95,1,8.95,8.7S297.57,215.69,292.63,218.56Z" style="fill:#fff"></path></g><path d="M243.14,223.66c-3.5,2-6.35,8.13-6.35,13.58s2.85,8.21,6.35,6.17,6.34-8.13,6.34-13.58S246.64,221.62,243.14,223.66Zm0,18.9c-3.2,1.86-5.8-.67-5.8-5.64s2.6-10.55,5.8-12.41,5.79.66,5.79,5.64S246.33,240.69,243.14,242.56Z" style="fill:#890031"></path><path d="M240.81,239.19v-8.6c0-.49.33-1,.61-.93l5.16,1.29c.29.07.29.73,0,1.15l-5.16,7.31C241.14,239.8,240.81,239.69,240.81,239.19Z" style="fill:#890031"></path><g id="freepik--sync-icon--inject-4"><path d="M223.88,243.21a15.55,15.55,0,0,1-6.95,12.18c-2,1.16-3.77,1.24-5,.41l-.06,0,0,0c-1.13-.76-1.85-2.29-1.85-4.43a14.61,14.61,0,0,1,2.32-7.38,13.89,13.89,0,0,1,4.64-4.8c1.8-1,3.45-1.2,4.68-.61h0l.05,0C223,239.27,223.88,240.89,223.88,243.21Z" style="fill:#890031"></path></g><g id="freepik--sync-icon--inject-4" style="opacity:0.5"><path d="M223.88,243.21a15.55,15.55,0,0,1-6.95,12.18c-2,1.16-3.77,1.24-5,.41l-.06,0,0,0c-1.13-.76-1.85-2.29-1.85-4.43a14.61,14.61,0,0,1,2.32-7.38,13.89,13.89,0,0,1,4.64-4.8c1.8-1,3.45-1.2,4.68-.61h0l.05,0C223,239.27,223.88,240.89,223.88,243.21Z" style="fill:#fff"></path></g><path d="M216.63,241.27c1.28-.74,2.32-.14,2.32,1.35a5.16,5.16,0,0,1-2.32,4c-1.27.75-2.31.15-2.31-1.35A5.21,5.21,0,0,1,216.63,241.27Z" style="fill:#fff"></path><path d="M216.94,254.08a12.08,12.08,0,0,0,4.25-4.67v-.18c0-2.45-1.7-3.45-3.8-2.22l-1.31.76a8.57,8.57,0,0,0-3.77,6.3,2.58,2.58,0,0,0,.34.32h0l.05,0C213.77,255.11,215.27,255.05,216.94,254.08Z" style="fill:#fff"></path></g><g id="freepik--voice-note--inject-4"><path d="M320.43,217.11c-1.58-.92-3.55-.87-5.68.37L264,247.13c-5.23,3.06-9.49,12.17-9.49,20.32,0,4.83,1.5,8.25,3.81,9.6l3.45,2c1.58.91,3.54.85,5.65-.38L318.17,249c5.23-3.06,9.5-12.18,9.5-20.32,0-4.83-1.5-8.24-3.81-9.59Z" style="fill:#455a64"></path><path d="M318.17,220.32,267.37,250c-4.93,2.88-8.94,11.46-8.94,19.14s4,11.59,8.94,8.7l50.8-29.65c4.93-2.87,8.95-11.47,8.95-19.14S323.1,217.44,318.17,220.32Z" style="fill:#fff"></path><g id="freepik--audio--inject-4"><path d="M279,256.73v1.19a.34.34,0,0,1-.34.34.34.34,0,0,1-.34-.34v-1.19a.34.34,0,0,1,.34-.34A.34.34,0,0,1,279,256.73Z" style="fill:#455a64"></path><path d="M280.68,252.37v7.92a.34.34,0,1,1-.68,0v-7.92a.34.34,0,1,1,.68,0Z" style="fill:#455a64"></path><path d="M282.38,253.17v4.35a.34.34,0,0,1-.35.33.33.33,0,0,1-.33-.33v-4.35a.34.34,0,0,1,.33-.34A.35.35,0,0,1,282.38,253.17Z" style="fill:#455a64"></path><path d="M284.08,248v12.7a.35.35,0,0,1-.35.34.34.34,0,0,1-.33-.34V248a.34.34,0,0,1,.33-.34A.35.35,0,0,1,284.08,248Z" style="fill:#455a64"></path><path d="M285.77,252.34v2a.34.34,0,0,1-.67,0v-2a.34.34,0,1,1,.67,0Z" style="fill:#455a64"></path><path d="M287.47,249.81v5.11a.34.34,0,0,1-.34.34.34.34,0,0,1-.34-.34v-5.11a.34.34,0,0,1,.34-.33A.33.33,0,0,1,287.47,249.81Z" style="fill:#455a64"></path><path d="M289.17,245.13v12.5a.34.34,0,0,1-.68,0v-12.5a.34.34,0,1,1,.68,0Z" style="fill:#455a64"></path><path d="M290.87,245.43v9.91a.35.35,0,0,1-.34.35.35.35,0,0,1-.34-.35v-9.91a.35.35,0,0,1,.34-.35A.35.35,0,0,1,290.87,245.43Z" style="fill:#455a64"></path><path d="M292.57,242.25v14.28a.35.35,0,0,1-.35.35.33.33,0,0,1-.33-.35V242.25a.33.33,0,0,1,.33-.34A.35.35,0,0,1,292.57,242.25Z" style="fill:#455a64"></path><path d="M294.26,245v6.85a.34.34,0,0,1-.34.34.33.33,0,0,1-.33-.34V245a.34.34,0,0,1,.33-.35A.35.35,0,0,1,294.26,245Z" style="fill:#455a64"></path><path d="M296,246.59v1.64a.34.34,0,0,1-.68,0v-1.64a.34.34,0,0,1,.68,0Z" style="fill:#455a64"></path><path d="M297.65,244.68v3.48a.33.33,0,0,1-.33.34.34.34,0,0,1-.34-.34v-3.48a.34.34,0,0,1,.34-.34A.33.33,0,0,1,297.65,244.68Z" style="fill:#455a64"></path><path d="M299.35,240.74v9.38a.33.33,0,0,1-.33.34.34.34,0,0,1-.34-.34v-9.38a.34.34,0,0,1,.34-.34A.33.33,0,0,1,299.35,240.74Z" style="fill:#455a64"></path><path d="M301.05,236.44v16a.35.35,0,0,1-.34.35.34.34,0,0,1-.33-.35v-16a.33.33,0,0,1,.33-.34A.34.34,0,0,1,301.05,236.44Z" style="fill:#455a64"></path><path d="M302.75,236.33v14.24a.33.33,0,0,1-.34.33.32.32,0,0,1-.33-.33V236.33a.33.33,0,0,1,.33-.34A.34.34,0,0,1,302.75,236.33Z" style="fill:#455a64"></path><path d="M304.45,239.14v6.64a.34.34,0,0,1-.34.34.34.34,0,0,1-.33-.34v-6.64a.33.33,0,0,1,.33-.34A.34.34,0,0,1,304.45,239.14Z" style="fill:#455a64"></path><path d="M306.14,240.45v2a.33.33,0,0,1-.33.34.34.34,0,0,1-.34-.34v-2a.34.34,0,0,1,.34-.34A.33.33,0,0,1,306.14,240.45Z" style="fill:#455a64"></path><path d="M323.08,231v1.19a.33.33,0,0,1-.33.34.34.34,0,0,1-.34-.34V231a.34.34,0,0,1,.34-.34A.33.33,0,0,1,323.08,231Z" style="fill:#455a64"></path><path d="M321.38,228.61v7.93a.33.33,0,0,1-.33.33.34.34,0,0,1-.34-.33v-7.93a.34.34,0,0,1,.34-.35A.33.33,0,0,1,321.38,228.61Z" style="fill:#455a64"></path><path d="M319.69,231.38v4.35a.34.34,0,0,1-.34.34.33.33,0,0,1-.33-.34v-4.35a.33.33,0,0,1,.33-.33A.34.34,0,0,1,319.69,231.38Z" style="fill:#455a64"></path><path d="M318,228.2v12.7a.34.34,0,0,1-.34.34.33.33,0,0,1-.33-.34V228.2a.34.34,0,0,1,.33-.35A.35.35,0,0,1,318,228.2Z" style="fill:#455a64"></path><path d="M316.29,234.53v2a.34.34,0,0,1-.34.34.34.34,0,0,1-.33-.34v-2a.34.34,0,0,1,.33-.35A.35.35,0,0,1,316.29,234.53Z" style="fill:#455a64"></path><path d="M314.59,234v5.11a.33.33,0,0,1-.33.34.34.34,0,0,1-.34-.34V234a.34.34,0,0,1,.34-.34A.33.33,0,0,1,314.59,234Z" style="fill:#455a64"></path><path d="M312.9,231.28v12.49a.34.34,0,1,1-.68,0V231.28a.34.34,0,1,1,.68,0Z" style="fill:#455a64"></path><path d="M311.2,233.56v9.92a.34.34,0,0,1-.68,0v-9.92a.34.34,0,1,1,.68,0Z" style="fill:#455a64"></path><path d="M309.5,232.36v14.29a.34.34,0,1,1-.67,0V232.36a.34.34,0,0,1,.67,0Z" style="fill:#455a64"></path><path d="M307.81,237.83v5.33a.35.35,0,0,1-.35.34.34.34,0,0,1-.33-.34v-5.33a.34.34,0,0,1,.33-.34A.35.35,0,0,1,307.81,237.83Z" style="fill:#455a64"></path><path d="M306.11,240.67v1.64a.34.34,0,0,1-.34.34.32.32,0,0,1-.3-.2.23.23,0,0,1,0-.14v-1.64a.23.23,0,0,1,0-.14.32.32,0,0,1,.3-.2A.35.35,0,0,1,306.11,240.67Z" style="fill:#455a64"></path></g><path d="M318.17,219.47l-50.8,29.65c-5.23,3.06-9.49,12.18-9.49,20.33s4.26,12.29,9.49,9.23L318.17,249c5.23-3.06,9.5-12.18,9.5-20.32S323.4,216.42,318.17,219.47Zm0,28.7-50.8,29.65c-4.93,2.89-8.94-1-8.94-8.7s4-16.26,8.94-19.14l50.8-29.66c4.93-2.88,8.95,1,8.95,8.71S323.1,245.3,318.17,248.17Z" style="fill:#37474f"></path><path d="M268.67,253.27c-3.49,2-6.34,8.13-6.34,13.57s2.85,8.22,6.34,6.18,6.35-8.14,6.35-13.58S272.17,251.23,268.67,253.27Zm0,18.89c-3.19,1.87-5.8-.66-5.8-5.63s2.61-10.55,5.8-12.41,5.8.66,5.8,5.64S271.87,270.3,268.67,272.16Z" style="fill:#455a64"></path><path d="M266.34,268.8v-8.6c0-.49.34-1,.62-.93l5.16,1.29c.29.07.29.73,0,1.14L267,269C266.68,269.41,266.34,269.29,266.34,268.8Z" style="fill:#455a64"></path><g id="freepik--sync-icon--inject-4"><path d="M346.62,220.08a15.53,15.53,0,0,1-7,12.18c-2,1.17-3.76,1.24-5,.42l-.06,0v0c-1.14-.76-1.85-2.29-1.85-4.43a14.7,14.7,0,0,1,2.31-7.38,14.07,14.07,0,0,1,4.64-4.8c1.81-1,3.45-1.2,4.69-.61h0l0,0C345.78,216.14,346.62,217.76,346.62,220.08Z" style="fill:#455a64"></path></g><path d="M339.37,218.15c1.28-.75,2.31-.15,2.31,1.35a5.18,5.18,0,0,1-2.31,4.05c-1.28.74-2.31.14-2.31-1.35A5.15,5.15,0,0,1,339.37,218.15Z" style="fill:#fff"></path><path d="M339.67,231a12.1,12.1,0,0,0,4.26-4.67v-.18c0-2.45-1.71-3.45-3.8-2.22l-1.31.76a8.58,8.58,0,0,0-3.78,6.3,3.33,3.33,0,0,0,.34.32h0l0,0C336.5,232,338,231.92,339.67,231Z" style="fill:#fff"></path></g><g id="freepik--voice-note--inject-4"><path d="M294.9,276.32c-1.59-.92-3.56-.88-5.68.36l-50.8,29.66c-5.24,3.06-9.49,12.17-9.49,20.32,0,4.83,1.5,8.25,3.81,9.59l3.45,2c1.58.91,3.53.85,5.64-.38l50.8-29.66c5.24-3.05,9.5-12.17,9.5-20.31,0-4.83-1.5-8.25-3.81-9.6Z" style="fill:#890031"></path><path d="M294.9,276.32c-1.59-.92-3.56-.88-5.68.36l-50.8,29.66c-5.24,3.06-9.49,12.17-9.49,20.32,0,4.83,1.5,8.25,3.81,9.59l3.45,2c1.58.91,3.53.85,5.64-.38l50.8-29.66c5.24-3.05,9.5-12.17,9.5-20.31,0-4.83-1.5-8.25-3.81-9.6Z" style="fill:#fff;opacity:0.30000000000000004"></path><path d="M292.63,279.53l-50.8,29.65c-4.93,2.89-8.94,11.47-8.94,19.15s4,11.58,8.94,8.7l50.8-29.65c4.94-2.88,8.95-11.47,8.95-19.15S297.57,276.65,292.63,279.53Z" style="fill:#fff"></path><g id="freepik--audio--inject-4"><path d="M253.44,315.93v1.2a.34.34,0,1,1-.67,0v-1.2a.34.34,0,0,1,.67,0Z" style="fill:#890031"></path><path d="M255.14,311.58v7.92a.35.35,0,0,1-.34.35.35.35,0,0,1-.34-.35v-7.92a.35.35,0,0,1,.34-.35A.35.35,0,0,1,255.14,311.58Z" style="fill:#890031"></path><path d="M256.84,312.38v4.34a.34.34,0,0,1-.34.34.34.34,0,0,1-.34-.34v-4.34a.34.34,0,0,1,.34-.34A.34.34,0,0,1,256.84,312.38Z" style="fill:#890031"></path><path d="M258.54,307.21v12.7a.34.34,0,1,1-.68,0v-12.7a.34.34,0,1,1,.68,0Z" style="fill:#890031"></path><path d="M260.24,311.55v2a.35.35,0,0,1-.35.34.34.34,0,0,1-.33-.34v-2a.34.34,0,0,1,.33-.34A.35.35,0,0,1,260.24,311.55Z" style="fill:#890031"></path><path d="M261.94,309v5.11a.35.35,0,0,1-.35.34.34.34,0,0,1-.33-.34V309a.34.34,0,0,1,.33-.34A.35.35,0,0,1,261.94,309Z" style="fill:#890031"></path><path d="M263.63,304.34v12.49a.34.34,0,1,1-.67,0V304.34a.34.34,0,1,1,.67,0Z" style="fill:#890031"></path><path d="M265.33,304.64v9.91a.35.35,0,0,1-.34.35.35.35,0,0,1-.34-.35v-9.91a.35.35,0,0,1,.34-.35A.35.35,0,0,1,265.33,304.64Z" style="fill:#890031"></path><path d="M267,301.46v14.28a.34.34,0,1,1-.68,0V301.46a.34.34,0,0,1,.68,0Z" style="fill:#890031"></path><path d="M268.73,304.19V311a.35.35,0,0,1-.34.35.34.34,0,0,1-.34-.35v-6.84a.35.35,0,0,1,.34-.35A.35.35,0,0,1,268.73,304.19Z" style="fill:#890031"></path><path d="M270.42,305.8v1.64a.34.34,0,0,1-.34.34.33.33,0,0,1-.33-.34V305.8a.33.33,0,0,1,.33-.34A.34.34,0,0,1,270.42,305.8Z" style="fill:#890031"></path><path d="M272.12,303.89v3.48a.34.34,0,0,1-.34.34.33.33,0,0,1-.33-.34v-3.48a.32.32,0,0,1,.33-.34A.33.33,0,0,1,272.12,303.89Z" style="fill:#890031"></path><path d="M273.81,300v9.37a.33.33,0,0,1-.33.35.34.34,0,0,1-.34-.35V300a.35.35,0,0,1,.34-.35A.34.34,0,0,1,273.81,300Z" style="fill:#890031"></path><path d="M275.51,295.65v16a.34.34,0,0,1-.33.35.35.35,0,0,1-.34-.35v-16a.34.34,0,0,1,.34-.34A.33.33,0,0,1,275.51,295.65Z" style="fill:#890031"></path><path d="M277.21,295.54v14.23a.32.32,0,0,1-.33.34.33.33,0,0,1-.34-.34V295.54a.34.34,0,0,1,.34-.34A.33.33,0,0,1,277.21,295.54Z" style="fill:#890031"></path><path d="M278.91,298.34V305a.34.34,0,0,1-.34.34.33.33,0,0,1-.33-.34v-6.64a.33.33,0,0,1,.33-.33A.34.34,0,0,1,278.91,298.34Z" style="fill:#890031"></path><path d="M280.61,299.66v2a.34.34,0,0,1-.68,0v-2a.34.34,0,0,1,.68,0Z" style="fill:#890031"></path><path d="M297.55,290.19v1.19a.34.34,0,0,1-.34.34.33.33,0,0,1-.33-.34v-1.19a.33.33,0,0,1,.33-.34A.34.34,0,0,1,297.55,290.19Z" style="fill:#890031"></path><path d="M295.85,287.81v7.93a.34.34,0,0,1-.34.34.33.33,0,0,1-.33-.34v-7.93a.33.33,0,0,1,.33-.34A.34.34,0,0,1,295.85,287.81Z" style="fill:#890031"></path><path d="M294.15,290.59v4.35a.34.34,0,0,1-.34.34.33.33,0,0,1-.33-.34v-4.35a.34.34,0,0,1,.33-.34A.34.34,0,0,1,294.15,290.59Z" style="fill:#890031"></path><path d="M292.45,287.41v12.7a.33.33,0,0,1-.33.34.34.34,0,0,1-.34-.34v-12.7a.35.35,0,0,1,.34-.35A.34.34,0,0,1,292.45,287.41Z" style="fill:#890031"></path><path d="M290.75,293.74v2a.33.33,0,0,1-.33.33.34.34,0,0,1-.34-.33v-2a.35.35,0,0,1,.34-.35A.34.34,0,0,1,290.75,293.74Z" style="fill:#890031"></path><path d="M289.06,293.19v5.1a.34.34,0,1,1-.68,0v-5.1a.34.34,0,1,1,.68,0Z" style="fill:#890031"></path><path d="M287.36,290.49V303a.34.34,0,0,1-.34.34.34.34,0,0,1-.33-.34V290.49a.34.34,0,0,1,.33-.35A.35.35,0,0,1,287.36,290.49Z" style="fill:#890031"></path><path d="M285.67,292.77v9.91a.35.35,0,0,1-.35.34.33.33,0,0,1-.33-.34v-9.91a.33.33,0,0,1,.33-.35A.35.35,0,0,1,285.67,292.77Z" style="fill:#890031"></path><path d="M284,291.57v14.28a.35.35,0,0,1-.34.35.35.35,0,0,1-.34-.35V291.57a.34.34,0,0,1,.34-.34A.34.34,0,0,1,284,291.57Z" style="fill:#890031"></path><path d="M282.27,297v5.33a.34.34,0,1,1-.68,0V297a.34.34,0,1,1,.68,0Z" style="fill:#890031"></path><path d="M280.57,299.88v1.63a.35.35,0,0,1-.34.35.33.33,0,0,1-.3-.2.37.37,0,0,1,0-.15v-1.63a.37.37,0,0,1,.34-.34A.34.34,0,0,1,280.57,299.88Z" style="fill:#890031"></path></g><path d="M292.63,278.68l-50.8,29.65c-5.23,3.06-9.49,12.17-9.49,20.32s4.26,12.29,9.49,9.24l50.8-29.66c5.24-3.05,9.5-12.17,9.5-20.31S297.87,275.63,292.63,278.68Zm0,28.7L241.83,337c-4.93,2.88-8.94-1-8.94-8.7s4-16.26,8.94-19.15l50.8-29.65c4.94-2.88,8.95,1,8.95,8.7S297.57,304.5,292.63,307.38Z" style="fill:#890031"></path><g style="opacity:0.5"><path d="M292.63,278.68l-50.8,29.65c-5.23,3.06-9.49,12.17-9.49,20.32s4.26,12.29,9.49,9.24l50.8-29.66c5.24-3.05,9.5-12.17,9.5-20.31S297.87,275.63,292.63,278.68Zm0,28.7L241.83,337c-4.93,2.88-8.94-1-8.94-8.7s4-16.26,8.94-19.15l50.8-29.65c4.94-2.88,8.95,1,8.95,8.7S297.57,304.5,292.63,307.38Z" style="fill:#fff"></path></g><path d="M243.14,312.48c-3.5,2-6.35,8.13-6.35,13.57s2.85,8.22,6.35,6.18,6.34-8.14,6.34-13.58S246.64,310.44,243.14,312.48Zm0,18.89c-3.2,1.87-5.8-.66-5.8-5.64s2.6-10.54,5.8-12.4,5.79.66,5.79,5.64S246.33,329.51,243.14,331.37Z" style="fill:#890031"></path><path d="M240.81,328v-8.6c0-.49.33-1,.61-.93l5.16,1.29c.29.07.29.73,0,1.14l-5.16,7.31C241.14,328.62,240.81,328.5,240.81,328Z" style="fill:#890031"></path><g id="freepik--sync-icon--inject-4"><path d="M223.88,332a15.58,15.58,0,0,1-6.95,12.18c-2,1.16-3.77,1.23-5,.41l-.06,0h0c-1.13-.77-1.85-2.3-1.85-4.43a14.62,14.62,0,0,1,2.32-7.39,13.86,13.86,0,0,1,4.64-4.79c1.8-1.05,3.45-1.21,4.68-.62,0,0,0,0,0,0l.05,0C223,328.09,223.88,329.7,223.88,332Z" style="fill:#890031"></path></g><g id="freepik--sync-icon--inject-4" style="opacity:0.5"><path d="M223.88,332a15.58,15.58,0,0,1-6.95,12.18c-2,1.16-3.77,1.23-5,.41l-.06,0h0c-1.13-.77-1.85-2.3-1.85-4.43a14.62,14.62,0,0,1,2.32-7.39,13.86,13.86,0,0,1,4.64-4.79c1.8-1.05,3.45-1.21,4.68-.62,0,0,0,0,0,0l.05,0C223,328.09,223.88,329.7,223.88,332Z" style="fill:#fff"></path></g><path d="M216.63,330.09c1.28-.75,2.32-.14,2.32,1.35a5.19,5.19,0,0,1-2.32,4.05c-1.27.75-2.31.14-2.31-1.35A5.21,5.21,0,0,1,216.63,330.09Z" style="fill:#fff"></path><path d="M216.94,342.9a12.22,12.22,0,0,0,4.25-4.67V338c0-2.45-1.7-3.44-3.8-2.22l-1.31.77a8.55,8.55,0,0,0-3.77,6.3,2.5,2.5,0,0,0,.34.31v0l.05,0C213.77,343.93,215.27,343.87,216.94,342.9Z" style="fill:#fff"></path></g><g id="freepik--voice-note--inject-4"><path d="M320.43,305.93c-1.58-.93-3.55-.88-5.68.36L264,335.94c-5.23,3.06-9.49,12.18-9.49,20.33,0,4.83,1.5,8.24,3.81,9.59l3.45,2c1.58.91,3.54.85,5.65-.39l50.8-29.65c5.23-3.06,9.5-12.17,9.5-20.32,0-4.82-1.5-8.24-3.81-9.59Z" style="fill:#455a64"></path><path d="M318.17,309.14l-50.8,29.65c-4.93,2.88-8.94,11.47-8.94,19.15s4,11.58,8.94,8.7L318.17,337c4.93-2.88,8.95-11.47,8.95-19.15S323.1,306.26,318.17,309.14Z" style="fill:#fff"></path><g id="freepik--audio--inject-4"><path d="M279,345.54v1.2a.33.33,0,0,1-.34.33.34.34,0,0,1-.34-.33v-1.2a.35.35,0,0,1,.34-.34A.34.34,0,0,1,279,345.54Z" style="fill:#455a64"></path><path d="M280.68,341.19v7.92a.34.34,0,1,1-.68,0v-7.92a.34.34,0,1,1,.68,0Z" style="fill:#455a64"></path><path d="M282.38,342v4.35a.35.35,0,0,1-.35.34.34.34,0,0,1-.33-.34V342a.34.34,0,0,1,.33-.34A.35.35,0,0,1,282.38,342Z" style="fill:#455a64"></path><path d="M284.08,336.82v12.69a.35.35,0,0,1-.35.35.34.34,0,0,1-.33-.35V336.82a.34.34,0,0,1,.33-.35A.35.35,0,0,1,284.08,336.82Z" style="fill:#455a64"></path><path d="M285.77,341.16v2a.34.34,0,1,1-.67,0v-2a.34.34,0,1,1,.67,0Z" style="fill:#455a64"></path><path d="M287.47,338.63v5.11a.34.34,0,0,1-.34.34.34.34,0,0,1-.34-.34v-5.11a.34.34,0,0,1,.34-.34A.34.34,0,0,1,287.47,338.63Z" style="fill:#455a64"></path><path d="M289.17,333.94v12.5a.34.34,0,1,1-.68,0v-12.5a.34.34,0,0,1,.68,0Z" style="fill:#455a64"></path><path d="M290.87,334.25v9.91a.34.34,0,0,1-.34.34.34.34,0,0,1-.34-.34v-9.91a.34.34,0,0,1,.34-.35A.35.35,0,0,1,290.87,334.25Z" style="fill:#455a64"></path><path d="M292.57,331.07v14.28a.35.35,0,0,1-.35.35.34.34,0,0,1-.33-.35V331.07a.34.34,0,0,1,.33-.35A.35.35,0,0,1,292.57,331.07Z" style="fill:#455a64"></path><path d="M294.26,333.8v6.84a.35.35,0,0,1-.34.35.34.34,0,0,1-.33-.35V333.8a.33.33,0,0,1,.33-.35A.34.34,0,0,1,294.26,333.8Z" style="fill:#455a64"></path><path d="M296,335.41v1.64a.34.34,0,0,1-.68,0v-1.64a.34.34,0,1,1,.68,0Z" style="fill:#455a64"></path><path d="M297.65,333.49V337a.34.34,0,0,1-.33.34A.34.34,0,0,1,297,337v-3.49a.34.34,0,0,1,.34-.34A.33.33,0,0,1,297.65,333.49Z" style="fill:#455a64"></path><path d="M299.35,329.56v9.37a.34.34,0,0,1-.33.35.35.35,0,0,1-.34-.35v-9.37a.35.35,0,0,1,.34-.35A.34.34,0,0,1,299.35,329.56Z" style="fill:#455a64"></path><path d="M301.05,325.25v16a.34.34,0,0,1-.34.34.33.33,0,0,1-.33-.34v-16a.34.34,0,0,1,.33-.34A.34.34,0,0,1,301.05,325.25Z" style="fill:#455a64"></path><path d="M302.75,325.14v14.24a.34.34,0,0,1-.34.34.33.33,0,0,1-.33-.34V325.14a.32.32,0,0,1,.33-.33A.33.33,0,0,1,302.75,325.14Z" style="fill:#455a64"></path><path d="M304.45,328v6.64a.34.34,0,0,1-.34.34.33.33,0,0,1-.33-.34V328a.34.34,0,0,1,.33-.34A.34.34,0,0,1,304.45,328Z" style="fill:#455a64"></path><path d="M306.14,329.26v2a.34.34,0,0,1-.33.34.34.34,0,0,1-.34-.34v-2a.34.34,0,0,1,.34-.34A.34.34,0,0,1,306.14,329.26Z" style="fill:#455a64"></path><path d="M323.08,319.79V321a.33.33,0,0,1-.33.34.34.34,0,0,1-.34-.34v-1.2a.34.34,0,0,1,.34-.33A.33.33,0,0,1,323.08,319.79Z" style="fill:#455a64"></path><path d="M321.38,317.42v7.93a.34.34,0,0,1-.33.34.34.34,0,0,1-.34-.34v-7.93a.34.34,0,0,1,.34-.34A.33.33,0,0,1,321.38,317.42Z" style="fill:#455a64"></path><path d="M319.69,320.2v4.35a.34.34,0,0,1-.34.34.33.33,0,0,1-.33-.34V320.2a.34.34,0,0,1,.33-.34A.34.34,0,0,1,319.69,320.2Z" style="fill:#455a64"></path><path d="M318,317v12.69a.35.35,0,0,1-.34.35.34.34,0,0,1-.33-.35V317a.33.33,0,0,1,.33-.35A.34.34,0,0,1,318,317Z" style="fill:#455a64"></path><path d="M316.29,323.35v2a.34.34,0,0,1-.34.34.33.33,0,0,1-.33-.34v-2A.33.33,0,0,1,316,323,.34.34,0,0,1,316.29,323.35Z" style="fill:#455a64"></path><path d="M314.59,322.79v5.11a.34.34,0,0,1-.33.35.35.35,0,0,1-.34-.35v-5.11a.34.34,0,0,1,.34-.34A.34.34,0,0,1,314.59,322.79Z" style="fill:#455a64"></path><path d="M312.9,320.1v12.49a.34.34,0,0,1-.68,0V320.1a.34.34,0,1,1,.68,0Z" style="fill:#455a64"></path><path d="M311.2,322.37v9.92a.34.34,0,1,1-.68,0v-9.92a.34.34,0,1,1,.68,0Z" style="fill:#455a64"></path><path d="M309.5,321.18v14.28a.34.34,0,1,1-.67,0V321.18a.34.34,0,1,1,.67,0Z" style="fill:#455a64"></path><path d="M307.81,326.65V332a.34.34,0,0,1-.35.33.33.33,0,0,1-.33-.33v-5.33a.34.34,0,0,1,.33-.34A.35.35,0,0,1,307.81,326.65Z" style="fill:#455a64"></path><path d="M306.11,329.48v1.64a.35.35,0,0,1-.34.35.32.32,0,0,1-.3-.2.28.28,0,0,1,0-.15v-1.64a.25.25,0,0,1,0-.14.32.32,0,0,1,.3-.19A.34.34,0,0,1,306.11,329.48Z" style="fill:#455a64"></path></g><path d="M318.17,308.28l-50.8,29.66c-5.23,3.06-9.49,12.17-9.49,20.32s4.26,12.29,9.49,9.23l50.8-29.65c5.23-3.06,9.5-12.17,9.5-20.32S323.4,305.23,318.17,308.28Zm0,28.71-50.8,29.65c-4.93,2.88-8.94-1-8.94-8.7s4-16.27,8.94-19.15l50.8-29.65c4.93-2.88,8.95,1,8.95,8.7S323.1,334.11,318.17,337Z" style="fill:#37474f"></path><path d="M268.67,342.09c-3.49,2-6.34,8.12-6.34,13.57s2.85,8.22,6.34,6.17S275,353.7,275,348.25,272.17,340,268.67,342.09Zm0,18.89c-3.19,1.86-5.8-.66-5.8-5.64s2.61-10.54,5.8-12.41,5.8.67,5.8,5.65S271.87,359.12,268.67,361Z" style="fill:#455a64"></path><path d="M266.34,357.62V349c0-.49.34-1,.62-.93l5.16,1.28c.29.08.29.73,0,1.15L267,357.83C266.68,358.23,266.34,358.11,266.34,357.62Z" style="fill:#455a64"></path><g id="freepik--sync-icon--inject-4"><path d="M346.62,308.9a15.55,15.55,0,0,1-7,12.18c-2,1.16-3.76,1.23-5,.41l-.06,0h0c-1.14-.77-1.85-2.3-1.85-4.43a14.7,14.7,0,0,1,2.31-7.39,14,14,0,0,1,4.64-4.79c1.81-1,3.45-1.21,4.69-.62,0,0,0,0,0,0l0,0C345.78,305,346.62,306.57,346.62,308.9Z" style="fill:#455a64"></path></g><path d="M339.37,307c1.28-.74,2.31-.14,2.31,1.35a5.18,5.18,0,0,1-2.31,4.05c-1.28.75-2.31.14-2.31-1.35A5.18,5.18,0,0,1,339.37,307Z" style="fill:#fff"></path><path d="M339.67,319.77a12.25,12.25,0,0,0,4.26-4.67v-.19c0-2.45-1.71-3.44-3.8-2.22l-1.31.77a8.56,8.56,0,0,0-3.78,6.3c.12.11.22.23.34.32h0l0,0C336.5,320.8,338,320.74,339.67,319.77Z" style="fill:#fff"></path></g></g><g id="freepik--speech-bubbles-3--inject-4"><path id="freepik--Messages--inject-4" d="M237.51,77.4h25.06c4.2,5.33,9.41,8,15.54,8a22.66,22.66,0,0,0,3.53-.28.73.73,0,0,0,.62-.7.75.75,0,0,0-.57-.75c-2.16-.49-4.94-2.83-6.2-6.28h10.83a8.88,8.88,0,0,0,8.86-8.86V36.82A8.87,8.87,0,0,0,286.32,28H237.51a8.86,8.86,0,0,0-8.85,8.86V68.54A8.87,8.87,0,0,0,237.51,77.4Zm0-1.48a7.39,7.39,0,0,1-7.38-7.38V36.82a7.39,7.39,0,0,1,7.38-7.38h48.81a7.39,7.39,0,0,1,7.38,7.38V68.54a7.39,7.39,0,0,1-7.38,7.38H274.48a.75.75,0,0,0-.59.29.74.74,0,0,0-.13.64,13,13,0,0,0,5,7.08c-6.07.19-11.14-2.42-15.21-7.72a.73.73,0,0,0-.58-.29Zm-32.69-6.37V94.82A7.21,7.21,0,0,0,212,102h8.4c-1,2.51-3.09,4.33-4.75,4.71a.74.74,0,0,0,0,1.45,18.56,18.56,0,0,0,2.74.21A15.63,15.63,0,0,0,231,102h19.88a7.21,7.21,0,0,0,7.2-7.2V81.3a.74.74,0,0,0-1.48,0V94.82a5.73,5.73,0,0,1-5.72,5.72H230.65a.73.73,0,0,0-.58.29c-3.11,4-7,6.09-11.54,6.09a10.56,10.56,0,0,0,3.64-5.45.74.74,0,0,0-.71-.93H212a5.73,5.73,0,0,1-5.73-5.72V69.55A5.73,5.73,0,0,1,212,63.83h12.58a.74.74,0,1,0,0-1.48H212A7.22,7.22,0,0,0,204.82,69.55Zm52.12-15.4a5,5,0,1,0,5-5A5,5,0,0,0,256.94,54.15Zm1.48,0a3.5,3.5,0,1,1,3.5,3.5A3.5,3.5,0,0,1,258.42,54.15Zm-17.2,0a5,5,0,1,0,5-5A5,5,0,0,0,241.22,54.15Zm1.48,0a3.5,3.5,0,1,1,3.5,3.5A3.5,3.5,0,0,1,242.7,54.15Zm30,0a5,5,0,1,0,5-5A5,5,0,0,0,272.66,54.15Zm1.48,0a3.5,3.5,0,1,1,3.5,3.5A3.5,3.5,0,0,1,274.14,54.15Z" style="fill:#e0e0e0"></path></g><g id="freepik--speech-bubbles-2--inject-4"><g id="freepik--speech-bubble--inject-4"><path d="M107.14,57.9C107.14,44,91.39,32.7,72,32.7S36.8,44,36.8,57.9,52.54,83.09,72,83.09c1.17,0,2.32,0,3.46-.12,3.84,7.22,10.38,8.46,15.46,7.88a9.51,9.51,0,0,1-5.43-9.68C98.19,77.38,107.14,68.39,107.14,57.9Z" style="fill:#fff"></path><path d="M88.75,91.34a14.68,14.68,0,0,1-13.53-8c-1.09.07-2.19.11-3.25.11C52.37,83.46,36.43,72,36.43,57.9S52.37,32.33,72,32.33,107.51,43.8,107.51,57.9c0,10.31-8.51,19.54-21.71,23.55A9.19,9.19,0,0,0,91,90.52a.38.38,0,0,1,.21.39.38.38,0,0,1-.32.31A20.45,20.45,0,0,1,88.75,91.34ZM75.43,82.6a.38.38,0,0,1,.33.2,14.14,14.14,0,0,0,13.86,7.79,10,10,0,0,1-4.53-9.45.38.38,0,0,1,.26-.32c13-3.88,21.42-12.87,21.42-22.92,0-13.7-15.61-24.84-34.8-24.84S37.16,44.2,37.16,57.9,52.78,82.73,72,82.73c1.12,0,2.28,0,3.44-.13Z" style="fill:#e0e0e0"></path><path d="M60.21,58.61A3.58,3.58,0,1,1,56.63,55,3.58,3.58,0,0,1,60.21,58.61Z" style="fill:#e0e0e0"></path><path d="M75.55,58.61A3.58,3.58,0,1,1,72,55,3.58,3.58,0,0,1,75.55,58.61Z" style="fill:#e0e0e0"></path><path d="M90.89,58.61A3.58,3.58,0,1,1,87.31,55,3.58,3.58,0,0,1,90.89,58.61Z" style="fill:#e0e0e0"></path></g><g id="freepik--speech-bubble--inject-4"><path d="M392.86,57.9c0-13.92,15.75-25.2,35.17-25.2S463.2,44,463.2,57.9,447.46,83.09,428,83.09c-1.17,0-2.32,0-3.46-.12-3.84,7.22-10.38,8.46-15.46,7.88a9.51,9.51,0,0,0,5.43-9.68C401.81,77.38,392.86,68.39,392.86,57.9Z" style="fill:#fff"></path><path d="M409.07,91.22a.38.38,0,0,1-.32-.31.38.38,0,0,1,.21-.39,9.19,9.19,0,0,0,5.24-9.07c-13.2-4-21.71-13.24-21.71-23.55,0-14.1,15.94-25.57,35.54-25.57S463.57,43.8,463.57,57.9,447.63,83.46,428,83.46c-1.06,0-2.16,0-3.25-.11a14.68,14.68,0,0,1-13.53,8A20.45,20.45,0,0,1,409.07,91.22Zm15.52-8.62c1.16.09,2.32.13,3.44.13,19.19,0,34.81-11.14,34.81-24.83S447.22,33.06,428,33.06s-34.8,11.14-34.8,24.84c0,10.05,8.4,19,21.42,22.92a.38.38,0,0,1,.26.32,10,10,0,0,1-4.53,9.45,14.14,14.14,0,0,0,13.86-7.79.38.38,0,0,1,.33-.2Z" style="fill:#e0e0e0"></path><path d="M439.79,58.61A3.58,3.58,0,1,0,443.37,55,3.58,3.58,0,0,0,439.79,58.61Z" style="fill:#e0e0e0"></path><path d="M424.45,58.61A3.58,3.58,0,1,0,428,55,3.58,3.58,0,0,0,424.45,58.61Z" style="fill:#e0e0e0"></path><path d="M409.11,58.61A3.58,3.58,0,1,0,412.69,55,3.58,3.58,0,0,0,409.11,58.61Z" style="fill:#e0e0e0"></path></g></g><g id="freepik--speech-bubbles-1--inject-4"><g id="freepik--speech-bubble--inject-4"><g id="freepik--speech-bubble--inject-4"><path d="M179.54,93.56a23.83,23.83,0,0,1-6.3,16.2l-1.94,1.87a23.24,23.24,0,0,1-15.14,5.68,23.73,23.73,0,0,1-17.94-39l1.85-2a23.22,23.22,0,0,1,16-6.45A23.6,23.6,0,0,1,179.54,93.56Z" style="fill:#fff"></path><path d="M156,67.92a25.72,25.72,0,0,0-4.11,51l2.87,7.44a1.47,1.47,0,0,0,2.75,0l2.84-7.45a25.72,25.72,0,0,0-4.35-51Zm23.5,25.64a23.83,23.83,0,0,1-6.3,16.2l-1.94,1.87a23.24,23.24,0,0,1-15.14,5.68,23.73,23.73,0,0,1-17.94-39l1.85-2a23.22,23.22,0,0,1,16-6.45A23.6,23.6,0,0,1,179.54,93.56Z" style="fill:#455a64"></path><path d="M179.54,93.56a23.83,23.83,0,0,1-6.3,16.2l-1.94,1.87a23.24,23.24,0,0,1-15.14,5.68,23.73,23.73,0,0,1-17.94-39l1.85-2a23.22,23.22,0,0,1,16-6.45A23.6,23.6,0,0,1,179.54,93.56Z" style="fill:#fff;opacity:0.7000000000000001"></path></g><path d="M162.66,91.06H149.54a.67.67,0,0,1-.61-.72V84.68a9.06,9.06,0,0,1,2.1-5.92,6.66,6.66,0,0,1,5.07-2.46c4,0,7.18,3.75,7.18,8.38v5.66A.68.68,0,0,1,162.66,91.06Z" style="fill:#890031"></path><path d="M149.58,92.72h13a.7.7,0,0,1,.62.8c-.35,4.25-3.41,7.59-7.15,7.59s-6.8-3.34-7.14-7.59A.7.7,0,0,1,149.58,92.72Z" style="fill:#890031"></path><g style="opacity:0.30000000000000004"><path d="M162.66,91.06H149.54a.67.67,0,0,1-.61-.72V84.68a9.06,9.06,0,0,1,2.1-5.92,6.66,6.66,0,0,1,5.07-2.46c4,0,7.18,3.75,7.18,8.38v5.66A.68.68,0,0,1,162.66,91.06Z" style="fill:#fff"></path><path d="M149.58,92.72h13a.7.7,0,0,1,.62.8c-.35,4.25-3.41,7.59-7.15,7.59s-6.8-3.34-7.14-7.59A.7.7,0,0,1,149.58,92.72Z" style="fill:#fff"></path></g><path d="M166.65,93.42a.68.68,0,1,0-1.35,0,9.2,9.2,0,1,1-18.4,0,.67.67,0,1,0-1.34,0,10.62,10.62,0,0,0,9.87,10.63v4.84h-2.78a1,1,0,0,0,0,2h6.9a1,1,0,0,0,0-2h-2.78v-4.84A10.62,10.62,0,0,0,166.65,93.42Z" style="fill:#890031"></path><path d="M166.65,93.42a.68.68,0,1,0-1.35,0,9.2,9.2,0,1,1-18.4,0,.67.67,0,1,0-1.34,0,10.62,10.62,0,0,0,9.87,10.63v4.84h-2.78a1,1,0,0,0,0,2h6.9a1,1,0,0,0,0-2h-2.78v-4.84A10.62,10.62,0,0,0,166.65,93.42Z" style="fill:#fff;opacity:0.30000000000000004"></path></g><g id="freepik--speech-bubble--inject-4"><g id="freepik--speech-bubble--inject-4"><path d="M367.32,93.49A23.63,23.63,0,0,1,361,109.65l-2,1.86a23.58,23.58,0,0,1-33.28-33.2l1.86-2a23.54,23.54,0,0,1,39.71,17.14Z" style="fill:#fff"></path><path d="M343.68,67.92a25.63,25.63,0,0,0-4.14,50.91l2.89,7.41a1.48,1.48,0,0,0,2.77,0l2.86-7.44a25.63,25.63,0,0,0-4.38-50.88Zm23.64,25.57A23.63,23.63,0,0,1,361,109.65l-2,1.86a23.58,23.58,0,0,1-33.28-33.2l1.86-2a23.54,23.54,0,0,1,39.71,17.14Z" style="fill:#455a64"></path><path d="M367.32,93.49A23.63,23.63,0,0,1,361,109.65l-2,1.86a23.58,23.58,0,0,1-33.28-33.2l1.86-2a23.54,23.54,0,0,1,39.71,17.14Z" style="fill:#fff;opacity:0.7000000000000001"></path></g><path d="M343.74,78.22a15.33,15.33,0,1,0,15.47,15.33A15.4,15.4,0,0,0,343.74,78.22Zm8.6,16.21-13.25,7.17a1.07,1.07,0,0,1-1.57-.94V86.44a1.07,1.07,0,0,1,1.57-1l13.25,7.06A1.06,1.06,0,0,1,352.34,94.43Z" style="fill:#890031"></path><path d="M343.74,78.22a15.33,15.33,0,1,0,15.47,15.33A15.4,15.4,0,0,0,343.74,78.22Zm8.6,16.21-13.25,7.17a1.07,1.07,0,0,1-1.57-.94V86.44a1.07,1.07,0,0,1,1.57-1l13.25,7.06A1.06,1.06,0,0,1,352.34,94.43Z" style="fill:#fff;opacity:0.30000000000000004"></path></g></g><g id="freepik--character-2--inject-4"><g id="freepik--Character--inject-4"><g id="freepik--Bottom--inject-4"><path d="M446.2,371.75c-.91-12.8.14-18.16-.9-38.15h0c-.09-5.13-.27-10.61-.61-15.49-1.13-16.4-3.59-22-3.82-25.18,0,0,.24-19.67-.8-55.56-.5-16.89-5.27-22-9.08-31H382.88c-2.8,22.32-3.13,63.76-3,86.56.08,11.62,4.59,69.39,4.68,70.82.32,5.07-.11,7.08-2.05,9.21-4.06,4.47-9.95,8.72-15,12.62.73,2,6.85,1.92,9.88.4a77.7,77.7,0,0,0,11.3-7.38c4.18-3.18,9.53-5.72,9.59-10.55a6.63,6.63,0,0,1,.14-.87c.08-2.82,6.56-40,7.09-49.66.46-8.29-.52-22.37-.52-22.37l4.62-28.56s2.56,14.91,5.81,29.1c2.65,11.54,7.38,26.8,10.36,41h0c2.87,16.37,7.08,28,7.81,36.22.21,1.95,2.38,21.16,3.27,25.56s10.24,4.51,10.84-3.05C448.09,390.42,446.37,374.16,446.2,371.75Z" style="fill:#c8856a"></path><path d="M358.84,390.71c-.26,0-.68,2.92.71,4.18,1.61,1.45,6.34,3.86,12.65,3.09s9.73-2.72,12.27-4.86,6.1-5.14,8.95-5.75c2.65-.57,5.54-1.77,6.39-2.6s.78-4.55.78-4.55Z" style="fill:#263238"></path><path d="M398.55,365.85s.47,0,.62.88c.19,1,.37,4,.76,5.71a30.89,30.89,0,0,1,.53,9.06c-.37,1.91-4.69,3.18-7.46,4.23a35.33,35.33,0,0,0-9,5.68c-3,2.47-9.23,4.91-13.33,4.92-6.26,0-10.3-1.76-11.53-4.08-1.51-2.87-.28-4.51,7-7.85,1.37-.63,6.18-3.48,7.82-4.52a36.83,36.83,0,0,0,4.94-3.68,28.8,28.8,0,0,0,2.22-2.2,10.31,10.31,0,0,0,1.85-2.37c.08-.19.14-.42.21-.62a10.34,10.34,0,0,0,.49-1.73c.12-.61.21-1.5.78-1.86a4.69,4.69,0,0,1,2.57-.29,20.1,20.1,0,0,1,2.78.44c1.05.25,2.28.36,2.89,1.39a5.47,5.47,0,0,1,.57,2.68c0,.43,0,.86,0,1.29,0,.19-.08.52.17.44s.51-.71.61-.93c.2-.48.33-1,.56-1.46a7.51,7.51,0,0,1,.91-1.55,7.13,7.13,0,0,1,1.15-1.18,13.22,13.22,0,0,0,1.24-.81A3.1,3.1,0,0,0,398.55,365.85Z" style="fill:#37474f"></path><path d="M364.93,385c9.06.74,11.86,6.51,12.2,10.07a20.67,20.67,0,0,1-6.45,1.31c-6.26,0-10.55-1.76-11.78-4.08C357.46,389.54,358.48,387.38,364.93,385Z" style="fill:#fafafa"></path><path d="M378.52,385.2a.48.48,0,0,0,.28-.1.47.47,0,0,0,.07-.64,10.52,10.52,0,0,0-8.16-3.41.47.47,0,0,0-.4.5.45.45,0,0,0,.48.41,9.8,9.8,0,0,1,7.39,3.06A.45.45,0,0,0,378.52,385.2Z" style="fill:#f0f0f0"></path><path d="M382.45,382.91a.42.42,0,0,0,.28-.1.47.47,0,0,0,.07-.64,10.55,10.55,0,0,0-8.16-3.41.46.46,0,0,0-.4.5.44.44,0,0,0,.48.41,9.73,9.73,0,0,1,7.39,3.07A.45.45,0,0,0,382.45,382.91Z" style="fill:#f0f0f0"></path><path d="M386.09,380.28a.45.45,0,0,0,.36-.74,10.57,10.57,0,0,0-8.17-3.4.44.44,0,0,0-.39.5.43.43,0,0,0,.48.4,9.74,9.74,0,0,1,7.38,3.07A.45.45,0,0,0,386.09,380.28Z" style="fill:#f0f0f0"></path><path d="M389.67,377.66a.41.41,0,0,0,.27-.1.46.46,0,0,0,.08-.64c-1.71-2.26-5.62-3.79-8.91-3.45a.44.44,0,0,0-.4.49.44.44,0,0,0,.48.41c3-.3,6.61,1.1,8.13,3.11A.44.44,0,0,0,389.67,377.66Z" style="fill:#f0f0f0"></path><path d="M433.91,401.93c.25,4.39.91,7.29,2.43,9.86s4.38,3.38,7.28,2.63,6.61-2.76,7.44-6.55,1.32-6.37.66-10.44Z" style="fill:#263238"></path><path d="M446.1,370.19c1.19.09,1.54,6,2.23,11.87.74,6.32,2.58,8.93,3.24,14.11.75,5.92-.2,8.57-2.22,12.14s-9.19,7.09-12.71,2c-2.88-4.18-3-8.81-2.74-14.72a136.18,136.18,0,0,0-.38-15c-.23-4.43-1.19-8.9-.15-9.39.08.65.15,1.48.24,2.12a11.07,11.07,0,0,0,.38,2.36c.13.33.39.67.5.14a3.69,3.69,0,0,0,0-1.1c-.18-1.64.63-1.77,1.06-1.89a49.35,49.35,0,0,1,5.54-.81c.91-.06,4.06-.2,4.47.33a3.61,3.61,0,0,1,.4,1.71c.1.89.31,1.54.33,1.26.06-.63-.06-2.29-.08-2.69s-.07-.91-.08-1.3S446.12,370.57,446.1,370.19Z" style="fill:#37474f"></path><path d="M451.9,399.6a15,15,0,0,1-2.23,9c-2,3.58-9.76,7.1-13.29,2-1.76-2.55-2.23-5.56-2.47-8.64C436,398,448.57,396.24,451.9,399.6Z" style="fill:#fafafa"></path><path d="M436.52,395.5a.44.44,0,0,0,.15-.05s5.57-2.36,10.95-1.09a.44.44,0,0,0,.53-.34.44.44,0,0,0-.33-.54c-5.69-1.35-11.33,1-11.54,1.15a.46.46,0,0,0,.24.87Z" style="fill:#f0f0f0"></path><path d="M447.35,390a.44.44,0,0,0,.38-.3.46.46,0,0,0-.28-.58c-5.35-1.86-11.3.93-11.52,1.05a.47.47,0,0,0-.19.62.45.45,0,0,0,.6.19c.05,0,5.84-2.73,10.83-1A.37.37,0,0,0,447.35,390Z" style="fill:#f0f0f0"></path><path d="M447.16,385.79a.43.43,0,0,0,.38-.29.46.46,0,0,0-.27-.58c-5.89-2.17-11.53.88-11.74,1a.46.46,0,0,0-.15.63.44.44,0,0,0,.61.15c.05,0,5.5-2.95,11-.94A.41.41,0,0,0,447.16,385.79Z" style="fill:#f0f0f0"></path><path d="M446.87,381.7a.46.46,0,0,0,.11-.88c-5.52-2.11-11.59,1-11.82,1.15a.46.46,0,0,0-.16.62.43.43,0,0,0,.61.16c.05,0,5.94-3,11.06-1.08A.35.35,0,0,0,446.87,381.7Z" style="fill:#ebebeb"></path><path d="M434.35,206.55c5.37,10,7.21,18.25,7.75,48.1s-.21,32.36-.1,36,2.16,10,4,27.77a189.1,189.1,0,0,1,0,34.41s-1.23,2.86-7.85,3.46c-6.1.57-9.12-1.78-9.12-1.78s-8.72-30.09-11-40.77-8.37-39.94-8.37-39.94l-3.39,21.9s1.86,9.78,0,25.33a237.93,237.93,0,0,1-4.7,26.85,28.46,28.46,0,0,1-9.87,1.8,16,16,0,0,1-8.51-2.45s-4.84-41.62-4.84-59.25,1.84-60,3.49-81.19Z" style="fill:#37474f"></path><path d="M435.21,293.78s-3.35-3.59-9.8-2.79-9.07,4.68-9.07,4.68C423.24,292.48,435.21,293.78,435.21,293.78ZM420,297c3.8.77,7.59,1.12,15.91-.56C432,295.4,420,297,420,297Z" style="fill:#c8856a"></path><path d="M395.1,293.11c-2.38-1.4-11.22-3.24-16.77-2.48l.05,1.91A80,80,0,0,1,395.1,293.11ZM378.48,295l.09,1.79s8.86-.46,12.58-1.48C384.82,294.82,378.48,295,378.48,295Z" style="fill:#c8856a"></path><path d="M440.48,304.39c-.22-1-.42-2-.61-2.92-1.69-8.25-1-13.18-1-26.83,0-4.13,0-8.39,0-12.93-.15-17.78-1.48-37.69-10.26-50.53l-.7.51c5.89,8.63,8.38,20.57,9.41,32.9-8.71-1.18-10.62-10-13.21-22.14-.36-1.66-.72-3.38-1.12-5.14l-.84.2c.4,1.76.76,3.47,1.12,5.13,2.59,12.11,4.64,21.71,14.12,22.87.42,5.42.58,10.91.62,16.21,0,4.53,0,8.79,0,12.92,0,13.7-.71,18.67,1,27,.19.93.4,1.9.61,2.93,2.26,10.66,6,22.22,4.31,50.09a10,10,0,0,0,.9-.6C446.44,326.48,442.73,315,440.48,304.39ZM389,236c1.22,5.87,7.86,9.12,12,10.14l.78,3.79c-.2,3.17-.42,6.5-.65,9.94-1.27,19-2,32-1,36.4,2.49,11.65,1.76,19,.42,32.44-.14,1.37-.28,2.8-.43,4.3-.75,7.79-1.66,11-2.21,15.92l.9-.21c.55-4.91,1.43-8,2.17-15.62.15-1.5.29-2.93.43-4.3,1.34-13.5,2.09-20.93-.44-32.72-.92-4.29-.15-18.13,1-36.15.14-2.18.29-4.32.42-6.41l3.7,21,.07,21.08,3.39-21.9-5.49-31.16A21.4,21.4,0,0,1,389,236Z" style="fill:#263238"></path></g><g id="freepik--Top--inject-4"><path d="M389.85,151.36c-8.13,1.47-10,5.23-14.28,11.49-4.38,6.41-13.32,20.27-13.32,20.27l-8.09-12.69-12.38,2.77c4.31,2,7.21,15,10.36,23.65,1.2,3.29,4.51,6.76,6.36,8.23,4.16,3.29,7.67.88,11.44-3,4.19-4.26,16.14-20,16.14-20Z" style="fill:#c8856a"></path><path d="M362.25,183.12c4.68,7.42,4.44,11.72,4.44,11.72s2.17-4.14-3.35-13.41" style="fill:#af6152"></path><path d="M335.13,147.06h0l1.08-1v0a1.2,1.2,0,0,1,1.12-.15l11.9,3a4.38,4.38,0,0,1,2.71,2.46l9,24.65a1.14,1.14,0,0,1-.12,1.27h0l-1.1,1h0a1.24,1.24,0,0,1-1.13.16l-11.9-3A4.4,4.4,0,0,1,344,173c-1.77-4.85-7.26-19.81-9-24.66C334.72,147.76,334.81,147.3,335.13,147.06Z" style="fill:#455a64"></path><path d="M349.43,150.58a4.39,4.39,0,0,1,1.41,1.8l9,24.64a1.18,1.18,0,0,1-.09,1.25l1-.94h0a1.14,1.14,0,0,0,.14-1.27l-9-24.66a4.25,4.25,0,0,0-1.3-1.7Z" style="fill:#263238"></path><path d="M359.88,177l-9-24.66a4.4,4.4,0,0,0-2.72-2.45l-11.9-3c-1.1-.27-1.67.37-1.28,1.45,1.78,4.85,7.27,19.81,9,24.66a4.4,4.4,0,0,0,2.72,2.45l11.9,3C359.7,178.75,360.28,178.11,359.88,177Z" style="fill:#37474f"></path><path d="M350.93,157.58,349.24,153a.8.8,0,0,0-.51-.46L346.5,152c-.2,0-.31.07-.24.27.34.91,1.36,3.71,1.7,4.61a.79.79,0,0,0,.5.46l2.23.56C350.9,157.91,351,157.79,350.93,157.58Z" style="fill:#455a64"></path><path d="M349.15,154.08a2.05,2.05,0,0,0-1.29-1.13c-.53-.13-.82.16-.64.65a2,2,0,0,0,1.3,1.13C349.05,154.86,349.33,154.57,349.15,154.08Z" style="fill:#263238"></path><path d="M350,156.41a2,2,0,0,0-1.29-1.13c-.54-.13-.82.16-.64.65a2.08,2.08,0,0,0,1.29,1.13C349.87,157.19,350.16,156.9,350,156.41Z" style="fill:#263238"></path><path d="M336,160.51c-1.55-1.82-1.45-2.09-.79-3.16a6.12,6.12,0,0,1,4.71-3c1.7-.11,3.41-.3,4.33.08s.34,2.3-1.83,3c-3.41,1.11-3.3,2.06-3.3,2.06s3.14-1,4.42-1.21a32.42,32.42,0,0,1,5.18.32c1.49.09,1.95,2-.48,2.87l2.73.19c1.92.13,2.65,1.09,1.27,2.4a2.79,2.79,0,0,1-1.64.81s2-.19,2.11.48c.29,1.92-.91,2.55-4.86,4.11-3.76,1.49-4.37,3.67-3.47,5,0,0-1.64-.78-3.11-1.62-1.08-.61-2-1.33-1.7-3,0,0-2.21.25-2.47-1.12a7.37,7.37,0,0,1,.27-3,2.45,2.45,0,0,1-1.42-2.18,4,4,0,0,1,.58-2.5Z" style="fill:#c8856a"></path><path d="M348.2,161.47a11.86,11.86,0,0,0-2.46,0,7.68,7.68,0,0,0-2.3,1,28.55,28.55,0,0,0-4.06,2.69,27.58,27.58,0,0,0,4.4-2.06,12.38,12.38,0,0,1,2.08-1.06C346.58,161.79,347.42,161.7,348.2,161.47Z" style="fill:#af6152"></path><path d="M350.56,164.87a5.35,5.35,0,0,0-2.66.16,13.84,13.84,0,0,0-2.44,1,24.56,24.56,0,0,0-4.38,2.92,51.14,51.14,0,0,0,4.71-2.28A13.74,13.74,0,0,1,350.56,164.87Z" style="fill:#af6152"></path><path d="M390.17,151.08c-4.66.84-8.38,2.06-11.83,7.13s-11.54,17.63-11.54,17.63a26.45,26.45,0,0,0,5.81,8.36,25.43,25.43,0,0,0,8.21,5.16l5.65-7.19Z" style="fill:#890031"></path><g id="freepik--top--inject-4"><path id="freepik--Chest--inject-4" d="M419,148.08c3.44.63,9,1.54,15.65,3.11a31.17,31.17,0,0,1,3,1.25s2.57,10,1.79,34.26c-.12,3.59,0,11.79-.18,19.23a157.06,157.06,0,0,0,1.31,20.82s-11.92,8.28-36.16,7c-19-1-24-5.15-24-5.15s.79-30.78.94-44.95c.2-18.62,4.79-29.25,8.82-32.6l12.41-2.41Z" style="fill:#455a64"></path><g id="freepik--Head--inject-4"><path d="M427.59,112.38a7.21,7.21,0,0,0-3.88-3.55h0c-.81-4.14-6.15-9-16.23-9.27-8.26-.25-12.78,2.88-15.77,7.68-3.13,5-.71,11.18-.71,11.18l24.55-2.23a14.63,14.63,0,0,0-.08,4.14c.44,3.7,4.65,7.37,4.65,7.37l-.15,5.16v7.41a4.75,4.75,0,0,0,2.68-2.27A39.15,39.15,0,0,0,427,127.25C429.34,117.55,428.58,114.2,427.59,112.38Z" style="fill:#263238"></path><path d="M426.72,134.86c-3.75,2-5.55-1-5.55-1L421,149.1c-7.05,10-26.57,7-18.77-.62l-.07-3.49a21.74,21.74,0,0,1-3.3-.24c-3.37-.45-5.77-2.64-6.86-6.3-1.6-5.4-1.43-17.2-.7-23.65a6.66,6.66,0,0,1,3-4.83c4-2.12,7.78.7,13.45,2.77,2.35.86,8,1.13,9.47.38-1.91,2.24-1.73,9.15,1.22,11.88a6.35,6.35,0,0,0,1.5,1.87c1.25,1,2.19-1.76,3.2-2.88a4.2,4.2,0,0,1,6.61,1.37A7,7,0,0,1,426.72,134.86Z" style="fill:#c8856a"></path><path d="M402.13,145c4.4-.13,8.3-.78,10.87-2s4.8-4.79,5.47-8.33c.07,2.84-1,7.9-4.94,10.09s-8.47,2.41-11.36,2.55Z" style="fill:#af6152"></path><path d="M407.32,117.86,411,119.5a2.16,2.16,0,0,0-1.08-2.76A2,2,0,0,0,407.32,117.86Z" style="fill:#263238"></path><path d="M393.11,119.75l3.8-1.46a2,2,0,0,0-2.56-1.24A2.17,2.17,0,0,0,393.11,119.75Z" style="fill:#263238"></path><path d="M409.73,123.14a1.65,1.65,0,0,1-1.72,1.58,1.67,1.67,0,1,1,1.72-1.58Z" style="fill:#263238"></path><path d="M397.26,122.87a1.64,1.64,0,0,1-1.72,1.58,1.66,1.66,0,1,1,1.72-1.58Z" style="fill:#263238"></path><path d="M403,120.32l-1,10.57-6-2.13A24.65,24.65,0,0,1,403,120.32Z" style="fill:#af6152"></path><path d="M406.39,133.65l-4.3,1.38a2.21,2.21,0,0,0,2.79,1.56A2.38,2.38,0,0,0,406.39,133.65Z" style="fill:#af6152"></path><path d="M405.93,134.43a2.53,2.53,0,0,1,.54-.05,2.33,2.33,0,0,1-1.59,2.21,2,2,0,0,1-.72.09A2.08,2.08,0,0,1,405.93,134.43Z" style="fill:#f28f8f"></path></g></g><g id="freepik--Arm--inject-4"><path d="M403.4,176.22c-3.13-2.35-4.7-3.26-6.16-3.68s-6.57-2.57-8.52-3.06c-1.25-.31-1.75,1.69-.17,3.06,1.22,1.06,4.39,2.45,5.78,3.22s4.12,4.12,4.12,4.12Z" style="fill:#af6152"></path><path d="M447.31,160.86c-3.09-6.68-4.24-6.35-11.73-7.23-5.37,6.39-2.83,21.54-2.83,21.54l3.77,18.74s-18.68-5.08-20.79-6.44-7.79-7.54-9.69-9.38c-2.59-2.51-3.87-2.18-5.19-2-4.31.66-5.26,1-6.17,1.61a2,2,0,0,0-.84,1.69c-1.14.15-2.85.11-3.07,2a5.26,5.26,0,0,0-.07,1.53,1.25,1.25,0,0,0-.75.43c-.95,1.11.69,5,1.72,5.91a3.66,3.66,0,0,0,3.13.56c1.16-.16.62-1.35.62-1.35l1.63.1c3.5,2.51,3.95,8,8.58,9.08a60.24,60.24,0,0,1,6,1.66c10,3.38,24.62,13.29,33.51,14.06,8.68.75,9.55-4.58,9.69-10C454.92,198.66,450.4,167.51,447.31,160.86Z" style="fill:#c8856a"></path><path d="M436.15,192.08l.37,1.83c4,1,8.22,3.91,9.17,6.09C445,196.54,443.11,194,436.15,192.08Z" style="fill:#af6152"></path><path d="M434.66,151.19c5.7,1.63,8.19,2.42,11.36,6.08,1.85,2.12,2.51,3.88,4.21,12.18s2.93,19.21,2.93,19.21c-6.06,2.48-12,3.36-17.74,1.7,0,0-1.29-6.35-2.23-9.62S430,159.34,434.66,151.19Z" style="fill:#890031"></path><path d="M393.84,179.41l5.12-1-5,.33A2.23,2.23,0,0,0,393.84,179.41Z" style="fill:#af6152"></path><path d="M390.7,183l5.89-.78-5.9.09A3.22,3.22,0,0,0,390.7,183Z" style="fill:#af6152"></path><path d="M391.48,185.57a1.79,1.79,0,0,0,.79.7,3.76,3.76,0,0,0,1,.34l-.08-.05c.15.31.32.61.49.92l.12-.16a1.18,1.18,0,0,0-.93.23,1.63,1.63,0,0,0-.52.78,2,2,0,0,1,.6-.65,1.22,1.22,0,0,1,.8-.15l.23.05-.11-.21c-.15-.31-.32-.62-.49-.92l0,0h-.05a4.92,4.92,0,0,1-1-.27A2.15,2.15,0,0,1,391.48,185.57Z" style="fill:#af6152"></path><path d="M393,186.34a18.58,18.58,0,0,0,2.13.15,2.41,2.41,0,0,0,.73,1.14,11.78,11.78,0,0,0,1.15,1l-1.63-.1a2.6,2.6,0,0,0-1.85-1Z" style="fill:#af6152"></path></g></g></g></g><g id="freepik--character-1--inject-4"><g id="freepik--character--inject-4"><g id="freepik--bottom--inject-4"><g id="freepik--bottom--inject-4"><polygon points="105.62 382.52 108.89 380.86 105.62 380.01 105.62 382.52" style="fill:#263238"></polygon><path d="M138.44,388.05s-39.21-16.86-39.65-14.24a3.91,3.91,0,0,0,0,1.57.76.76,0,0,0-.11-.14l.8,4.85a11.59,11.59,0,0,0,6.1,2.43V380a19.73,19.73,0,0,1,3.46,1.75c2.53,1.61,4.18,4.45,6.88,7.75,2,2.4,5.43,3.48,10.54,4.12,5.5.69,10.31-.43,11.65-1.92C139.22,390.53,138.64,388.39,138.44,388.05Z" style="fill:#263238"></path><path d="M137.35,387.16c-.38-.38-1.8-1.88-3.7-3.51C132,382.23,130,380.43,128,379a20.94,20.94,0,0,1-2.83-2.24c-.69-.72-1.36-1.46-2-2.23a42.25,42.25,0,0,1-4.83-7.85c-.63-1.32-1.79-4.21-1.56-9.61.35-8.18,1-11.14.92-16.46L99.16,343.4c.59,2.94,1.28,9.5,1.61,12.84.52,5.09,1.28,5.56-.64,10.67-.56,1.51-1.42,3-1.47,4.56-.08,2.61,2,4.82,4.34,6.06,1.92,1,4.12,1.45,6,2.54a19.34,19.34,0,0,1,4.93,4.66c1.33,1.65,2.42,3.6,4.27,4.74a17.12,17.12,0,0,0,6.38,2.08,34.52,34.52,0,0,0,8.53.3C137.13,391.47,140.12,390,137.35,387.16Z" style="fill:#ffbda7"></path><path d="M135.07,384.36c-1.7-1.38-4.11-3.35-7-5.57a7.4,7.4,0,0,0-6,.64c-5.73,3.12-6.65,7.41-6.65,7.41a8.31,8.31,0,0,0,4.79,4c6.73,2.79,18.67,1.69,18.74-1.38C138.94,387.55,137.13,386,135.07,384.36ZM100.48,365.8s-.37,1-1.36,3a5.46,5.46,0,0,0,.16,5.89,8.89,8.89,0,0,0,5.92,3.87C107,372.73,102.83,367,100.48,365.8Z" style="fill:#37474f"></path><path d="M66.89,380.73c0,2.1-.49,8.34-.34,13,.15,4.28.9,11-.26,15.93s-5.61,10.44-11.46,5.64c-3.62-3-5-6.5-5.42-12.66-.26-4.27,1.58-10.15,3.16-15.36,1.86-6.08,2.58-9.34,2.58-9.34Z" style="fill:#263238"></path><path d="M55.32,349c-.63,9.95.41,17,.35,23.34a45,45,0,0,1-1.09,8.59c-.93,4.06-2.48,9.68-3.14,12.31-.92,3.67-1.6,6-.4,10.13a5,5,0,0,0,.41.95c1.73,3.44,6.25,6.1,7.72,5.71a2.54,2.54,0,0,0,2.56.94,2.84,2.84,0,0,0,.49-.1,2.92,2.92,0,0,0,.49-.19,4.92,4.92,0,0,0,2.5-3.08c.1-.28.18-.58.26-.9,1.16-5.11.46-8.44.4-10.44-.07-2.32.12-5.27.4-9s1.42-15.44,2.85-21c1-3.89,2.36-8.78,3.75-14Z" style="fill:#ffbda7"></path><path d="M50.45,398c3.64-1.5,14.11-1.52,15.67,3.55-.05,4.73-.08,7.95-3.19,12-4.14,5.4-9.27-.51-11.21-4.24S49.91,400.56,50.45,398Z" style="fill:#37474f"></path><path d="M72.69,208.83c-5.28,8.93-12.39,21.34-13,41.55-.87,26.95-1.44,46.25-1.64,49.5S55.57,309,53.45,325s.2,46.49.2,46.49,1.81,3.62,8,4.34c5.7.66,8.38-2,8.38-2s9-42.72,11.45-52.3,10.73-51.5,10.73-51.5l3,25.81s-2,8.79-.63,22.87S100.46,360,100.46,360s2.58,2.7,8.64,2.47a12.42,12.42,0,0,0,8.35-3.26s5.31-53.61,5.75-69.51,0-57.15-4.44-80.84Z" style="fill:#37474f"></path><path d="M97.15,244.59l-5,25.46,3,25.81.1-24.5,4.93-24.26c3.91-.81,14-7.53,14.81-14C109.64,241.5,97.15,244.59,97.15,244.59Zm-29,95.69q-2.43,12.39-4.54,24.86,3.09-12.27,5.85-24.59c1.86-8.22,3.62-16.43,5.37-24.7s3.77-27.06,4.71-35.43,1.67-16.76,2.3-25.16c-1.28,8.32-2.45,16.66-3.63,25s-3.4,27.05-5.06,35.27S69.71,332,68.12,340.28Zm47.64-59.69c.07,3.65.19,7.33,0,10.93s-.5,7.29-.79,10.94l-.86,11q-.87,10.95-1.48,21.95,1.61-10.89,2.82-21.83c.8-7.3,1.57-14.57,2-21.94.18-7.42-.25-14.72-.71-22.06s-1.18-14.63-2.13-21.91l.79,22C115.56,273.27,115.69,276.93,115.76,280.59Z" style="fill:#263238"></path></g></g><g id="freepik--top--inject-4"><path d="M106.63,156.05c8.44.61,9.45,2.52,16.07,8.41,6.09,5.43,18.57,17,18.57,17l-.7,18.45c-2.06-.12-6.12-3.25-12.26-7.71-5.58-4-14.87-11.1-14.87-11.1Z" style="fill:#ffbda7"></path><path d="M137.41,178a18.32,18.32,0,0,0-1.93,11.29c-1.6-2.89-1.29-9.42.36-12.71Z" style="fill:#f0997a"></path><path d="M175.37,142.83c.32-1.31,1.65-4.64,1.31-5s-1.38-.66-2.73.16-2.48,2.52-4,4.11-8.54,4.3-9.33,4.28-.05-2.15.23-4.15-.27-3.72-1.52-4.37-1.24.5-2,3-3.36,5-5.37,7.65-3.24,4.71-3.18,9.06l8.42,7.54s-.27-3.43,4.8-5.3c3.06-1.12,7.8-2.95,7.87-4.45s2-4.42,3.41-6.59A20.5,20.5,0,0,0,175.37,142.83Z" style="fill:#ffbda7"></path><path d="M164.08,153.86c-3.47-.72-10.09,1-11.27,4.82.46-2.71,1.49-4.29,4.32-5.24A9,9,0,0,1,164.08,153.86Z" style="fill:#f0997a"></path><polygon points="166.23 150.88 170.67 154.09 174.55 151.38 171.51 148.4 166.23 150.88" style="fill:#f0997a"></polygon><g id="freepik--mobile--inject-4"><path d="M171.79,133.82l-24,12.16a1.07,1.07,0,0,0-.66,1.07,1.3,1.3,0,0,0,.53,1.14l10.7,7.14a1.71,1.71,0,0,0,1.57.09l24.05-12.16a1.15,1.15,0,0,0,.6-1,1.33,1.33,0,0,0-.47-1.2l-10.7-7.15A1.46,1.46,0,0,0,171.79,133.82Z" style="fill:#37474f"></path><path d="M172.34,134.34l11,7.35L159.18,153.9l-.1,1.67a1.59,1.59,0,0,0,.8-.15l24.05-12.16a1.15,1.15,0,0,0,.6-1,1.33,1.33,0,0,0-.47-1.2l-10.7-7.15a1.49,1.49,0,0,0-1-.27v.05Z" style="fill:#263238"></path><path d="M147.89,146.82,158.63,154a1.22,1.22,0,0,0,1.1.07L183.58,142a.53.53,0,0,0,.06-1l-10.45-7A1.36,1.36,0,0,0,172,134l-24,12.14A.39.39,0,0,0,147.89,146.82Z" style="fill:#455a64"></path><path d="M176.74,145.77a.68.68,0,0,0-.34.5.21.21,0,0,0,.08.19l.21.14a.25.25,0,0,0,.22,0l2-1a.67.67,0,0,0,.34-.5.22.22,0,0,0-.07-.19l-.21-.14a.21.21,0,0,0-.23,0Z" style="fill:#455a64"></path><path d="M177,145.91l2-1c.18-.09.31,0,.3.18a.67.67,0,0,1-.34.5l-2,1c-.18.09-.31,0-.3-.18A.66.66,0,0,1,177,145.91Z" style="fill:#37474f"></path><path d="M180.17,144a.68.68,0,0,0-.34.5.19.19,0,0,0,.08.18l.21.14a.2.2,0,0,0,.22,0l2-1a.66.66,0,0,0,.34-.5.17.17,0,0,0-.07-.18l-.21-.15a.27.27,0,0,0-.23,0Z" style="fill:#455a64"></path><path d="M180.38,144.17l2-1c.18-.09.31,0,.3.18a.66.66,0,0,1-.34.5l-2,1c-.18.09-.31,0-.3-.18A.67.67,0,0,1,180.38,144.17Z" style="fill:#37474f"></path><path d="M171.39,134.71,149,146a.36.36,0,0,0,0,.69l9.71,6.48a1.27,1.27,0,0,0,1.18.08l22.55-11.41c.28-.14.34-.37.19-.56l0-.05-.11-.08-2.73-1.82-.18-.12a.38.38,0,0,0-.37,0,.43.43,0,0,1-.38,0l-3.18-2.13c-.1-.07-.11-.17,0-.22a.12.12,0,0,0,0-.21h0L173,134.84l-.06,0A1.63,1.63,0,0,0,171.39,134.71Z"></path><path d="M179.15,139.64a.41.41,0,0,1,.37,0l.18.11,2.73,1.83a.39.39,0,0,1,.1.08l0,.05h0a.43.43,0,0,1-.17.12l-22.55,11.41a1.27,1.27,0,0,1-1.18-.08L149,146.72a.56.56,0,0,1-.16-.14.57.57,0,0,1,.17-.12l22.38-11.32a1.65,1.65,0,0,1,1.51.09l.06,0,2.6,1.73s0,.33,0,.37,0,.08.07.12l3.19,2.12A.4.4,0,0,0,179.15,139.64Z" style="fill:#263238"></path><path d="M179,138.54l-1.46-1a.38.38,0,0,0-.31,0c-.09,0-.09.13,0,.18l1.45,1a.33.33,0,0,0,.32,0C179,138.68,179,138.6,179,138.54Z" style="fill:#263238"></path><path d="M176.81,137a.44.44,0,0,0-.37,0c-.11.05-.11.15,0,.21a.38.38,0,0,0,.36,0C176.9,137.19,176.91,137.1,176.81,137Z" style="fill:#263238"></path></g><path d="M162.56,146.11a2.49,2.49,0,0,1-1.29-2.18,2.46,2.46,0,0,1,1.54-2,6.51,6.51,0,0,1,6,.36,2.28,2.28,0,0,1-.25,4.21,6.55,6.55,0,0,1-6-.37Zm.3-4.1a2.16,2.16,0,0,0-.24,4,5.82,5.82,0,0,0,2.91.9,5.89,5.89,0,0,0,3-.54,2.16,2.16,0,0,0,.24-4,6.39,6.39,0,0,0-5.91-.35Z" style="fill:#890031"></path><g style="opacity:0.6000000000000001"><path d="M162.56,146.11a2.49,2.49,0,0,1-1.29-2.18,2.46,2.46,0,0,1,1.54-2,6.51,6.51,0,0,1,6,.36,2.28,2.28,0,0,1-.25,4.21,6.55,6.55,0,0,1-6-.37Zm.3-4.1a2.16,2.16,0,0,0-.24,4,5.82,5.82,0,0,0,2.91.9,5.89,5.89,0,0,0,3-.54,2.16,2.16,0,0,0,.24-4,6.39,6.39,0,0,0-5.91-.35Z" style="fill:#fff"></path></g><path d="M163.08,142.45c-1.55.78-1.64,2.2-.19,3.16a5.94,5.94,0,0,0,5.42.33c1.55-.78,1.63-2.2.19-3.17A5.93,5.93,0,0,0,163.08,142.45Z" style="fill:#890031"></path><g style="opacity:0.30000000000000004"><path d="M163.08,142.45c-1.55.78-1.64,2.2-.19,3.16a5.94,5.94,0,0,0,5.42.33c1.55-.78,1.63-2.2.19-3.17A5.93,5.93,0,0,0,163.08,142.45Z" style="fill:#fff"></path></g><path d="M167.49,144.08l-.67.34a.17.17,0,0,1-.14,0l-1.27-.85s0-.06,0-.08l.67-.34a1.9,1.9,0,0,1,1.69,0,.42.42,0,0,1,.2.48A1,1,0,0,1,167.49,144.08Z" style="fill:#263238"></path><path d="M166.44,144.61a1.87,1.87,0,0,1-1.59,0c-.36-.24-.26-.64.21-.92a.2.2,0,0,1,.15,0l1.27.85S166.49,144.58,166.44,144.61Z" style="fill:#263238"></path><path d="M164.55,144.87a2.29,2.29,0,0,0,2.32,0,.11.11,0,0,0,0-.14.1.1,0,0,0-.14,0,2.11,2.11,0,0,1-2.12,0,.51.51,0,0,1-.25-.42,1,1,0,0,1,.58-.73.1.1,0,0,0,0-.14.11.11,0,0,0-.14,0,1.2,1.2,0,0,0-.68.91.68.68,0,0,0,.06.29.72.72,0,0,0,.11.15l-.57.29-.27-.18a.1.1,0,0,0-.14,0,.12.12,0,0,0,0,.1l0,0,.64.43a.1.1,0,1,0,.11-.17l-.17-.12.54-.27Z" style="fill:#263238"></path><g style="opacity:0.15"><polygon points="161.94 139.49 164.88 138 166.7 149.82 163.76 151.31 161.94 139.49" style="fill:#fff"></polygon><path d="M169.37,148.47l-1.82-11.82,3.84-1.94a1.63,1.63,0,0,1,1.5.09l.06,0,1.61,1.07,1.42,9.22Z" style="fill:#fff"></path></g><path d="M174.71,152.17c1.36-1,3.39-2.42,3.65-3s1.81-3.61,2.26-4.25,0-1.58-1.72-1-2.46,2.69-2.85,3-2.74,1.94-2.74,1.94Z" style="fill:#ffbda7"></path><path d="M174.71,152.17c.68-.48,1.52-1.08,2.23-1.64a1.14,1.14,0,0,1-1.42-.95,2.28,2.28,0,0,0-1-1.67l-1.21.87Z" style="fill:#f0997a"></path><path d="M174.76,149c-.4-1-.53-.93-2.85-1.73-1.06-.37-1.37-.48-2.22-.75-.34-.11-.79.5-.59,1.39.3,1.37,1.75,2,2.88,2.4.08.76.18,1.32.18,1.32l-2.51,1.25.19,5.34c1.26-1.59,5.1-4.19,5.45-5.33A9,9,0,0,0,174.76,149Z" style="fill:#ffbda7"></path><path d="M171.41,155.36a18.67,18.67,0,0,0-.77-3l-1,.49.19,5.34a12.46,12.46,0,0,1,.9-1h0C171.24,156.26,171.48,155.94,171.41,155.36Z" style="fill:#f0997a"></path><path d="M172,150.31a3.09,3.09,0,0,0,1,0,2,2,0,0,1-1,.23Z" style="fill:#f0997a"></path><path d="M172.16,151.63a1.44,1.44,0,0,0,.53,1c-.42-.07-.7-.87-.7-.87Z" style="fill:#f0997a"></path><path d="M170,152.27a1.73,1.73,0,0,0-1-1.09c-1.16-.43-2-.72-3.34-1.12-1-.21-1.1,1.3-.26,2.24a6.63,6.63,0,0,0,1.91,1.18l.27,1.62s-4.16-.06-5.32.1c-2.48.35-5.82,3.22-5.08,9.92a5.55,5.55,0,0,1,3.26-2.88c1.8-.6,5.35-1.06,7.18-1.81,1.35-.77,3.23-3.28,3.14-4.5A23,23,0,0,0,170,152.27Z" style="fill:#ffbda7"></path><path d="M165.71,150.06a.64.64,0,0,0-.57.19.91.91,0,0,0-.17.56,2,2,0,0,0,.4,1.15,2.86,2.86,0,0,0,.92.8,9.83,9.83,0,0,0,1.12.57l.09,0v.08c.08.54.17,1.08.23,1.63v.06l0,0a3,3,0,0,1-.88.5,4.06,4.06,0,0,1-1,.19,4,4,0,0,0,.91-.33,2.69,2.69,0,0,0,.78-.53l0,.1c-.12-.53-.22-1.07-.32-1.6l.1.11a8.66,8.66,0,0,1-1.18-.59,2.87,2.87,0,0,1-1-.92,2.17,2.17,0,0,1-.34-1.31,1,1,0,0,1,.27-.62A.66.66,0,0,1,165.71,150.06Z" style="fill:#f0997a"></path><path d="M167.5,153.37a4.14,4.14,0,0,0,1.2.13,2.34,2.34,0,0,1-1.48.09Z" style="fill:#f0997a"></path><path d="M167.75,155.14a1.31,1.31,0,0,0,.8.89,1.11,1.11,0,0,1-1-1Z" style="fill:#f0997a"></path><path d="M149,154.59c-1,5.39-3.13,9.12-7.4,16.43-1.55,2.65-4.21,6.94-4.21,6.94-3.78,9.68,1.07,21.65,3.16,21.95,1.66.25,3.91-.93,5.9-3.76,3.72-5.29,4.12-8.45,6.6-17.24,2.62-9.29,3.26-11.86,4.16-13.79Z" style="fill:#ffbda7"></path><path id="freepik--chest--inject-4" d="M66.86,219.27c.58-4.27,3.52-4.91,2.09-15.1-.71-5-3.21-18.11-3.21-18.11S74,179,71.24,159.44l16.28-4.85,19.11,1.48c2.48,2.16,7.54,6.35,11.19,11.57,5.27,7.52,6.22,15.8.83,22-.06,1.21.16,19.82,1.55,24.35.55,1.8,1.3,4.25.14,6.67C115.15,229.25,84.42,238,66.86,219.27Z" style="fill:#f5f5f5"></path><path d="M60.72,243.87c-1.16-1.23-2.64-2.3-3.15-4a2.91,2.91,0,0,1,.36-2.6,1.36,1.36,0,0,0,.29-.47,1.06,1.06,0,0,0,0-.47,3.17,3.17,0,0,1,.08-1.93,2,2,0,0,1,1.2-1.07,4.7,4.7,0,0,1,0-2.92c.35-1.11,1.47-2,2.23-.8a9.87,9.87,0,0,1,.9,1.92,22.73,22.73,0,0,1,1.2,5.14c.22,1.83.76,7-2,7.31C61.51,244,60.89,244,60.72,243.87Z" style="fill:#f0997a"></path><path d="M71.24,159.44c-10.76,2.3-11.77,5.74-18,14.84s-14.06,21.5-16,25.91c-2.38,5.44-2.86,7.53,3,13.15,3,2.9,7.19,6.35,11.46,10.24,3.36,3.08,7.4,6.33,10.66,9.52a3,3,0,0,1,1.06,3,18.5,18.5,0,0,0-.52,2.2,17.69,17.69,0,0,0,.29,2.89,2.58,2.58,0,0,1-1.08,2.53,2.88,2.88,0,0,1-1.37.19,9.58,9.58,0,0,0,2.67,1.39,4,4,0,0,0,2.94-.16c.87-.45,1.51-1.3,2.44-1.6.5-.17,1-.15,1.55-.3a2.6,2.6,0,0,0,1.32-.91c.52-.69.72-1.67,1.47-2.11.35-.2.78-.24,1.15-.41a2.6,2.6,0,0,0,1.41-2,7.2,7.2,0,0,0-.11-2.53,63.42,63.42,0,0,0-1.5-6.66,6.93,6.93,0,0,0-1.11-2c-.53-.73-1-1.48-1.59-2.17C67.55,219.7,55.45,204,55.45,204l13.36-17.71A25.45,25.45,0,0,0,71.24,159.44Z" style="fill:#ffbda7"></path><path d="M55.45,204c-3.21,3.32-8.31,3.69-10.19,3.62a10.7,10.7,0,0,0,11.29-2.2Z" style="fill:#f0997a"></path><g id="freepik--head--inject-4"><path d="M80.64,146.88c-1.16-2.94-3.18-4.57-4.67-6-3.67-3.53-6.27-6.08-8.12-12.19-1.2-4-.23-11.65,4.59-14.12,1-7,6.39-10.59,15.23-10.29a65.81,65.81,0,0,1,10.23,1.59,27,27,0,0,0,4.57.7,10.1,10.1,0,0,0,4.53-.88c.77-.32,1.69-.81,2.35-.36a1.49,1.49,0,0,1,.52,1.21,5.52,5.52,0,0,1-2.53,4.79c4.29-.79,5.53,3.17,5.33,4.75a4.38,4.38,0,0,1-2.34,3.39,3.69,3.69,0,0,1,.57,4.48,8.69,8.69,0,0,1-3.67,2.9c-4.38,2.3-8.08,5.68-11.94,8.74C91.62,138.5,80.64,146.69,80.64,146.88Z" style="fill:#37474f"></path><path d="M100.47,112.45c4.27,1.78,7.39,3.49,8.93,19.44,1.1,11.36-3,15.4-4.89,16.36-2.63,1.32-4,1.95-7,1.79l.3,5.77a23.61,23.61,0,0,1,6.21,13C88.36,166.75,80.33,158,80.33,158l-.75-17.87c-.2.81-2.88,2.51-5.28.81-4.1-2.88-4-7.79-2.1-10a4.39,4.39,0,0,1,7.24.49S77.66,120.72,84,115.82C91.4,110.07,95.47,110.36,100.47,112.45Z" style="fill:#ffbda7"></path><path d="M94.15,139.06a2.81,2.81,0,0,0,1.78,3.52,2.76,2.76,0,0,0,3.33-2.06Z" style="fill:#b16668"></path><path d="M95.93,142.58a2.63,2.63,0,0,1-1.78-1.86,3.79,3.79,0,0,1,3.48,1.72A2.54,2.54,0,0,1,95.93,142.58Z" style="fill:#f28f8f"></path><polygon points="97.26 126.48 99.16 137.24 104.51 134.88 97.26 126.48" style="fill:#f0997a"></polygon><path d="M97.52,150c-9.1-1.15-13-2.95-16.23-8.19a11.74,11.74,0,0,0,2.71,5.3c4.2,4.24,13.61,4.82,13.61,4.82Z" style="fill:#f0997a"></path><path d="M93.54,124.76l-3.82,2.31a2.23,2.23,0,0,1,3.82-2.31Z" style="fill:#263238"></path><path d="M106.32,124.93l-4.06-1.56a2.27,2.27,0,0,1,2.89-1.24A2.08,2.08,0,0,1,106.32,124.93Z" style="fill:#263238"></path><path d="M102.61,128.43a1.59,1.59,0,1,0,1.71-1.47A1.6,1.6,0,0,0,102.61,128.43Z" style="fill:#263238"></path><path d="M91.27,129.67A1.59,1.59,0,1,0,93,128.2,1.6,1.6,0,0,0,91.27,129.67Z" style="fill:#263238"></path><path d="M96.52,117.36c-1.87.43-4.21-2.41-7.65-.35-3.05,1.83-1.84,4.31-4.67,7.62-1.88,2.21,0,6.75-2.31,7.9-1,.51-2.45-1.06-2.45-1.06s-2-2.75-1.58-9.41,9.65-11.66,16.3-12.34S106.91,113,107,119c0,0-1.7-4-4.85-4.22S98.2,117,96.52,117.36Z" style="fill:#37474f"></path></g></g></g></g></svg>
